<?xml version="1.0" encoding="UTF-8" standalone="no"?>
<!-- Created with Inkscape (http://www.inkscape.org/) -->

<svg
   xmlns:dc="http://purl.org/dc/elements/1.1/"
   xmlns:cc="http://creativecommons.org/ns#"
   xmlns:rdf="http://www.w3.org/1999/02/22-rdf-syntax-ns#"
   xmlns:svg="http://www.w3.org/2000/svg"
   xmlns="http://www.w3.org/2000/svg"
   xmlns:sodipodi="http://sodipodi.sourceforge.net/DTD/sodipodi-0.dtd"
   xmlns:inkscape="http://www.inkscape.org/namespaces/inkscape"
   width="600"
   height="400"
   id="svg2"
   version="1.1"
   inkscape:version="0.48.1 r9760"
   sodipodi:docname="moduleb-circuit-nobat.svg"
   inkscape:export-filename="/home/stick/work/scm/brmlab/edubrm/_repo/moduleb-circuit-nobat.png"
   inkscape:export-xdpi="90"
   inkscape:export-ydpi="90">
  <defs
     id="defs4" />
  <sodipodi:namedview
     id="base"
     pagecolor="#ffffff"
     bordercolor="#666666"
     borderopacity="1.0"
     inkscape:pageopacity="0.0"
     inkscape:pageshadow="2"
     inkscape:zoom="0.7"
     inkscape:cx="97.478993"
     inkscape:cy="146.12116"
     inkscape:document-units="px"
     inkscape:current-layer="layer1"
     showgrid="false"
     width="600px"
     inkscape:window-width="1024"
     inkscape:window-height="707"
     inkscape:window-x="0"
     inkscape:window-y="26"
     inkscape:window-maximized="1" />
  <metadata
     id="metadata7">
    <rdf:RDF>
      <cc:Work
         rdf:about="">
        <dc:format>image/svg+xml</dc:format>
        <dc:type
           rdf:resource="http://purl.org/dc/dcmitype/StillImage" />
        <dc:title></dc:title>
      </cc:Work>
    </rdf:RDF>
  </metadata>
  <g
     inkscape:label="Layer 1"
     inkscape:groupmode="layer"
     id="layer1"
     transform="translate(0,-652.36218)">
    <g
       id="g3125"
       transform="matrix(0.920092,0,0,0.920092,1.3956531,68.097042)"
       inkscape:export-xdpi="90"
       inkscape:export-ydpi="90">
      <flowRoot
         transform="matrix(0.77860374,0,0,0.77860374,-152.5048,576.1313)"
         id="flowRoot1894"
         xml:space="preserve"><flowRegion
           id="flowRegion1896"><rect
             y="94.737572"
             x="181.82745"
             height="29.294424"
             width="50.507626"
             id="rect1898" /></flowRegion><flowPara
           style="font-size:20px"
           id="flowPara1900">SRG8</flowPara></flowRoot>      <g
         transform="matrix(1.3198701,0,0,1.3198701,-86.82197,-218.53833)"
         id="g3714">
        <path
           sodipodi:type="arc"
           style="fill:#ffffff;fill-opacity:1;stroke:#000000;stroke-width:6.84149933;stroke-miterlimit:3.94970989;stroke-opacity:1;stroke-dasharray:none"
           id="path2228"
           sodipodi:cx="1525"
           sodipodi:cy="225"
           sodipodi:rx="75"
           sodipodi:ry="75"
           d="m 1600,225 c 0,41.42136 -33.5786,75 -75,75 -41.4214,0 -75,-33.57864 -75,-75 0,-41.42136 33.5786,-75 75,-75 41.4214,0 75,33.57864 75,75 z"
           transform="matrix(0.43850038,0,0,0.43850038,-200.11816,725.45103)" />
        <path
           inkscape:connector-curvature="0"
           style="fill:none;stroke:#000000;stroke-width:3;stroke-linecap:butt;stroke-linejoin:miter;stroke-miterlimit:3.94970989;stroke-opacity:1;stroke-dasharray:none"
           d="m 444.97894,847.72961 c 0,0 47.23198,-47.23197 47.23198,-47.23197"
           id="path2230"
           sodipodi:nodetypes="cc" />
        <path
           inkscape:connector-curvature="0"
           style="fill:none;stroke:#000000;stroke-width:3;stroke-linecap:butt;stroke-linejoin:miter;stroke-miterlimit:3.94970989;stroke-opacity:1;stroke-dasharray:none"
           d="M 492.21092,847.72961 444.97894,800.49764"
           id="path2242"
           sodipodi:nodetypes="cc" />
      </g>
      <path
         sodipodi:nodetypes="ccc"
         id="path2246"
         d="m 103.34711,748.13089 54.50227,0 72.52729,-40.69062"
         style="fill:none;stroke:#000000;stroke-width:3.95961022;stroke-linecap:butt;stroke-linejoin:miter;stroke-miterlimit:3.94970989;stroke-opacity:1;stroke-dasharray:none"
         inkscape:connector-curvature="0" />
      <path
         sodipodi:nodetypes="ccc"
         id="path2250"
         d="m 103.34711,748.13089 -54.502262,0 0,71.83477"
         style="fill:none;stroke:#000000;stroke-width:3.95961022;stroke-linecap:butt;stroke-linejoin:miter;stroke-miterlimit:3.94970989;stroke-opacity:1;stroke-dasharray:none"
         inkscape:connector-curvature="0" />
      <path
         sodipodi:nodetypes="cccc"
         id="path2254"
         d="m 48.844848,908.23654 0,89.04755 482.734312,0 0,-84.26138"
         style="fill:none;stroke:#000000;stroke-width:3.95961022;stroke-linecap:butt;stroke-linejoin:miter;stroke-miterlimit:3.94970989;stroke-opacity:1;stroke-dasharray:none"
         inkscape:connector-curvature="0" />
      <path
         sodipodi:nodetypes="ccc"
         id="path2256"
         d="m 235.78687,748.13089 295.79229,0 0,77.16785"
         style="fill:none;stroke:#000000;stroke-width:3.95961022;stroke-linecap:butt;stroke-linejoin:miter;stroke-miterlimit:3.94970989;stroke-opacity:1;stroke-dasharray:none"
         inkscape:connector-curvature="0" />
      <path
         transform="translate(0,652.36218)"
         d="m 242.05781,95.691544 c 0,2.719722 -2.20477,4.924496 -4.92449,4.924496 -2.71973,0 -4.9245,-2.204774 -4.9245,-4.924496 0,-2.719723 2.20477,-4.924494 4.9245,-4.924494 2.71972,0 4.92449,2.204771 4.92449,4.924494 z"
         sodipodi:ry="4.9244938"
         sodipodi:rx="4.9244938"
         sodipodi:cy="95.691544"
         sodipodi:cx="237.13332"
         id="path3761"
         style="fill:#000000;fill-opacity:1;stroke:#000000;stroke-width:3;stroke-linecap:round;stroke-linejoin:miter;stroke-miterlimit:4;stroke-opacity:1;stroke-dasharray:none"
         sodipodi:type="arc" />
      <path
         sodipodi:type="arc"
         style="fill:#000000;fill-opacity:1;stroke:#000000;stroke-width:3;stroke-linecap:round;stroke-linejoin:miter;stroke-miterlimit:4;stroke-opacity:1;stroke-dasharray:none"
         id="path3058"
         sodipodi:cx="237.13332"
         sodipodi:cy="95.691544"
         sodipodi:rx="4.9244938"
         sodipodi:ry="4.9244938"
         d="m 242.05781,95.691544 c 0,2.719722 -2.20477,4.924496 -4.92449,4.924496 -2.71973,0 -4.9245,-2.204774 -4.9245,-4.924496 0,-2.719723 2.20477,-4.924494 4.9245,-4.924494 2.71972,0 4.92449,2.204771 4.92449,4.924494 z"
         transform="translate(-188.21429,725.21932)" />
      <path
         transform="translate(-188.21429,813.96932)"
         d="m 242.05781,95.691544 c 0,2.719722 -2.20477,4.924496 -4.92449,4.924496 -2.71973,0 -4.9245,-2.204774 -4.9245,-4.924496 0,-2.719723 2.20477,-4.924494 4.9245,-4.924494 2.71972,0 4.92449,2.204771 4.92449,4.924494 z"
         sodipodi:ry="4.9244938"
         sodipodi:rx="4.9244938"
         sodipodi:cy="95.691544"
         sodipodi:cx="237.13332"
         id="path3060"
         style="fill:#000000;fill-opacity:1;stroke:#000000;stroke-width:3;stroke-linecap:round;stroke-linejoin:miter;stroke-miterlimit:4;stroke-opacity:1;stroke-dasharray:none"
         sodipodi:type="arc" />
    </g>
  </g>
</svg>
