G75*
G70*
%OFA0B0*%
%FSLAX24Y24*%
%IPPOS*%
%LPD*%
%AMOC8*
5,1,8,0,0,1.08239X$1,22.5*
%
%ADD10C,0.0474*%
%ADD11C,0.0680*%
%ADD12C,0.0319*%
D10*
X015107Y002348D03*
X016840Y002348D03*
D11*
X002800Y004452D02*
X002200Y004452D01*
X002200Y005452D02*
X002800Y005452D01*
X002800Y006452D02*
X002200Y006452D01*
X002200Y007452D02*
X002800Y007452D01*
X002800Y008452D02*
X002200Y008452D01*
X002200Y009452D02*
X002800Y009452D01*
X002800Y010452D02*
X002200Y010452D01*
X002200Y011452D02*
X002800Y011452D01*
X002800Y012452D02*
X002200Y012452D01*
X002200Y013452D02*
X002800Y013452D01*
X002800Y014452D02*
X002200Y014452D01*
X002200Y015452D02*
X002800Y015452D01*
X002800Y016452D02*
X002200Y016452D01*
X019552Y005108D02*
X019552Y004508D01*
X020552Y004508D02*
X020552Y005108D01*
X021552Y005108D02*
X021552Y004508D01*
X022552Y004508D02*
X022552Y005108D01*
X023552Y005108D02*
X023552Y004508D01*
X024552Y004508D02*
X024552Y005108D01*
X030319Y005351D02*
X030919Y005351D01*
X030919Y006351D02*
X030319Y006351D01*
X030319Y007351D02*
X030919Y007351D01*
X030919Y008351D02*
X030319Y008351D01*
X030319Y009351D02*
X030919Y009351D01*
X030919Y010351D02*
X030319Y010351D01*
X030319Y011351D02*
X030919Y011351D01*
X030919Y012351D02*
X030319Y012351D01*
X030319Y013351D02*
X030919Y013351D01*
X030919Y014351D02*
X030319Y014351D01*
X030319Y015351D02*
X030919Y015351D01*
X030919Y016351D02*
X030319Y016351D01*
X030319Y004351D02*
X030919Y004351D01*
D12*
X028200Y007428D03*
X027293Y007428D03*
X026285Y007428D03*
X028100Y009847D03*
X029309Y010250D03*
X028100Y011056D03*
X029173Y011561D03*
X028100Y012367D03*
X029208Y012971D03*
X028100Y013677D03*
X029309Y014181D03*
X027999Y014987D03*
X029309Y015693D03*
X027999Y016297D03*
X026890Y013878D03*
X026890Y013475D03*
X025681Y013475D03*
X025681Y013878D03*
X024572Y012971D03*
X024068Y012669D03*
X023564Y012367D03*
X023060Y012064D03*
X021649Y012367D03*
X021246Y012669D03*
X020843Y013072D03*
X020339Y013274D03*
X019835Y013072D03*
X020137Y012669D03*
X020540Y012367D03*
X020944Y012064D03*
X019633Y011661D03*
X019432Y011863D03*
X019230Y012064D03*
X018323Y011863D03*
X017214Y011661D03*
X016912Y011460D03*
X016207Y011258D03*
X015199Y010956D03*
X014014Y010477D03*
X012981Y011258D03*
X013183Y011560D03*
X013788Y011963D03*
X016421Y012199D03*
X018827Y011056D03*
X018726Y010653D03*
X018525Y010452D03*
X018323Y010250D03*
X018537Y009884D03*
X018827Y009746D03*
X018323Y008940D03*
X017227Y008234D03*
X015803Y008637D03*
X014292Y009645D03*
X013989Y008738D03*
X013586Y006823D03*
X011268Y006017D03*
X011974Y004203D03*
X008950Y004203D03*
X009151Y008335D03*
X009655Y010502D03*
X007539Y011560D03*
X009655Y011963D03*
X010865Y013576D03*
X011268Y013524D03*
X011268Y014483D03*
X010865Y014483D03*
X014292Y014987D03*
X020641Y013778D03*
X016509Y010452D03*
X019633Y008940D03*
X020037Y008940D03*
X018424Y007327D03*
X006531Y012971D03*
X006128Y012971D03*
M02*
