%
M48
M72
T01C0.0079
T02C0.0394
T03C0.0400
%
T01
X8950Y4203
X11268Y6017
X13586Y6823
X15803Y8637
X17227Y8234
X18323Y8940
X18827Y9746
X18537Y9884
X18323Y10250
X18525Y10452
X18726Y10653
X18827Y11056
X19633Y11661
X19432Y11863
X19230Y12064
X18323Y11863
X17214Y11661
X16912Y11460
X16207Y11258
X15199Y10956
X14014Y10477
X12981Y11258
X13183Y11560
X13788Y11963
X16421Y12199
X16509Y10452
X14292Y9645
X13989Y8738
X9655Y10502
X7539Y11560
X9655Y11963
X10865Y13576
X11268Y13524
X11268Y14483
X10865Y14483
X14292Y14987
X19835Y13072
X20339Y13274
X20843Y13072
X21246Y12669
X21649Y12367
X20944Y12064
X20540Y12367
X20137Y12669
X20641Y13778
X23060Y12064
X23564Y12367
X24068Y12669
X24572Y12971
X25681Y13475
X25681Y13878
X26890Y13878
X26890Y13475
X28100Y13677
X29309Y14181
X27999Y14987
X29309Y15693
X27999Y16297
X29208Y12971
X28100Y12367
X29173Y11561
X28100Y11056
X29309Y10250
X28100Y9847
X28200Y7428
X27293Y7428
X26285Y7428
X20037Y8940
X19633Y8940
X18424Y7327
X11974Y4203
X9151Y8335
X6531Y12971
X6128Y12971
T02
X15107Y2348
X16840Y2348
T03
X2500Y4452
X2500Y5452
X2500Y6452
X2500Y7452
X2500Y8452
X2500Y9452
X2500Y10452
X2500Y11452
X2500Y12452
X2500Y13452
X2500Y14452
X2500Y15452
X2500Y16452
X19552Y4808
X20552Y4808
X21552Y4808
X22552Y4808
X23552Y4808
X24552Y4808
X30619Y4351
X30619Y5351
X30619Y6351
X30619Y7351
X30619Y8351
X30619Y9351
X30619Y10351
X30619Y11351
X30619Y12351
X30619Y13351
X30619Y14351
X30619Y15351
X30619Y16351
M30
