G75*
G70*
%OFA0B0*%
%FSLAX24Y24*%
%IPPOS*%
%LPD*%
%AMOC8*
5,1,8,0,0,1.08239X$1,22.5*
%
%ADD10C,0.0000*%
%ADD11C,0.0120*%
%ADD12R,0.0591X0.0098*%
%ADD13R,0.0098X0.0591*%
%ADD14R,0.0787X0.0945*%
%ADD15R,0.0197X0.0909*%
%ADD16R,0.0710X0.0630*%
%ADD17R,0.0945X0.0630*%
%ADD18R,0.0630X0.0157*%
%ADD19R,0.0512X0.0512*%
%ADD20R,0.0512X0.1417*%
%ADD21R,0.0709X0.0630*%
%ADD22R,0.0630X0.0945*%
%ADD23R,0.0591X0.0591*%
%ADD24R,0.0600X0.0300*%
%ADD25R,0.0748X0.1339*%
%ADD26R,0.0748X0.0433*%
%ADD27R,0.0630X0.0709*%
%ADD28R,0.0800X0.0260*%
%ADD29R,0.0157X0.0276*%
%ADD30C,0.0600*%
%ADD31R,0.0260X0.0800*%
%ADD32C,0.0160*%
%ADD33C,0.0100*%
%ADD34C,0.0239*%
D10*
X000585Y000675D02*
X000585Y018149D01*
X032093Y018149D01*
X032093Y000675D01*
X000585Y000675D01*
X014910Y002348D02*
X014912Y002375D01*
X014918Y002402D01*
X014927Y002428D01*
X014940Y002452D01*
X014956Y002475D01*
X014975Y002494D01*
X014997Y002511D01*
X015021Y002525D01*
X015046Y002535D01*
X015073Y002542D01*
X015100Y002545D01*
X015128Y002544D01*
X015155Y002539D01*
X015181Y002531D01*
X015205Y002519D01*
X015228Y002503D01*
X015249Y002485D01*
X015266Y002464D01*
X015281Y002440D01*
X015292Y002415D01*
X015300Y002389D01*
X015304Y002362D01*
X015304Y002334D01*
X015300Y002307D01*
X015292Y002281D01*
X015281Y002256D01*
X015266Y002232D01*
X015249Y002211D01*
X015228Y002193D01*
X015206Y002177D01*
X015181Y002165D01*
X015155Y002157D01*
X015128Y002152D01*
X015100Y002151D01*
X015073Y002154D01*
X015046Y002161D01*
X015021Y002171D01*
X014997Y002185D01*
X014975Y002202D01*
X014956Y002221D01*
X014940Y002244D01*
X014927Y002268D01*
X014918Y002294D01*
X014912Y002321D01*
X014910Y002348D01*
X016643Y002348D02*
X016645Y002375D01*
X016651Y002402D01*
X016660Y002428D01*
X016673Y002452D01*
X016689Y002475D01*
X016708Y002494D01*
X016730Y002511D01*
X016754Y002525D01*
X016779Y002535D01*
X016806Y002542D01*
X016833Y002545D01*
X016861Y002544D01*
X016888Y002539D01*
X016914Y002531D01*
X016938Y002519D01*
X016961Y002503D01*
X016982Y002485D01*
X016999Y002464D01*
X017014Y002440D01*
X017025Y002415D01*
X017033Y002389D01*
X017037Y002362D01*
X017037Y002334D01*
X017033Y002307D01*
X017025Y002281D01*
X017014Y002256D01*
X016999Y002232D01*
X016982Y002211D01*
X016961Y002193D01*
X016939Y002177D01*
X016914Y002165D01*
X016888Y002157D01*
X016861Y002152D01*
X016833Y002151D01*
X016806Y002154D01*
X016779Y002161D01*
X016754Y002171D01*
X016730Y002185D01*
X016708Y002202D01*
X016689Y002221D01*
X016673Y002244D01*
X016660Y002268D01*
X016651Y002294D01*
X016645Y002321D01*
X016643Y002348D01*
D11*
X020802Y002434D02*
X021262Y002434D01*
X020802Y003124D02*
X020802Y001743D01*
X021723Y001743D01*
X022183Y001743D02*
X022874Y001743D01*
X023104Y001973D01*
X023104Y002894D01*
X022874Y003124D01*
X022183Y003124D01*
X022183Y001743D01*
X023564Y001973D02*
X023794Y001743D01*
X024255Y001743D01*
X024485Y001973D01*
X024485Y003124D01*
X024945Y003124D02*
X025636Y003124D01*
X025866Y002894D01*
X025866Y002664D01*
X025636Y002434D01*
X024945Y002434D01*
X025636Y002434D02*
X025866Y002204D01*
X025866Y001973D01*
X025636Y001743D01*
X024945Y001743D01*
X024945Y003124D01*
X023564Y003124D02*
X023564Y001973D01*
X021723Y003124D02*
X020802Y003124D01*
X026327Y003124D02*
X026327Y001743D01*
X026327Y002204D02*
X027017Y002204D01*
X027247Y002434D01*
X027247Y002894D01*
X027017Y003124D01*
X026327Y003124D01*
X026787Y002204D02*
X027247Y001743D01*
X027708Y001743D02*
X027708Y003124D01*
X028168Y002664D01*
X028629Y003124D01*
X028629Y001743D01*
D12*
X017836Y009886D03*
X017836Y010083D03*
X017836Y010280D03*
X017836Y010477D03*
X017836Y010674D03*
X017836Y010871D03*
X017836Y011067D03*
X017836Y011264D03*
X017836Y011461D03*
X017836Y011658D03*
X017836Y011855D03*
X017836Y012052D03*
X014450Y012052D03*
X014450Y011855D03*
X014450Y011658D03*
X014450Y011461D03*
X014450Y011264D03*
X014450Y011067D03*
X014450Y010871D03*
X014450Y010674D03*
X014450Y010477D03*
X014450Y010280D03*
X014450Y010083D03*
X014450Y009886D03*
D13*
X015060Y009276D03*
X015257Y009276D03*
X015454Y009276D03*
X015651Y009276D03*
X015848Y009276D03*
X016044Y009276D03*
X016241Y009276D03*
X016438Y009276D03*
X016635Y009276D03*
X016832Y009276D03*
X017029Y009276D03*
X017226Y009276D03*
X017226Y012662D03*
X017029Y012662D03*
X016832Y012662D03*
X016635Y012662D03*
X016438Y012662D03*
X016241Y012662D03*
X016044Y012662D03*
X015848Y012662D03*
X015651Y012662D03*
X015454Y012662D03*
X015257Y012662D03*
X015060Y012662D03*
D14*
X014241Y003332D03*
X014241Y001167D03*
X017706Y001167D03*
X017706Y003332D03*
D15*
X016603Y003554D03*
X016289Y003554D03*
X015974Y003554D03*
X015659Y003554D03*
X015344Y003554D03*
D16*
X015656Y005764D03*
X016743Y005767D03*
X017797Y005765D03*
X017797Y006885D03*
X016743Y006887D03*
X015656Y006883D03*
X010948Y007955D03*
X010948Y009074D03*
X006527Y010264D03*
X006527Y011384D03*
X013484Y015287D03*
X013484Y016407D03*
X019759Y015854D03*
X019759Y014734D03*
D17*
X020526Y010695D03*
X020526Y009514D03*
X012159Y014104D03*
X012159Y015285D03*
X012977Y003726D03*
X012977Y002545D03*
D18*
X010377Y009746D03*
X010377Y010002D03*
X010377Y010258D03*
X010377Y010514D03*
X010377Y010770D03*
X010377Y011026D03*
X010377Y011282D03*
X010377Y011538D03*
X008055Y011538D03*
X008055Y011282D03*
X008055Y011026D03*
X008055Y010770D03*
X008055Y010514D03*
X008055Y010258D03*
X008055Y010002D03*
X008055Y009746D03*
D19*
X012008Y003736D03*
X012008Y002830D03*
X012008Y001925D03*
D20*
X009606Y002830D03*
D21*
X014493Y005163D03*
X014493Y006266D03*
X012039Y007949D03*
X012039Y009052D03*
X006516Y009107D03*
X006516Y008005D03*
X018737Y014734D03*
X018737Y015836D03*
X022355Y015941D03*
X022355Y014839D03*
X021649Y010600D03*
X021649Y009497D03*
X028906Y006467D03*
X028906Y005365D03*
D22*
X010438Y005082D03*
X009257Y005082D03*
D23*
X021138Y014660D03*
X021138Y016038D03*
D24*
X017312Y016571D03*
X015312Y016571D03*
X015312Y015071D03*
X017312Y015071D03*
D25*
X009837Y008334D03*
X008301Y008334D03*
D26*
X012152Y006067D03*
X012152Y005161D03*
X013609Y005161D03*
X013609Y006067D03*
X009930Y012482D03*
X008473Y012482D03*
X008473Y013388D03*
X009930Y013388D03*
D27*
X009756Y014211D03*
X008653Y014211D03*
X006276Y002893D03*
X005174Y002893D03*
D28*
X004708Y003816D03*
X004708Y004316D03*
X004708Y004816D03*
X004708Y005316D03*
X007128Y005316D03*
X007128Y004816D03*
X007128Y004316D03*
X007128Y003816D03*
D29*
X028448Y009109D03*
X028704Y009109D03*
X028960Y009109D03*
X028960Y009778D03*
X028704Y009778D03*
X028448Y009778D03*
X028448Y010419D03*
X028704Y010419D03*
X028960Y010419D03*
X028960Y011089D03*
X028704Y011089D03*
X028448Y011089D03*
X028448Y011730D03*
X028704Y011730D03*
X028960Y011730D03*
X028960Y012399D03*
X028704Y012399D03*
X028448Y012399D03*
X028448Y013040D03*
X028704Y013040D03*
X028960Y013040D03*
X028960Y013709D03*
X028704Y013709D03*
X028448Y013709D03*
X028448Y014350D03*
X028704Y014350D03*
X028960Y014350D03*
X028960Y015019D03*
X028704Y015019D03*
X028448Y015019D03*
X028448Y015660D03*
X028704Y015660D03*
X028960Y015660D03*
X028960Y016330D03*
X028704Y016330D03*
X028448Y016330D03*
D30*
X030319Y016351D02*
X030919Y016351D01*
X030919Y015351D02*
X030319Y015351D01*
X030319Y014351D02*
X030919Y014351D01*
X030919Y013351D02*
X030319Y013351D01*
X030319Y012351D02*
X030919Y012351D01*
X030919Y011351D02*
X030319Y011351D01*
X030319Y010351D02*
X030919Y010351D01*
X030919Y009351D02*
X030319Y009351D01*
X030319Y008351D02*
X030919Y008351D01*
X030919Y007351D02*
X030319Y007351D01*
X030319Y006351D02*
X030919Y006351D01*
X030919Y005351D02*
X030319Y005351D01*
X030319Y004351D02*
X030919Y004351D01*
X024552Y004508D02*
X024552Y005108D01*
X023552Y005108D02*
X023552Y004508D01*
X022552Y004508D02*
X022552Y005108D01*
X021552Y005108D02*
X021552Y004508D01*
X020552Y004508D02*
X020552Y005108D01*
X019552Y005108D02*
X019552Y004508D01*
X002800Y004452D02*
X002200Y004452D01*
X002200Y005452D02*
X002800Y005452D01*
X002800Y006452D02*
X002200Y006452D01*
X002200Y007452D02*
X002800Y007452D01*
X002800Y008452D02*
X002200Y008452D01*
X002200Y009452D02*
X002800Y009452D01*
X002800Y010452D02*
X002200Y010452D01*
X002200Y011452D02*
X002800Y011452D01*
X002800Y012452D02*
X002200Y012452D01*
X002200Y013452D02*
X002800Y013452D01*
X002800Y014452D02*
X002200Y014452D01*
X002200Y015452D02*
X002800Y015452D01*
X002800Y016452D02*
X002200Y016452D01*
D31*
X022568Y011359D03*
X023068Y011359D03*
X023568Y011359D03*
X024068Y011359D03*
X024568Y011359D03*
X025068Y011359D03*
X025568Y011359D03*
X025568Y008939D03*
X025068Y008939D03*
X024568Y008939D03*
X024068Y008939D03*
X023568Y008939D03*
X023068Y008939D03*
X022568Y008939D03*
D32*
X022278Y008876D02*
X019541Y008876D01*
X019541Y008718D02*
X022278Y008718D01*
X022278Y008559D02*
X019541Y008559D01*
X019541Y008401D02*
X022350Y008401D01*
X022358Y008393D02*
X022358Y007940D01*
X019541Y007940D01*
X019541Y011351D01*
X019418Y011474D01*
X019244Y011474D01*
X018291Y011474D01*
X018291Y011542D01*
X018291Y011583D01*
X018379Y011583D01*
X018481Y011626D01*
X018560Y011704D01*
X018602Y011807D01*
X018602Y011918D01*
X018560Y012021D01*
X018481Y012099D01*
X018379Y012142D01*
X018291Y012142D01*
X018291Y012157D01*
X018966Y012157D01*
X018951Y012120D01*
X018951Y012009D01*
X018993Y011906D01*
X019072Y011827D01*
X019159Y011791D01*
X019195Y011704D01*
X019274Y011626D01*
X019361Y011590D01*
X019397Y011503D01*
X019475Y011424D01*
X019578Y011382D01*
X019689Y011382D01*
X019792Y011424D01*
X019818Y011451D01*
X021562Y011451D01*
X021736Y011451D01*
X021859Y011574D01*
X021859Y012181D01*
X021886Y012208D01*
X021928Y012311D01*
X021928Y012422D01*
X021886Y012525D01*
X021807Y012603D01*
X021705Y012646D01*
X021594Y012646D01*
X021525Y012618D01*
X021525Y012725D01*
X021483Y012827D01*
X021404Y012906D01*
X021302Y012948D01*
X021190Y012948D01*
X021088Y012906D01*
X021009Y012827D01*
X020967Y012725D01*
X020967Y012613D01*
X021009Y012511D01*
X021036Y012484D01*
X021036Y012328D01*
X020999Y012344D01*
X020888Y012344D01*
X020820Y012315D01*
X020820Y012422D01*
X020777Y012525D01*
X020699Y012603D01*
X020596Y012646D01*
X020485Y012646D01*
X020417Y012618D01*
X020417Y012725D01*
X020374Y012827D01*
X020339Y012862D01*
X020658Y012862D01*
X020685Y012835D01*
X020787Y012793D01*
X020898Y012793D01*
X021001Y012835D01*
X021080Y012914D01*
X021122Y013017D01*
X021122Y013128D01*
X021080Y013230D01*
X021001Y013309D01*
X020898Y013351D01*
X020787Y013351D01*
X020685Y013309D01*
X020658Y013282D01*
X020618Y013282D01*
X020618Y013329D01*
X020576Y013432D01*
X020497Y013511D01*
X020394Y013553D01*
X020283Y013553D01*
X020181Y013511D01*
X020154Y013484D01*
X016722Y013484D01*
X016548Y013484D01*
X016425Y013361D01*
X016425Y013137D01*
X016365Y013137D01*
X016319Y013125D01*
X016306Y013117D01*
X016244Y013117D01*
X016244Y013627D01*
X020401Y013627D01*
X020404Y013619D01*
X020483Y013541D01*
X020586Y013498D01*
X020697Y013498D01*
X020799Y013541D01*
X020878Y013619D01*
X020921Y013722D01*
X020921Y013833D01*
X020917Y013842D01*
X022307Y013842D01*
X022316Y013842D01*
X022316Y011864D01*
X022278Y011826D01*
X022278Y010893D01*
X022316Y010855D01*
X022316Y010840D01*
X022163Y010840D01*
X022163Y010981D01*
X022070Y011075D01*
X021229Y011075D01*
X021159Y011005D01*
X021159Y011076D01*
X021065Y011170D01*
X019988Y011170D01*
X019894Y011076D01*
X019894Y010314D01*
X019988Y010220D01*
X021065Y010220D01*
X021135Y010290D01*
X021135Y010218D01*
X021229Y010125D01*
X022070Y010125D01*
X022163Y010218D01*
X022163Y010360D01*
X022604Y010360D01*
X022692Y010396D01*
X022760Y010464D01*
X022796Y010552D01*
X022796Y010647D01*
X022796Y010831D01*
X022818Y010853D01*
X022858Y010813D01*
X022858Y009486D01*
X022818Y009446D01*
X022764Y009499D01*
X022372Y009499D01*
X022278Y009406D01*
X022278Y008473D01*
X022358Y008393D01*
X022358Y008242D02*
X019541Y008242D01*
X019541Y008084D02*
X022358Y008084D01*
X022778Y008084D02*
X028747Y008084D01*
X028747Y008242D02*
X022778Y008242D01*
X022778Y008393D02*
X022818Y008433D01*
X022872Y008379D01*
X023264Y008379D01*
X023318Y008433D01*
X023372Y008379D01*
X023764Y008379D01*
X023818Y008433D01*
X023872Y008379D01*
X024264Y008379D01*
X024318Y008433D01*
X024372Y008379D01*
X024764Y008379D01*
X024818Y008433D01*
X024872Y008379D01*
X025264Y008379D01*
X025318Y008433D01*
X025372Y008379D01*
X025764Y008379D01*
X025858Y008473D01*
X025858Y008899D01*
X028216Y008899D01*
X028303Y008811D01*
X028543Y008811D01*
X028556Y008804D01*
X028602Y008791D01*
X028704Y008791D01*
X028704Y009109D01*
X028704Y009109D01*
X028704Y008791D01*
X028747Y008791D01*
X028747Y007223D01*
X019339Y007235D01*
X019339Y007520D01*
X022481Y007520D01*
X022655Y007520D01*
X022778Y007643D01*
X022778Y008393D01*
X022786Y008401D02*
X022850Y008401D01*
X023286Y008401D02*
X023350Y008401D01*
X023786Y008401D02*
X023850Y008401D01*
X024286Y008401D02*
X024350Y008401D01*
X024786Y008401D02*
X024850Y008401D01*
X025286Y008401D02*
X025350Y008401D01*
X025786Y008401D02*
X028747Y008401D01*
X028747Y008559D02*
X025858Y008559D01*
X025858Y008718D02*
X028747Y008718D01*
X028704Y008876D02*
X028704Y008876D01*
X028704Y009035D02*
X028704Y009035D01*
X029167Y008873D02*
X029199Y008905D01*
X029199Y009313D01*
X029177Y009335D01*
X029401Y009335D01*
X029401Y007414D01*
X029401Y007240D01*
X029524Y007117D01*
X029918Y007117D01*
X029929Y007090D01*
X030059Y006961D01*
X030228Y006891D01*
X030409Y006891D01*
X030409Y006811D01*
X030228Y006811D01*
X030059Y006741D01*
X029995Y006677D01*
X029420Y006677D01*
X029420Y006849D01*
X029326Y006942D01*
X029167Y006942D01*
X029167Y007012D01*
X029167Y007099D01*
X029167Y007099D01*
X029167Y008873D01*
X029170Y008876D02*
X029401Y008876D01*
X029401Y008718D02*
X029167Y008718D01*
X029167Y008559D02*
X029401Y008559D01*
X029401Y008401D02*
X029167Y008401D01*
X029167Y008242D02*
X029401Y008242D01*
X029401Y008084D02*
X029167Y008084D01*
X029167Y007925D02*
X029401Y007925D01*
X029401Y007767D02*
X029167Y007767D01*
X029167Y007608D02*
X029401Y007608D01*
X029401Y007450D02*
X029167Y007450D01*
X029167Y007291D02*
X029401Y007291D01*
X029509Y007133D02*
X029167Y007133D01*
X029167Y006974D02*
X030046Y006974D01*
X030409Y006815D02*
X029420Y006815D01*
X029420Y006257D02*
X029860Y006257D01*
X029929Y006090D01*
X030059Y005961D01*
X030228Y005891D01*
X031011Y005891D01*
X031180Y005961D01*
X031309Y006090D01*
X031379Y006259D01*
X031379Y006442D01*
X031309Y006611D01*
X031180Y006741D01*
X031011Y006811D01*
X030829Y006811D01*
X030829Y006891D01*
X031011Y006891D01*
X031180Y006961D01*
X031309Y007090D01*
X031379Y007259D01*
X031379Y007442D01*
X031309Y007611D01*
X031180Y007741D01*
X031011Y007811D01*
X030228Y007811D01*
X030059Y007741D01*
X029929Y007611D01*
X029899Y007537D01*
X029821Y007537D01*
X029821Y009558D01*
X029882Y009583D01*
X029950Y009650D01*
X029986Y009738D01*
X029986Y009834D01*
X029986Y010033D01*
X030059Y009961D01*
X030228Y009891D01*
X031011Y009891D01*
X031180Y009961D01*
X031309Y010090D01*
X031379Y010259D01*
X031379Y010442D01*
X031309Y010611D01*
X031180Y010741D01*
X031011Y010811D01*
X030261Y010811D01*
X030377Y010891D01*
X031011Y010891D01*
X031180Y010961D01*
X031309Y011090D01*
X031379Y011259D01*
X031379Y011442D01*
X031309Y011611D01*
X031180Y011741D01*
X031011Y011811D01*
X030298Y011811D01*
X030405Y011891D01*
X031011Y011891D01*
X031180Y011961D01*
X031309Y012090D01*
X031379Y012259D01*
X031379Y012442D01*
X031309Y012611D01*
X031180Y012741D01*
X031011Y012811D01*
X030228Y012811D01*
X030059Y012741D01*
X030053Y012735D01*
X030053Y012967D01*
X030059Y012961D01*
X030228Y012891D01*
X031011Y012891D01*
X031180Y012961D01*
X031309Y013090D01*
X031379Y013259D01*
X031379Y013442D01*
X031309Y013611D01*
X031180Y013741D01*
X031011Y013811D01*
X030228Y013811D01*
X030141Y013775D01*
X030141Y013927D01*
X030228Y013891D01*
X031011Y013891D01*
X031180Y013961D01*
X031309Y014090D01*
X031379Y014259D01*
X031379Y014442D01*
X031309Y014611D01*
X031180Y014741D01*
X031011Y014811D01*
X030228Y014811D01*
X030059Y014741D01*
X029929Y014611D01*
X029922Y014594D01*
X029922Y014784D01*
X029959Y014784D01*
X030047Y014820D01*
X030115Y014888D01*
X030132Y014930D01*
X030228Y014891D01*
X031011Y014891D01*
X031180Y014961D01*
X031309Y015090D01*
X031379Y015259D01*
X031379Y015442D01*
X031309Y015611D01*
X031180Y015741D01*
X031011Y015811D01*
X030228Y015811D01*
X030059Y015741D01*
X029929Y015611D01*
X029922Y015594D01*
X029922Y016090D01*
X029930Y016090D01*
X030059Y015961D01*
X030228Y015891D01*
X031011Y015891D01*
X031180Y015961D01*
X031309Y016090D01*
X031379Y016259D01*
X031379Y016442D01*
X031309Y016611D01*
X031180Y016741D01*
X031011Y016811D01*
X030228Y016811D01*
X030059Y016741D01*
X029929Y016611D01*
X029912Y016570D01*
X029163Y016570D01*
X029105Y016627D01*
X028849Y016627D01*
X028559Y016627D01*
X028303Y016627D01*
X028216Y016540D01*
X028144Y016540D01*
X028054Y016577D01*
X027943Y016577D01*
X027840Y016534D01*
X027762Y016456D01*
X027719Y016353D01*
X027719Y016306D01*
X025196Y016306D01*
X025124Y016336D01*
X025028Y016336D01*
X024940Y016299D01*
X024872Y016232D01*
X024836Y016143D01*
X024836Y014320D01*
X022608Y014320D01*
X022604Y014322D01*
X022595Y014322D01*
X022595Y014364D01*
X022775Y014364D01*
X022869Y014458D01*
X022869Y015220D01*
X022775Y015314D01*
X021934Y015314D01*
X021840Y015220D01*
X021840Y014458D01*
X021934Y014364D01*
X022115Y014364D01*
X022115Y014322D01*
X021593Y014322D01*
X021593Y015022D01*
X021500Y015116D01*
X020777Y015116D01*
X020683Y015022D01*
X020683Y014925D01*
X020680Y014925D01*
X020680Y015666D01*
X020699Y015632D01*
X020732Y015599D01*
X020773Y015575D01*
X020819Y015563D01*
X021070Y015563D01*
X021070Y015970D01*
X021206Y015970D01*
X021206Y015563D01*
X021457Y015563D01*
X021503Y015575D01*
X021544Y015599D01*
X021577Y015632D01*
X021601Y015674D01*
X021613Y015719D01*
X021613Y015971D01*
X021206Y015971D01*
X021206Y016106D01*
X021613Y016106D01*
X021613Y016357D01*
X021601Y016403D01*
X021577Y016444D01*
X021544Y016478D01*
X021503Y016501D01*
X021457Y016514D01*
X021206Y016514D01*
X021206Y016106D01*
X021070Y016106D01*
X021070Y015971D01*
X020663Y015971D01*
X020663Y015942D01*
X020643Y015990D01*
X020576Y016057D01*
X020487Y016094D01*
X020392Y016094D01*
X020274Y016094D01*
X020274Y016235D01*
X020181Y016329D01*
X019338Y016329D01*
X019248Y016239D01*
X019235Y016261D01*
X019201Y016295D01*
X019160Y016319D01*
X019115Y016331D01*
X018814Y016331D01*
X018814Y015914D01*
X018659Y015914D01*
X018659Y016331D01*
X018359Y016331D01*
X018313Y016319D01*
X018272Y016295D01*
X018238Y016261D01*
X018215Y016220D01*
X018202Y016175D01*
X018202Y015913D01*
X018659Y015913D01*
X018659Y015758D01*
X018814Y015758D01*
X018814Y015341D01*
X019115Y015341D01*
X019160Y015353D01*
X019201Y015377D01*
X020200Y015377D01*
X020181Y015379D02*
X020200Y015398D01*
X020200Y015190D01*
X020181Y015209D01*
X019338Y015209D01*
X019247Y015118D01*
X019157Y015208D01*
X018316Y015208D01*
X018222Y015115D01*
X018222Y014352D01*
X018255Y014320D01*
X015856Y014320D01*
X013725Y014320D01*
X013725Y014812D01*
X013905Y014812D01*
X013999Y014906D01*
X013999Y015668D01*
X013905Y015762D01*
X013062Y015762D01*
X012969Y015668D01*
X012969Y014906D01*
X013062Y014812D01*
X013245Y014812D01*
X013245Y014320D01*
X012791Y014320D01*
X012791Y014485D01*
X012697Y014579D01*
X011620Y014579D01*
X011547Y014506D01*
X011547Y014539D01*
X011508Y014634D01*
X011508Y014939D01*
X011518Y014900D01*
X011542Y014859D01*
X011576Y014826D01*
X011617Y014802D01*
X011662Y014790D01*
X012081Y014790D01*
X012081Y015207D01*
X012236Y015207D01*
X012236Y014790D01*
X012655Y014790D01*
X012700Y014802D01*
X012742Y014826D01*
X012775Y014859D01*
X012799Y014900D01*
X012811Y014946D01*
X012811Y015207D01*
X012236Y015207D01*
X012236Y015362D01*
X012811Y015362D01*
X012811Y015623D01*
X012799Y015669D01*
X012775Y015710D01*
X012742Y015744D01*
X012700Y015767D01*
X012655Y015780D01*
X012236Y015780D01*
X012236Y015362D01*
X012081Y015362D01*
X012081Y015780D01*
X011662Y015780D01*
X011617Y015767D01*
X011576Y015744D01*
X011542Y015710D01*
X011518Y015669D01*
X011506Y015623D01*
X011506Y015543D01*
X011471Y015627D01*
X011404Y015694D01*
X011316Y015731D01*
X011220Y015731D01*
X006080Y015731D01*
X005992Y015694D01*
X005924Y015627D01*
X005888Y015539D01*
X005888Y015443D01*
X005888Y013122D01*
X005849Y013027D01*
X005849Y012916D01*
X005891Y012813D01*
X005970Y012734D01*
X006072Y012692D01*
X006183Y012692D01*
X006286Y012734D01*
X006329Y012778D01*
X006373Y012734D01*
X006475Y012692D01*
X006587Y012692D01*
X006689Y012734D01*
X006768Y012813D01*
X006810Y012916D01*
X006810Y013027D01*
X006771Y013122D01*
X006771Y014949D01*
X010625Y014949D01*
X010625Y014634D01*
X010586Y014539D01*
X010586Y014428D01*
X010620Y014344D01*
X010231Y014344D01*
X010231Y014631D01*
X010137Y014725D01*
X009375Y014725D01*
X009281Y014631D01*
X009281Y013790D01*
X009375Y013696D01*
X009422Y013696D01*
X009396Y013671D01*
X009396Y013105D01*
X009489Y013011D01*
X009690Y013011D01*
X009690Y012859D01*
X009489Y012859D01*
X009396Y012765D01*
X009396Y012199D01*
X009415Y012180D01*
X009415Y012114D01*
X009376Y012019D01*
X009376Y011908D01*
X009419Y011805D01*
X009497Y011727D01*
X009600Y011684D01*
X009711Y011684D01*
X009814Y011727D01*
X009892Y011805D01*
X009935Y011908D01*
X009935Y012019D01*
X009899Y012106D01*
X010370Y012106D01*
X010464Y012199D01*
X010464Y012765D01*
X010370Y012859D01*
X010170Y012859D01*
X010170Y013011D01*
X010370Y013011D01*
X010464Y013105D01*
X010464Y013671D01*
X010370Y013764D01*
X010205Y013764D01*
X010231Y013790D01*
X010231Y013864D01*
X011526Y013864D01*
X011526Y013734D01*
X011453Y013734D01*
X011426Y013761D01*
X011324Y013803D01*
X011212Y013803D01*
X011110Y013761D01*
X011093Y013743D01*
X011023Y013813D01*
X010920Y013855D01*
X010809Y013855D01*
X010707Y013813D01*
X010628Y013734D01*
X010586Y013632D01*
X010586Y013520D01*
X010628Y013418D01*
X010655Y013391D01*
X010655Y013187D01*
X010778Y013064D01*
X010952Y013064D01*
X014891Y013064D01*
X014851Y013023D01*
X014851Y012879D01*
X013298Y012879D01*
X013175Y012756D01*
X013175Y012582D01*
X013175Y011840D01*
X013127Y011840D01*
X013025Y011797D01*
X012975Y011748D01*
X010787Y011748D01*
X010759Y011776D01*
X009996Y011776D01*
X009902Y011683D01*
X009902Y011427D01*
X009902Y011271D01*
X009291Y011271D01*
X009291Y012530D01*
X009254Y012618D01*
X009187Y012686D01*
X009098Y012722D01*
X009007Y012722D01*
X009007Y012765D01*
X008913Y012859D01*
X008033Y012859D01*
X007939Y012765D01*
X007939Y012199D01*
X008033Y012106D01*
X008811Y012106D01*
X008811Y011079D01*
X008811Y010984D01*
X008847Y010895D01*
X008915Y010828D01*
X009003Y010791D01*
X009882Y010791D01*
X009882Y010770D01*
X009882Y010742D01*
X009806Y010742D01*
X009711Y010781D01*
X009600Y010781D01*
X009497Y010738D01*
X009419Y010660D01*
X009376Y010557D01*
X009376Y010446D01*
X009419Y010343D01*
X009497Y010265D01*
X009600Y010222D01*
X009711Y010222D01*
X009806Y010262D01*
X009902Y010262D01*
X009902Y010113D01*
X009902Y009857D01*
X009902Y009601D01*
X009996Y009508D01*
X010326Y009508D01*
X010330Y009506D01*
X010425Y009506D01*
X010484Y009506D01*
X010445Y009467D01*
X010409Y009482D01*
X010313Y009482D01*
X009089Y009482D01*
X009089Y010562D01*
X009053Y010650D01*
X008985Y010718D01*
X008897Y010754D01*
X008801Y010754D01*
X008713Y010718D01*
X008646Y010650D01*
X008609Y010562D01*
X008609Y010236D01*
X008594Y010242D01*
X008529Y010242D01*
X008529Y010353D01*
X008537Y010366D01*
X008549Y010412D01*
X008549Y010514D01*
X008403Y010514D01*
X008404Y010514D01*
X008549Y010514D01*
X008549Y010617D01*
X008543Y010642D01*
X008549Y010668D01*
X008549Y010770D01*
X008549Y010872D01*
X008543Y010898D01*
X008549Y010923D01*
X008549Y011026D01*
X008549Y011128D01*
X008543Y011154D01*
X008549Y011179D01*
X008549Y011282D01*
X008549Y011384D01*
X008537Y011430D01*
X008529Y011443D01*
X008529Y011683D01*
X008436Y011776D01*
X007718Y011776D01*
X007697Y011797D01*
X007594Y011840D01*
X007483Y011840D01*
X007381Y011797D01*
X007302Y011719D01*
X007260Y011616D01*
X007260Y011505D01*
X007302Y011402D01*
X007381Y011323D01*
X007483Y011281D01*
X007560Y011281D01*
X007560Y011179D01*
X007566Y011154D01*
X007560Y011128D01*
X007560Y011026D01*
X007705Y011026D01*
X007705Y011026D01*
X007705Y011026D01*
X007560Y011026D01*
X007560Y010923D01*
X007566Y010898D01*
X007560Y010872D01*
X007560Y010770D01*
X007560Y010668D01*
X007566Y010642D01*
X007560Y010617D01*
X007560Y010514D01*
X007560Y010504D01*
X007042Y010504D01*
X007042Y010645D01*
X006949Y010739D01*
X006106Y010739D01*
X006012Y010645D01*
X006012Y010490D01*
X005763Y010490D01*
X005763Y016499D01*
X005727Y016588D01*
X005659Y016655D01*
X005571Y016692D01*
X005475Y016692D01*
X003198Y016692D01*
X003189Y016712D01*
X003060Y016842D01*
X002891Y016912D01*
X002108Y016912D01*
X001939Y016842D01*
X001810Y016712D01*
X001740Y016543D01*
X001740Y016360D01*
X001810Y016191D01*
X001939Y016062D01*
X002108Y015992D01*
X002891Y015992D01*
X003060Y016062D01*
X003189Y016191D01*
X003198Y016212D01*
X005283Y016212D01*
X005283Y010202D01*
X005283Y005056D01*
X005225Y005056D01*
X005215Y005066D01*
X005268Y005120D01*
X005268Y005512D01*
X005175Y005606D01*
X004948Y005606D01*
X004948Y006499D01*
X004912Y006588D01*
X004844Y006655D01*
X004756Y006692D01*
X004661Y006692D01*
X003198Y006692D01*
X003189Y006712D01*
X003060Y006842D01*
X002891Y006912D01*
X002108Y006912D01*
X001939Y006842D01*
X001810Y006712D01*
X001740Y006543D01*
X001740Y006360D01*
X001810Y006191D01*
X001939Y006062D01*
X002108Y005992D01*
X002891Y005992D01*
X003060Y006062D01*
X003189Y006191D01*
X003198Y006212D01*
X004468Y006212D01*
X004468Y005606D01*
X004242Y005606D01*
X004148Y005512D01*
X004148Y005120D01*
X004202Y005066D01*
X004148Y005012D01*
X004148Y004620D01*
X004188Y004580D01*
X004164Y004557D01*
X004141Y004515D01*
X004128Y004470D01*
X004128Y004316D01*
X004128Y004162D01*
X004141Y004117D01*
X004164Y004075D01*
X004174Y004066D01*
X004164Y004057D01*
X004141Y004015D01*
X004128Y003970D01*
X004128Y003816D01*
X004128Y003662D01*
X004141Y003617D01*
X004164Y003575D01*
X004198Y003542D01*
X004239Y003518D01*
X004285Y003506D01*
X004708Y003506D01*
X004708Y003816D01*
X004128Y003816D01*
X004708Y003816D01*
X004708Y003816D01*
X004709Y003816D01*
X005288Y003816D01*
X005288Y003970D01*
X005276Y004015D01*
X005252Y004057D01*
X005243Y004066D01*
X005252Y004075D01*
X005276Y004117D01*
X005288Y004162D01*
X005288Y004316D01*
X005288Y004470D01*
X005276Y004515D01*
X005252Y004557D01*
X005233Y004576D01*
X005475Y004576D01*
X005571Y004576D01*
X005659Y004613D01*
X005727Y004680D01*
X005763Y004768D01*
X005763Y010010D01*
X006012Y010010D01*
X006012Y009883D01*
X006106Y009789D01*
X006896Y009789D01*
X006896Y009582D01*
X006095Y009582D01*
X006002Y009489D01*
X006002Y008726D01*
X006095Y008632D01*
X006937Y008632D01*
X007030Y008726D01*
X007030Y008901D01*
X007183Y008901D01*
X007198Y008908D01*
X007198Y008273D01*
X007030Y008273D01*
X007030Y008386D01*
X006937Y008480D01*
X006095Y008480D01*
X006002Y008386D01*
X006002Y007624D01*
X006095Y007530D01*
X006937Y007530D01*
X007030Y007624D01*
X007030Y007793D01*
X007486Y007793D01*
X007574Y007829D01*
X007642Y007897D01*
X007678Y007985D01*
X007678Y008080D01*
X007678Y009506D01*
X008102Y009506D01*
X008105Y009508D01*
X008126Y009508D01*
X008098Y009479D01*
X008061Y009391D01*
X008061Y009163D01*
X007861Y009163D01*
X007767Y009069D01*
X007767Y007598D01*
X007861Y007504D01*
X008741Y007504D01*
X008835Y007598D01*
X008835Y009002D01*
X009303Y009002D01*
X009303Y008575D01*
X009302Y008575D01*
X009207Y008614D01*
X009096Y008614D01*
X008993Y008572D01*
X008915Y008493D01*
X008872Y008391D01*
X008872Y008280D01*
X008915Y008177D01*
X008993Y008098D01*
X009096Y008056D01*
X009207Y008056D01*
X009302Y008095D01*
X009303Y008095D01*
X009303Y007598D01*
X009396Y007504D01*
X010277Y007504D01*
X010371Y007598D01*
X010371Y007692D01*
X010433Y007692D01*
X010433Y007573D01*
X010527Y007480D01*
X011370Y007480D01*
X011463Y007573D01*
X011463Y007709D01*
X011525Y007709D01*
X011525Y007568D01*
X011618Y007474D01*
X012460Y007474D01*
X012553Y007568D01*
X012553Y008331D01*
X012460Y008424D01*
X011618Y008424D01*
X011525Y008331D01*
X011525Y008189D01*
X011463Y008189D01*
X011463Y008336D01*
X011370Y008429D01*
X010601Y008429D01*
X010601Y008599D01*
X011370Y008599D01*
X011463Y008693D01*
X011463Y009455D01*
X011370Y009549D01*
X011306Y009549D01*
X011306Y009698D01*
X011306Y009762D01*
X011799Y009762D01*
X011799Y009527D01*
X011618Y009527D01*
X011525Y009433D01*
X011525Y008670D01*
X011618Y008577D01*
X012460Y008577D01*
X012553Y008670D01*
X012553Y009433D01*
X012460Y009527D01*
X012279Y009527D01*
X012279Y010050D01*
X012242Y010138D01*
X012175Y010206D01*
X012087Y010242D01*
X011991Y010242D01*
X010852Y010242D01*
X010852Y010369D01*
X010852Y010608D01*
X010860Y010622D01*
X010872Y010668D01*
X010872Y010770D01*
X010872Y010872D01*
X010860Y010918D01*
X010852Y010932D01*
X010852Y011072D01*
X012771Y011072D01*
X012771Y007336D01*
X007855Y007336D01*
X007732Y007213D01*
X007732Y007039D01*
X007732Y005026D01*
X007675Y005026D01*
X007635Y005066D01*
X007688Y005120D01*
X007688Y005512D01*
X007595Y005606D01*
X006662Y005606D01*
X006582Y005526D01*
X006416Y005526D01*
X006242Y005526D01*
X006119Y005403D01*
X006119Y003584D01*
X006119Y003407D01*
X005895Y003407D01*
X005801Y003313D01*
X005801Y002472D01*
X005895Y002378D01*
X006657Y002378D01*
X006751Y002472D01*
X006751Y003287D01*
X008863Y003287D01*
X009037Y003287D01*
X009160Y003410D01*
X009160Y004018D01*
X009187Y004045D01*
X009229Y004147D01*
X009229Y004258D01*
X009187Y004361D01*
X009119Y004429D01*
X009179Y004429D01*
X009179Y005004D01*
X008762Y005004D01*
X008762Y004585D01*
X008774Y004540D01*
X008798Y004499D01*
X008831Y004465D01*
X008841Y004460D01*
X008792Y004440D01*
X008757Y004405D01*
X008757Y006513D01*
X013298Y006513D01*
X013472Y006513D01*
X013511Y006552D01*
X013531Y006544D01*
X013578Y006544D01*
X013578Y006443D01*
X013169Y006443D01*
X013075Y006349D01*
X013075Y005824D01*
X012686Y005824D01*
X012686Y006349D01*
X012593Y006443D01*
X011712Y006443D01*
X011618Y006349D01*
X011618Y006257D01*
X011419Y006257D01*
X011324Y006296D01*
X011212Y006296D01*
X011110Y006254D01*
X011031Y006175D01*
X010989Y006073D01*
X010989Y005961D01*
X011028Y005866D01*
X011028Y005324D01*
X010913Y005323D01*
X010913Y005620D01*
X010819Y005714D01*
X010057Y005714D01*
X009963Y005620D01*
X009963Y004543D01*
X010057Y004449D01*
X010819Y004449D01*
X010913Y004543D01*
X010913Y004842D01*
X011029Y004842D01*
X011028Y004452D01*
X011028Y004397D01*
X011028Y004357D01*
X011028Y002782D01*
X011065Y002694D01*
X011132Y002627D01*
X011220Y002590D01*
X011316Y002590D01*
X011592Y002590D01*
X011592Y002508D01*
X011685Y002414D01*
X012324Y002414D01*
X012324Y002351D01*
X012287Y002361D01*
X012056Y002361D01*
X012056Y001973D01*
X011960Y001973D01*
X011960Y002361D01*
X011728Y002361D01*
X011682Y002348D01*
X011641Y002325D01*
X011608Y002291D01*
X011584Y002250D01*
X011572Y002204D01*
X011572Y001973D01*
X011959Y001973D01*
X011959Y001877D01*
X011572Y001877D01*
X011572Y001645D01*
X011584Y001599D01*
X011608Y001558D01*
X011641Y001525D01*
X011682Y001501D01*
X011728Y001489D01*
X011960Y001489D01*
X011960Y001876D01*
X012056Y001876D01*
X012056Y001489D01*
X012287Y001489D01*
X012333Y001501D01*
X012374Y001525D01*
X012408Y001558D01*
X012431Y001599D01*
X012444Y001645D01*
X012444Y001877D01*
X012056Y001877D01*
X012056Y001973D01*
X012444Y001973D01*
X012444Y002060D01*
X012481Y002050D01*
X012899Y002050D01*
X012899Y002467D01*
X013054Y002467D01*
X013054Y002050D01*
X013473Y002050D01*
X013519Y002062D01*
X013560Y002086D01*
X013593Y002119D01*
X013617Y002160D01*
X013629Y002206D01*
X013629Y002467D01*
X013054Y002467D01*
X013054Y002622D01*
X012899Y002622D01*
X012899Y003039D01*
X012481Y003039D01*
X012435Y003027D01*
X012424Y003021D01*
X012424Y003152D01*
X012330Y003246D01*
X011685Y003246D01*
X011592Y003152D01*
X011592Y003070D01*
X011508Y003070D01*
X011508Y004396D01*
X011509Y005037D01*
X011510Y005038D01*
X011509Y005088D01*
X011509Y005132D01*
X011509Y005133D01*
X011509Y005134D01*
X011508Y005136D01*
X011508Y005777D01*
X011625Y005777D01*
X011712Y005690D01*
X011912Y005690D01*
X011912Y005538D01*
X011712Y005538D01*
X011618Y005444D01*
X011618Y004878D01*
X011712Y004785D01*
X012593Y004785D01*
X012686Y004878D01*
X012686Y005404D01*
X013056Y005404D01*
X013055Y005401D01*
X013055Y005189D01*
X013580Y005189D01*
X013580Y005133D01*
X013055Y005133D01*
X013055Y004921D01*
X013067Y004875D01*
X013091Y004834D01*
X013124Y004801D01*
X013165Y004777D01*
X013211Y004765D01*
X013581Y004765D01*
X013581Y005133D01*
X013637Y005133D01*
X013637Y004765D01*
X013980Y004765D01*
X013995Y004738D01*
X014028Y004704D01*
X014069Y004681D01*
X014115Y004669D01*
X014416Y004669D01*
X014416Y005086D01*
X014571Y005086D01*
X014571Y004669D01*
X014871Y004669D01*
X014888Y004673D01*
X014888Y004644D01*
X012934Y004644D01*
X012845Y004608D01*
X012778Y004540D01*
X012741Y004452D01*
X012741Y004357D01*
X012741Y004201D01*
X012438Y004201D01*
X012359Y004122D01*
X012330Y004152D01*
X012253Y004152D01*
X012253Y004258D01*
X012210Y004361D01*
X012132Y004440D01*
X012029Y004482D01*
X011918Y004482D01*
X011815Y004440D01*
X011737Y004361D01*
X011694Y004258D01*
X011694Y004152D01*
X011685Y004152D01*
X011592Y004058D01*
X011592Y003413D01*
X011685Y003320D01*
X012330Y003320D01*
X012349Y003339D01*
X012438Y003251D01*
X013515Y003251D01*
X013609Y003344D01*
X013609Y004107D01*
X013552Y004164D01*
X015050Y004164D01*
X015104Y004164D01*
X015104Y004093D01*
X015085Y004075D01*
X015085Y003033D01*
X015094Y003025D01*
X014973Y003025D01*
X014795Y002951D01*
X014795Y003871D01*
X014701Y003964D01*
X013781Y003964D01*
X013688Y003871D01*
X013688Y002793D01*
X013781Y002700D01*
X014521Y002700D01*
X014431Y002482D01*
X014431Y002213D01*
X014534Y001964D01*
X014699Y001799D01*
X013781Y001799D01*
X013688Y001705D01*
X013688Y001155D01*
X001065Y001155D01*
X001065Y017669D01*
X031613Y017669D01*
X031613Y001155D01*
X030685Y001155D01*
X030687Y001173D01*
X030687Y003694D01*
X030684Y003714D01*
X030679Y003735D01*
X030671Y003754D01*
X030660Y003772D01*
X030648Y003789D01*
X030633Y003804D01*
X030616Y003816D01*
X030598Y003827D01*
X030579Y003835D01*
X030558Y003840D01*
X030537Y003843D01*
X020232Y003843D01*
X020211Y003840D01*
X020190Y003835D01*
X020171Y003827D01*
X020153Y003816D01*
X020136Y003804D01*
X020121Y003789D01*
X020109Y003772D01*
X020098Y003754D01*
X020090Y003735D01*
X020085Y003714D01*
X020082Y003694D01*
X020082Y001173D01*
X020084Y001155D01*
X018259Y001155D01*
X018259Y001705D01*
X018166Y001799D01*
X017248Y001799D01*
X017413Y001964D01*
X017516Y002213D01*
X017516Y002482D01*
X017426Y002700D01*
X018166Y002700D01*
X018259Y002793D01*
X018259Y003871D01*
X018166Y003964D01*
X017246Y003964D01*
X017152Y003871D01*
X017152Y002951D01*
X016974Y003025D01*
X016866Y003025D01*
X016870Y003030D01*
X016882Y003076D01*
X016882Y003554D01*
X016882Y004032D01*
X016870Y004078D01*
X016846Y004119D01*
X016812Y004152D01*
X016771Y004176D01*
X016726Y004188D01*
X016604Y004188D01*
X016604Y003554D01*
X016882Y003554D01*
X016604Y003554D01*
X016604Y003554D01*
X016603Y003554D01*
X016603Y003554D01*
X016325Y003554D01*
X016289Y003554D01*
X016289Y003554D01*
X016567Y003554D01*
X016603Y003554D01*
X016603Y004188D01*
X016481Y004188D01*
X016446Y004179D01*
X016411Y004188D01*
X016289Y004188D01*
X016289Y003554D01*
X016288Y003554D01*
X016288Y004188D01*
X016211Y004188D01*
X016211Y004646D01*
X016696Y004646D01*
X016791Y004646D01*
X016879Y004683D01*
X016947Y004750D01*
X016983Y004838D01*
X016983Y005292D01*
X017165Y005292D01*
X017258Y005386D01*
X017258Y005527D01*
X017282Y005527D01*
X017282Y005384D01*
X017376Y005290D01*
X018218Y005290D01*
X018312Y005384D01*
X018312Y005731D01*
X018337Y005706D01*
X018511Y005706D01*
X022346Y005706D01*
X022346Y005520D01*
X022292Y005497D01*
X022162Y005368D01*
X022092Y005199D01*
X022092Y004416D01*
X022162Y004247D01*
X022292Y004118D01*
X022461Y004048D01*
X022644Y004048D01*
X022813Y004118D01*
X022942Y004247D01*
X023012Y004416D01*
X023012Y005199D01*
X022942Y005368D01*
X022813Y005497D01*
X022766Y005517D01*
X022766Y005829D01*
X022766Y006003D01*
X022643Y006126D01*
X018634Y006126D01*
X018634Y006316D01*
X018740Y006210D01*
X018914Y006210D01*
X023354Y006210D01*
X023354Y005523D01*
X023292Y005497D01*
X023162Y005368D01*
X023092Y005199D01*
X023092Y004416D01*
X023162Y004247D01*
X023292Y004118D01*
X023461Y004048D01*
X023644Y004048D01*
X023813Y004118D01*
X023942Y004247D01*
X024012Y004416D01*
X024012Y005199D01*
X023942Y005368D01*
X023813Y005497D01*
X023774Y005514D01*
X023774Y006333D01*
X023774Y006507D01*
X023651Y006630D01*
X019037Y006630D01*
X019037Y006820D01*
X019042Y006815D01*
X019042Y006815D01*
X019042Y006815D01*
X019135Y006815D01*
X028391Y006803D01*
X028391Y006086D01*
X028485Y005992D01*
X029326Y005992D01*
X029420Y006086D01*
X029420Y006257D01*
X029420Y006181D02*
X029892Y006181D01*
X029997Y006023D02*
X029357Y006023D01*
X029330Y005848D02*
X029284Y005860D01*
X028983Y005860D01*
X028983Y005443D01*
X028828Y005443D01*
X028828Y005860D01*
X028528Y005860D01*
X028482Y005848D01*
X028441Y005824D01*
X028407Y005791D01*
X028384Y005749D01*
X028371Y005704D01*
X028371Y005443D01*
X028828Y005443D01*
X028828Y005287D01*
X028983Y005287D01*
X028983Y004870D01*
X029284Y004870D01*
X029330Y004882D01*
X029371Y004906D01*
X029404Y004940D01*
X029428Y004981D01*
X029440Y005026D01*
X029440Y005287D01*
X028984Y005287D01*
X028984Y005443D01*
X029440Y005443D01*
X029440Y005704D01*
X029428Y005749D01*
X029404Y005791D01*
X029371Y005824D01*
X029330Y005848D01*
X029440Y005706D02*
X029995Y005706D01*
X030006Y005717D02*
X029953Y005664D01*
X029909Y005602D01*
X029874Y005535D01*
X029851Y005463D01*
X029839Y005389D01*
X029839Y005371D01*
X030599Y005371D01*
X030599Y005331D01*
X029839Y005331D01*
X029839Y005313D01*
X029851Y005238D01*
X029874Y005167D01*
X029909Y005099D01*
X029953Y005038D01*
X030006Y004985D01*
X030068Y004940D01*
X030135Y004906D01*
X030207Y004883D01*
X030281Y004871D01*
X030599Y004871D01*
X030599Y005331D01*
X030639Y005331D01*
X030639Y004871D01*
X030957Y004871D01*
X031032Y004883D01*
X031103Y004906D01*
X031171Y004940D01*
X031232Y004985D01*
X031285Y005038D01*
X031330Y005099D01*
X031364Y005167D01*
X031387Y005238D01*
X031399Y005313D01*
X031399Y005331D01*
X030639Y005331D01*
X030639Y005371D01*
X030599Y005371D01*
X030599Y005831D01*
X030281Y005831D01*
X030207Y005819D01*
X030135Y005796D01*
X030068Y005761D01*
X030006Y005717D01*
X029880Y005547D02*
X029440Y005547D01*
X029839Y005389D02*
X028984Y005389D01*
X028828Y005389D02*
X024922Y005389D01*
X024942Y005368D02*
X024813Y005497D01*
X024644Y005568D01*
X024461Y005568D01*
X024292Y005497D01*
X024162Y005368D01*
X024092Y005199D01*
X024092Y004416D01*
X024162Y004247D01*
X024292Y004118D01*
X024461Y004048D01*
X024644Y004048D01*
X024813Y004118D01*
X024942Y004247D01*
X025012Y004416D01*
X025012Y005199D01*
X024942Y005368D01*
X024999Y005230D02*
X028371Y005230D01*
X028371Y005287D02*
X028371Y005026D01*
X028384Y004981D01*
X028407Y004940D01*
X028441Y004906D01*
X028482Y004882D01*
X028528Y004870D01*
X028828Y004870D01*
X028828Y005287D01*
X028371Y005287D01*
X028371Y005071D02*
X025012Y005071D01*
X025012Y004913D02*
X028434Y004913D01*
X028828Y004913D02*
X028983Y004913D01*
X028983Y005071D02*
X028828Y005071D01*
X028828Y005230D02*
X028983Y005230D01*
X028983Y005547D02*
X028828Y005547D01*
X028828Y005706D02*
X028983Y005706D01*
X028372Y005706D02*
X023774Y005706D01*
X023774Y005864D02*
X031613Y005864D01*
X031613Y005706D02*
X031243Y005706D01*
X031232Y005717D02*
X031171Y005761D01*
X031103Y005796D01*
X031032Y005819D01*
X030957Y005831D01*
X030639Y005831D01*
X030639Y005371D01*
X031399Y005371D01*
X031399Y005389D01*
X031387Y005463D01*
X031364Y005535D01*
X031330Y005602D01*
X031285Y005664D01*
X031232Y005717D01*
X031358Y005547D02*
X031613Y005547D01*
X031613Y005389D02*
X031399Y005389D01*
X031385Y005230D02*
X031613Y005230D01*
X031613Y005071D02*
X031309Y005071D01*
X031117Y004913D02*
X031613Y004913D01*
X031613Y004754D02*
X031180Y004754D01*
X031171Y004761D02*
X031103Y004796D01*
X031032Y004819D01*
X030957Y004831D01*
X030639Y004831D01*
X030639Y004371D01*
X030599Y004371D01*
X030599Y004331D01*
X029839Y004331D01*
X029839Y004313D01*
X029851Y004238D01*
X029874Y004167D01*
X029909Y004099D01*
X029953Y004038D01*
X030006Y003985D01*
X030068Y003940D01*
X030135Y003906D01*
X030207Y003883D01*
X030281Y003871D01*
X030599Y003871D01*
X030599Y004331D01*
X030639Y004331D01*
X030639Y003871D01*
X030957Y003871D01*
X031032Y003883D01*
X031103Y003906D01*
X031171Y003940D01*
X031232Y003985D01*
X031285Y004038D01*
X031330Y004099D01*
X031364Y004167D01*
X031387Y004238D01*
X031399Y004313D01*
X031399Y004331D01*
X030639Y004331D01*
X030639Y004371D01*
X031399Y004371D01*
X031399Y004389D01*
X031387Y004463D01*
X031364Y004535D01*
X031330Y004602D01*
X031285Y004664D01*
X031232Y004717D01*
X031171Y004761D01*
X031333Y004596D02*
X031613Y004596D01*
X031613Y004437D02*
X031391Y004437D01*
X031394Y004279D02*
X031613Y004279D01*
X031613Y004120D02*
X031340Y004120D01*
X031200Y003962D02*
X031613Y003962D01*
X031613Y003803D02*
X030633Y003803D01*
X030639Y003962D02*
X030599Y003962D01*
X030599Y004120D02*
X030639Y004120D01*
X030639Y004279D02*
X030599Y004279D01*
X030599Y004371D02*
X029839Y004371D01*
X029839Y004389D01*
X029851Y004463D01*
X029874Y004535D01*
X029909Y004602D01*
X029953Y004664D01*
X030006Y004717D01*
X030068Y004761D01*
X030135Y004796D01*
X030207Y004819D01*
X030281Y004831D01*
X030599Y004831D01*
X030599Y004371D01*
X030599Y004437D02*
X030639Y004437D01*
X030639Y004596D02*
X030599Y004596D01*
X030599Y004754D02*
X030639Y004754D01*
X030639Y004913D02*
X030599Y004913D01*
X030599Y005071D02*
X030639Y005071D01*
X030639Y005230D02*
X030599Y005230D01*
X030599Y005389D02*
X030639Y005389D01*
X030639Y005547D02*
X030599Y005547D01*
X030599Y005706D02*
X030639Y005706D01*
X031242Y006023D02*
X031613Y006023D01*
X031613Y006181D02*
X031347Y006181D01*
X031379Y006340D02*
X031613Y006340D01*
X031613Y006498D02*
X031356Y006498D01*
X031264Y006657D02*
X031613Y006657D01*
X031613Y006815D02*
X030829Y006815D01*
X031193Y006974D02*
X031613Y006974D01*
X031613Y007133D02*
X031327Y007133D01*
X031379Y007291D02*
X031613Y007291D01*
X031613Y007450D02*
X031376Y007450D01*
X031311Y007608D02*
X031613Y007608D01*
X031613Y007767D02*
X031117Y007767D01*
X031094Y007925D02*
X031613Y007925D01*
X031613Y008084D02*
X031303Y008084D01*
X031309Y008090D02*
X031379Y008259D01*
X031379Y008442D01*
X031309Y008611D01*
X031180Y008741D01*
X031011Y008811D01*
X030228Y008811D01*
X030059Y008741D01*
X029929Y008611D01*
X029859Y008442D01*
X029859Y008259D01*
X029929Y008090D01*
X030059Y007961D01*
X030228Y007891D01*
X031011Y007891D01*
X031180Y007961D01*
X031309Y008090D01*
X031372Y008242D02*
X031613Y008242D01*
X031613Y008401D02*
X031379Y008401D01*
X031331Y008559D02*
X031613Y008559D01*
X031613Y008718D02*
X031203Y008718D01*
X031180Y008961D02*
X031011Y008891D01*
X030228Y008891D01*
X030059Y008961D01*
X029929Y009090D01*
X029859Y009259D01*
X029859Y009442D01*
X029929Y009611D01*
X030059Y009741D01*
X030228Y009811D01*
X031011Y009811D01*
X031180Y009741D01*
X031309Y009611D01*
X031379Y009442D01*
X031379Y009259D01*
X031309Y009090D01*
X031180Y008961D01*
X031254Y009035D02*
X031613Y009035D01*
X031613Y008876D02*
X029821Y008876D01*
X029821Y008718D02*
X030036Y008718D01*
X029908Y008559D02*
X029821Y008559D01*
X029821Y008401D02*
X029859Y008401D01*
X029866Y008242D02*
X029821Y008242D01*
X029821Y008084D02*
X029936Y008084D01*
X029821Y007925D02*
X030145Y007925D01*
X030121Y007767D02*
X029821Y007767D01*
X029821Y007608D02*
X029928Y007608D01*
X028747Y007608D02*
X022743Y007608D01*
X022778Y007767D02*
X028747Y007767D01*
X028747Y007925D02*
X022778Y007925D01*
X022278Y009035D02*
X022108Y009035D01*
X022114Y009038D02*
X022147Y009072D01*
X022171Y009113D01*
X022183Y009159D01*
X022183Y009420D01*
X021727Y009420D01*
X021727Y009575D01*
X022183Y009575D01*
X022183Y009836D01*
X022171Y009882D01*
X022147Y009923D01*
X022114Y009956D01*
X022073Y009980D01*
X022027Y009992D01*
X021727Y009992D01*
X021727Y009575D01*
X021572Y009575D01*
X021572Y009992D01*
X021271Y009992D01*
X021225Y009980D01*
X021184Y009956D01*
X021152Y009924D01*
X021143Y009939D01*
X021109Y009973D01*
X021068Y009996D01*
X021022Y010009D01*
X020604Y010009D01*
X020604Y009592D01*
X020449Y009592D01*
X020449Y010009D01*
X020030Y010009D01*
X019984Y009996D01*
X019943Y009973D01*
X019910Y009939D01*
X019886Y009898D01*
X019874Y009853D01*
X019874Y009591D01*
X020449Y009591D01*
X020449Y009436D01*
X020604Y009436D01*
X020604Y009019D01*
X021022Y009019D01*
X021068Y009031D01*
X021109Y009055D01*
X021142Y009087D01*
X021151Y009072D01*
X021184Y009038D01*
X021225Y009015D01*
X021271Y009002D01*
X021572Y009002D01*
X021572Y009420D01*
X021727Y009420D01*
X021727Y009002D01*
X022027Y009002D01*
X022073Y009015D01*
X022114Y009038D01*
X022183Y009194D02*
X022278Y009194D01*
X022278Y009352D02*
X022183Y009352D01*
X022183Y009669D02*
X022858Y009669D01*
X022858Y009511D02*
X021727Y009511D01*
X021571Y009511D02*
X020604Y009511D01*
X020604Y009436D02*
X020604Y009591D01*
X021115Y009591D01*
X021115Y009575D01*
X021571Y009575D01*
X021571Y009420D01*
X021179Y009420D01*
X021179Y009436D01*
X020604Y009436D01*
X020604Y009352D02*
X020449Y009352D01*
X020449Y009436D02*
X020449Y009019D01*
X020030Y009019D01*
X019984Y009031D01*
X019943Y009055D01*
X019910Y009088D01*
X019886Y009129D01*
X019874Y009175D01*
X019874Y009436D01*
X020449Y009436D01*
X020449Y009511D02*
X019541Y009511D01*
X019541Y009669D02*
X019874Y009669D01*
X019874Y009828D02*
X019541Y009828D01*
X019541Y009986D02*
X019967Y009986D01*
X019541Y010145D02*
X021208Y010145D01*
X021249Y009986D02*
X021086Y009986D01*
X021572Y009986D02*
X021727Y009986D01*
X021727Y009828D02*
X021572Y009828D01*
X021572Y009669D02*
X021727Y009669D01*
X021727Y009352D02*
X021572Y009352D01*
X021572Y009194D02*
X021727Y009194D01*
X021727Y009035D02*
X021572Y009035D01*
X021190Y009035D02*
X021075Y009035D01*
X020604Y009035D02*
X020449Y009035D01*
X020449Y009194D02*
X020604Y009194D01*
X020604Y009669D02*
X020449Y009669D01*
X020449Y009828D02*
X020604Y009828D01*
X020604Y009986D02*
X020449Y009986D01*
X019904Y010303D02*
X019541Y010303D01*
X019541Y010462D02*
X019894Y010462D01*
X019894Y010620D02*
X019541Y010620D01*
X019541Y010779D02*
X019894Y010779D01*
X019894Y010938D02*
X019541Y010938D01*
X019541Y011096D02*
X019914Y011096D01*
X019541Y011255D02*
X022278Y011255D01*
X022278Y011413D02*
X019765Y011413D01*
X019502Y011413D02*
X019479Y011413D01*
X019368Y011572D02*
X018291Y011572D01*
X018571Y011730D02*
X019184Y011730D01*
X019011Y011889D02*
X018602Y011889D01*
X018534Y012047D02*
X018951Y012047D01*
X017609Y012261D02*
X017474Y012261D01*
X017380Y012167D01*
X017380Y011936D01*
X017380Y011890D01*
X017373Y011898D01*
X017270Y011940D01*
X017159Y011940D01*
X017056Y011898D01*
X016978Y011819D01*
X016944Y011739D01*
X016857Y011739D01*
X016754Y011696D01*
X016675Y011618D01*
X016633Y011515D01*
X016633Y011468D01*
X016624Y011468D01*
X016392Y011468D01*
X016365Y011495D01*
X016262Y011537D01*
X016151Y011537D01*
X016081Y011508D01*
X016081Y012207D01*
X016160Y012207D01*
X016306Y012207D01*
X016319Y012199D01*
X016365Y012187D01*
X016438Y012187D01*
X016438Y012288D01*
X016438Y012288D01*
X016438Y012288D01*
X016438Y012187D01*
X016511Y012187D01*
X016557Y012199D01*
X016570Y012207D01*
X016750Y012207D01*
X016947Y012207D01*
X017144Y012207D01*
X017341Y012207D01*
X017435Y012300D01*
X017435Y012459D01*
X017615Y012459D01*
X017609Y012454D01*
X017609Y012280D01*
X017609Y012261D01*
X017609Y012364D02*
X017435Y012364D01*
X017419Y012206D02*
X016569Y012206D01*
X016438Y012206D02*
X016438Y012206D01*
X016307Y012206D02*
X016081Y012206D01*
X016081Y012047D02*
X017380Y012047D01*
X017047Y011889D02*
X016081Y011889D01*
X016081Y011730D02*
X016836Y011730D01*
X016656Y011572D02*
X016081Y011572D01*
X015661Y011572D02*
X014905Y011572D01*
X014905Y011577D02*
X014905Y011773D01*
X014905Y011970D01*
X014905Y012167D01*
X014811Y012261D01*
X014088Y012261D01*
X013995Y012167D01*
X013995Y012152D01*
X013946Y012200D01*
X013843Y012243D01*
X013732Y012243D01*
X013629Y012200D01*
X013595Y012165D01*
X013595Y012459D01*
X014851Y012459D01*
X014851Y012300D01*
X014945Y012207D01*
X015176Y012207D01*
X015372Y012207D01*
X015569Y012207D01*
X015661Y012207D01*
X015661Y010884D01*
X014905Y010884D01*
X014905Y010986D01*
X014905Y011132D01*
X014913Y011146D01*
X014925Y011191D01*
X014925Y011264D01*
X014824Y011264D01*
X014824Y011264D01*
X014824Y011264D01*
X014925Y011264D01*
X014925Y011337D01*
X014913Y011383D01*
X014905Y011396D01*
X014905Y011577D01*
X014905Y011730D02*
X015661Y011730D01*
X015661Y011889D02*
X014905Y011889D01*
X014905Y012047D02*
X015661Y012047D01*
X015661Y012206D02*
X014866Y012206D01*
X014851Y012364D02*
X013595Y012364D01*
X013595Y012206D02*
X013643Y012206D01*
X013932Y012206D02*
X014033Y012206D01*
X013175Y012206D02*
X010464Y012206D01*
X010464Y012364D02*
X013175Y012364D01*
X013175Y012523D02*
X010464Y012523D01*
X010464Y012682D02*
X013175Y012682D01*
X013259Y012840D02*
X010389Y012840D01*
X010170Y012999D02*
X014851Y012999D01*
X016244Y013157D02*
X016425Y013157D01*
X016425Y013316D02*
X016244Y013316D01*
X016244Y013474D02*
X016539Y013474D01*
X015904Y014080D02*
X018726Y014080D01*
X018726Y014734D01*
X018737Y014734D01*
X019759Y014734D01*
X019759Y014734D01*
X020440Y014685D02*
X021138Y014685D01*
X021138Y014660D01*
X021593Y014584D02*
X021840Y014584D01*
X021840Y014743D02*
X021593Y014743D01*
X021593Y014901D02*
X021840Y014901D01*
X021840Y015060D02*
X021556Y015060D01*
X021840Y015218D02*
X020680Y015218D01*
X020680Y015060D02*
X020721Y015060D01*
X020680Y015377D02*
X024836Y015377D01*
X024836Y015535D02*
X022864Y015535D01*
X022853Y015516D02*
X022877Y015557D01*
X022889Y015603D01*
X022889Y015864D01*
X022432Y015864D01*
X022432Y016019D01*
X022277Y016019D01*
X022277Y016436D01*
X021977Y016436D01*
X021931Y016424D01*
X021890Y016400D01*
X021856Y016367D01*
X021833Y016326D01*
X021820Y016280D01*
X021820Y016019D01*
X022277Y016019D01*
X022277Y015864D01*
X021820Y015864D01*
X021820Y015603D01*
X021833Y015557D01*
X021856Y015516D01*
X021890Y015482D01*
X021931Y015459D01*
X021977Y015446D01*
X022277Y015446D01*
X022277Y015864D01*
X022432Y015864D01*
X022432Y015446D01*
X022733Y015446D01*
X022778Y015459D01*
X022819Y015482D01*
X022853Y015516D01*
X022889Y015694D02*
X024836Y015694D01*
X024836Y015852D02*
X022889Y015852D01*
X022889Y016019D02*
X022432Y016019D01*
X022432Y016436D01*
X022733Y016436D01*
X022778Y016424D01*
X022819Y016400D01*
X022853Y016367D01*
X022877Y016326D01*
X022889Y016280D01*
X022889Y016019D01*
X022889Y016169D02*
X024847Y016169D01*
X024836Y016011D02*
X022432Y016011D01*
X022277Y016011D02*
X021206Y016011D01*
X021070Y016011D02*
X020622Y016011D01*
X020663Y016106D02*
X021070Y016106D01*
X021070Y016514D01*
X020819Y016514D01*
X020773Y016501D01*
X020732Y016478D01*
X020699Y016444D01*
X020675Y016403D01*
X020663Y016357D01*
X020663Y016106D01*
X020663Y016169D02*
X020274Y016169D01*
X020181Y016328D02*
X020663Y016328D01*
X020748Y016487D02*
X017772Y016487D01*
X017772Y016355D02*
X017772Y016787D01*
X017678Y016881D01*
X016946Y016881D01*
X016876Y016811D01*
X015748Y016811D01*
X015678Y016881D01*
X014946Y016881D01*
X014904Y016840D01*
X013947Y016840D01*
X013905Y016882D01*
X013062Y016882D01*
X012969Y016788D01*
X012969Y016025D01*
X013062Y015932D01*
X013905Y015932D01*
X013999Y016025D01*
X013999Y016360D01*
X014082Y016360D01*
X014082Y015172D01*
X014055Y015145D01*
X014012Y015043D01*
X014012Y014931D01*
X014055Y014829D01*
X014133Y014750D01*
X014236Y014708D01*
X014347Y014708D01*
X014450Y014750D01*
X014528Y014829D01*
X014571Y014931D01*
X014571Y015043D01*
X014528Y015145D01*
X014502Y015172D01*
X014502Y016360D01*
X014852Y016360D01*
X014852Y016355D01*
X014946Y016261D01*
X015678Y016261D01*
X015748Y016331D01*
X016876Y016331D01*
X016946Y016261D01*
X017678Y016261D01*
X017772Y016355D01*
X017745Y016328D02*
X018348Y016328D01*
X018202Y016169D02*
X014502Y016169D01*
X014502Y016011D02*
X018202Y016011D01*
X018659Y016011D02*
X018814Y016011D01*
X018814Y016169D02*
X018659Y016169D01*
X018659Y016328D02*
X018814Y016328D01*
X019125Y016328D02*
X019337Y016328D01*
X019759Y015854D02*
X020440Y015854D01*
X020440Y014685D01*
X020200Y015218D02*
X017792Y015218D01*
X017792Y015245D02*
X017780Y015291D01*
X017756Y015332D01*
X017723Y015365D01*
X017682Y015389D01*
X017636Y015401D01*
X017312Y015401D01*
X016988Y015401D01*
X016943Y015389D01*
X016902Y015365D01*
X016868Y015332D01*
X016844Y015291D01*
X016832Y015245D01*
X016832Y015071D01*
X016832Y014897D01*
X016844Y014852D01*
X016868Y014811D01*
X016902Y014777D01*
X016943Y014753D01*
X016988Y014741D01*
X017312Y014741D01*
X017312Y015071D01*
X016832Y015071D01*
X017312Y015071D01*
X017312Y015071D01*
X017312Y015071D01*
X017312Y014741D01*
X017636Y014741D01*
X017682Y014753D01*
X017723Y014777D01*
X017756Y014811D01*
X017780Y014852D01*
X017792Y014897D01*
X017792Y015071D01*
X017313Y015071D01*
X017313Y015071D01*
X017792Y015071D01*
X017792Y015245D01*
X017702Y015377D02*
X018272Y015377D01*
X018313Y015353D01*
X018359Y015341D01*
X018659Y015341D01*
X018659Y015758D01*
X018202Y015758D01*
X018202Y015497D01*
X018215Y015451D01*
X018238Y015410D01*
X018272Y015377D01*
X018202Y015535D02*
X014502Y015535D01*
X014502Y015377D02*
X014922Y015377D01*
X014902Y015365D02*
X014868Y015332D01*
X014844Y015291D01*
X014832Y015245D01*
X014832Y015071D01*
X014832Y014897D01*
X014844Y014852D01*
X014868Y014811D01*
X014902Y014777D01*
X014943Y014753D01*
X014988Y014741D01*
X015312Y014741D01*
X015312Y015071D01*
X014832Y015071D01*
X015312Y015071D01*
X015312Y015071D01*
X015312Y015071D01*
X015312Y014741D01*
X015636Y014741D01*
X015682Y014753D01*
X015723Y014777D01*
X015756Y014811D01*
X015780Y014852D01*
X015792Y014897D01*
X015792Y015071D01*
X015313Y015071D01*
X015313Y015071D01*
X015792Y015071D01*
X015792Y015245D01*
X015780Y015291D01*
X015756Y015332D01*
X015723Y015365D01*
X015682Y015389D01*
X015636Y015401D01*
X015312Y015401D01*
X014988Y015401D01*
X014943Y015389D01*
X014902Y015365D01*
X014832Y015218D02*
X014502Y015218D01*
X014564Y015060D02*
X014832Y015060D01*
X014832Y014901D02*
X014558Y014901D01*
X014431Y014743D02*
X014983Y014743D01*
X015312Y014743D02*
X015312Y014743D01*
X015312Y014901D02*
X015312Y014901D01*
X015312Y015060D02*
X015312Y015060D01*
X015312Y015071D02*
X015312Y015401D01*
X015312Y015071D01*
X015312Y015071D01*
X015312Y015218D02*
X015312Y015218D01*
X015312Y015377D02*
X015312Y015377D01*
X015702Y015377D02*
X016922Y015377D01*
X016832Y015218D02*
X015792Y015218D01*
X015792Y015060D02*
X016832Y015060D01*
X016832Y014901D02*
X015792Y014901D01*
X015642Y014743D02*
X016983Y014743D01*
X017312Y014743D02*
X017312Y014743D01*
X017312Y014901D02*
X017312Y014901D01*
X017312Y015060D02*
X017312Y015060D01*
X017312Y015071D02*
X017312Y015401D01*
X017312Y015071D01*
X017312Y015071D01*
X017312Y015218D02*
X017312Y015218D01*
X017312Y015377D02*
X017312Y015377D01*
X017792Y015060D02*
X018222Y015060D01*
X018222Y014901D02*
X017792Y014901D01*
X017642Y014743D02*
X018222Y014743D01*
X018222Y014584D02*
X013725Y014584D01*
X013725Y014426D02*
X018222Y014426D01*
X018726Y014080D02*
X018928Y014080D01*
X018926Y014082D01*
X022355Y014082D01*
X022355Y014839D01*
X022869Y014901D02*
X024836Y014901D01*
X024836Y014743D02*
X022869Y014743D01*
X022869Y014584D02*
X024836Y014584D01*
X024836Y014426D02*
X022837Y014426D01*
X022556Y014082D02*
X022556Y014080D01*
X025076Y014080D01*
X025076Y016096D01*
X025142Y016328D02*
X027719Y016328D01*
X027793Y016487D02*
X021528Y016487D01*
X021613Y016328D02*
X021834Y016328D01*
X021820Y016169D02*
X021613Y016169D01*
X021206Y016169D02*
X021070Y016169D01*
X021070Y016328D02*
X021206Y016328D01*
X021206Y016487D02*
X021070Y016487D01*
X021070Y015852D02*
X021206Y015852D01*
X021206Y015694D02*
X021070Y015694D01*
X020680Y015535D02*
X021845Y015535D01*
X021820Y015694D02*
X021606Y015694D01*
X021613Y015852D02*
X021820Y015852D01*
X022277Y015852D02*
X022432Y015852D01*
X022432Y015694D02*
X022277Y015694D01*
X022277Y015535D02*
X022432Y015535D01*
X022869Y015218D02*
X024836Y015218D01*
X024836Y015060D02*
X022869Y015060D01*
X021873Y014426D02*
X021593Y014426D01*
X022355Y014082D02*
X022556Y014082D01*
X022556Y014080D02*
X022556Y011359D01*
X022568Y011359D01*
X022556Y011359D02*
X022556Y010600D01*
X021649Y010600D01*
X020526Y010600D01*
X020526Y010695D01*
X021139Y011096D02*
X022278Y011096D01*
X022278Y010938D02*
X022163Y010938D01*
X022796Y010779D02*
X022858Y010779D01*
X022858Y010620D02*
X022796Y010620D01*
X022758Y010462D02*
X022858Y010462D01*
X022858Y010303D02*
X022163Y010303D01*
X022090Y010145D02*
X022858Y010145D01*
X022858Y009986D02*
X022049Y009986D01*
X022183Y009828D02*
X022858Y009828D01*
X025068Y011360D02*
X025068Y011939D01*
X024914Y011939D01*
X024869Y011927D01*
X024827Y011903D01*
X024804Y011880D01*
X024778Y011906D01*
X024778Y012782D01*
X024809Y012813D01*
X024851Y012916D01*
X024851Y013027D01*
X024809Y013130D01*
X024730Y013208D01*
X024628Y013251D01*
X024516Y013251D01*
X024414Y013208D01*
X024335Y013130D01*
X024293Y013027D01*
X024293Y012916D01*
X024335Y012813D01*
X024358Y012790D01*
X024358Y011906D01*
X024318Y011866D01*
X024278Y011906D01*
X024278Y012484D01*
X024305Y012511D01*
X024347Y012613D01*
X024347Y012725D01*
X024305Y012827D01*
X024226Y012906D01*
X024124Y012948D01*
X024012Y012948D01*
X023910Y012906D01*
X023831Y012827D01*
X023789Y012725D01*
X023789Y012613D01*
X023831Y012511D01*
X023858Y012484D01*
X023858Y011906D01*
X023818Y011866D01*
X023774Y011909D01*
X023774Y012181D01*
X023801Y012208D01*
X023843Y012311D01*
X023843Y012422D01*
X023801Y012525D01*
X023722Y012603D01*
X023620Y012646D01*
X023509Y012646D01*
X023406Y012603D01*
X023327Y012525D01*
X023285Y012422D01*
X023285Y012311D01*
X023327Y012208D01*
X023354Y012181D01*
X023354Y011902D01*
X023318Y011866D01*
X023287Y011896D01*
X023297Y011906D01*
X023339Y012009D01*
X023339Y012120D01*
X023297Y012222D01*
X023218Y012301D01*
X023116Y012344D01*
X023005Y012344D01*
X022902Y012301D01*
X022823Y012222D01*
X022796Y012157D01*
X022796Y013840D01*
X025028Y013840D01*
X025124Y013840D01*
X025212Y013877D01*
X025279Y013944D01*
X025316Y014032D01*
X025316Y015886D01*
X028231Y015886D01*
X028216Y015870D01*
X026171Y015870D01*
X025997Y015870D01*
X025874Y015747D01*
X025874Y010964D01*
X025858Y010964D01*
X025858Y011826D01*
X025764Y011919D01*
X025372Y011919D01*
X025332Y011880D01*
X025309Y011903D01*
X025267Y011927D01*
X025222Y011939D01*
X025068Y011939D01*
X025068Y011360D01*
X025068Y011360D01*
X025068Y011359D02*
X025278Y011359D01*
X025068Y011359D01*
X025068Y011359D01*
X025068Y011413D02*
X025068Y011413D01*
X025068Y011572D02*
X025068Y011572D01*
X025068Y011730D02*
X025068Y011730D01*
X025068Y011889D02*
X025068Y011889D01*
X024813Y011889D02*
X024795Y011889D01*
X024778Y012047D02*
X025874Y012047D01*
X025874Y011889D02*
X025795Y011889D01*
X025858Y011730D02*
X025874Y011730D01*
X025858Y011572D02*
X025874Y011572D01*
X025858Y011413D02*
X025874Y011413D01*
X025858Y011255D02*
X025874Y011255D01*
X025858Y011096D02*
X025874Y011096D01*
X025278Y011359D02*
X025278Y011359D01*
X025323Y011889D02*
X025341Y011889D01*
X025874Y012206D02*
X024778Y012206D01*
X024778Y012364D02*
X025874Y012364D01*
X025874Y012523D02*
X024778Y012523D01*
X024778Y012682D02*
X025874Y012682D01*
X025874Y012840D02*
X024820Y012840D01*
X024851Y012999D02*
X025874Y012999D01*
X025874Y013157D02*
X024781Y013157D01*
X024363Y013157D02*
X022796Y013157D01*
X022796Y012999D02*
X024293Y012999D01*
X024292Y012840D02*
X024324Y012840D01*
X024347Y012682D02*
X024358Y012682D01*
X024358Y012523D02*
X024310Y012523D01*
X024278Y012364D02*
X024358Y012364D01*
X024358Y012206D02*
X024278Y012206D01*
X024278Y012047D02*
X024358Y012047D01*
X024341Y011889D02*
X024295Y011889D01*
X023841Y011889D02*
X023795Y011889D01*
X023774Y012047D02*
X023858Y012047D01*
X023858Y012206D02*
X023798Y012206D01*
X023843Y012364D02*
X023858Y012364D01*
X023826Y012523D02*
X023802Y012523D01*
X023789Y012682D02*
X022796Y012682D01*
X022796Y012840D02*
X023844Y012840D01*
X023326Y012523D02*
X022796Y012523D01*
X022796Y012364D02*
X023285Y012364D01*
X023304Y012206D02*
X023330Y012206D01*
X023339Y012047D02*
X023354Y012047D01*
X023341Y011889D02*
X023295Y011889D01*
X022816Y012206D02*
X022796Y012206D01*
X022316Y012206D02*
X021884Y012206D01*
X021859Y012047D02*
X022316Y012047D01*
X022316Y011889D02*
X021859Y011889D01*
X021859Y011730D02*
X022278Y011730D01*
X022278Y011572D02*
X021857Y011572D01*
X021928Y012364D02*
X022316Y012364D01*
X022316Y012523D02*
X021887Y012523D01*
X021525Y012682D02*
X022316Y012682D01*
X022316Y012840D02*
X021470Y012840D01*
X021115Y012999D02*
X022316Y012999D01*
X022316Y013157D02*
X021110Y013157D01*
X020985Y013316D02*
X022316Y013316D01*
X022316Y013474D02*
X020533Y013474D01*
X020618Y013316D02*
X020701Y013316D01*
X020884Y013633D02*
X022316Y013633D01*
X022316Y013791D02*
X020921Y013791D01*
X021006Y012840D02*
X021022Y012840D01*
X020967Y012682D02*
X020417Y012682D01*
X020361Y012840D02*
X020680Y012840D01*
X020778Y012523D02*
X021004Y012523D01*
X021036Y012364D02*
X020820Y012364D01*
X022796Y013316D02*
X025874Y013316D01*
X025874Y013474D02*
X022796Y013474D01*
X022796Y013633D02*
X025874Y013633D01*
X025874Y013791D02*
X022796Y013791D01*
X025282Y013950D02*
X025874Y013950D01*
X025874Y014108D02*
X025316Y014108D01*
X025316Y014267D02*
X025874Y014267D01*
X025874Y014426D02*
X025316Y014426D01*
X025316Y014584D02*
X025874Y014584D01*
X025874Y014743D02*
X025316Y014743D01*
X025316Y014901D02*
X025874Y014901D01*
X025874Y015060D02*
X025316Y015060D01*
X025316Y015218D02*
X025874Y015218D01*
X025874Y015377D02*
X025316Y015377D01*
X025316Y015535D02*
X025874Y015535D01*
X025874Y015694D02*
X025316Y015694D01*
X025316Y015852D02*
X025979Y015852D01*
X026294Y015450D02*
X026294Y014555D01*
X026299Y014560D01*
X026473Y014560D01*
X028216Y014560D01*
X028303Y014648D01*
X028543Y014648D01*
X028544Y014649D01*
X028494Y014699D01*
X028494Y014722D01*
X028303Y014722D01*
X028216Y014809D01*
X028157Y014750D01*
X028054Y014708D01*
X027943Y014708D01*
X027840Y014750D01*
X027762Y014829D01*
X027719Y014931D01*
X027719Y015043D01*
X027762Y015145D01*
X027840Y015224D01*
X027943Y015266D01*
X028054Y015266D01*
X028144Y015229D01*
X028216Y015229D01*
X028303Y015317D01*
X028494Y015317D01*
X028494Y015339D01*
X028518Y015363D01*
X028303Y015363D01*
X028216Y015450D01*
X026294Y015450D01*
X026294Y015377D02*
X028289Y015377D01*
X027835Y015218D02*
X026294Y015218D01*
X026294Y015060D02*
X027726Y015060D01*
X027732Y014901D02*
X026294Y014901D01*
X026294Y014743D02*
X027859Y014743D01*
X028139Y014743D02*
X028282Y014743D01*
X028240Y014584D02*
X026294Y014584D01*
X026596Y014140D02*
X026596Y013244D01*
X026601Y013250D01*
X026775Y013250D01*
X028216Y013250D01*
X028303Y013338D01*
X028543Y013338D01*
X028544Y013338D01*
X028494Y013388D01*
X028494Y013411D01*
X028303Y013411D01*
X028266Y013448D01*
X028258Y013440D01*
X028155Y013397D01*
X028044Y013397D01*
X027941Y013440D01*
X027863Y013519D01*
X027820Y013621D01*
X027820Y013732D01*
X027863Y013835D01*
X027941Y013914D01*
X028044Y013956D01*
X028155Y013956D01*
X028224Y013928D01*
X028303Y014007D01*
X028494Y014007D01*
X028494Y014041D01*
X028505Y014052D01*
X028303Y014052D01*
X028216Y014140D01*
X026596Y014140D01*
X026596Y014108D02*
X028247Y014108D01*
X028246Y013950D02*
X028170Y013950D01*
X028029Y013950D02*
X026596Y013950D01*
X026596Y013791D02*
X027845Y013791D01*
X027820Y013633D02*
X026596Y013633D01*
X026596Y013474D02*
X027907Y013474D01*
X028281Y013316D02*
X026596Y013316D01*
X026898Y012830D02*
X026898Y011934D01*
X026904Y011940D01*
X027078Y011940D01*
X028216Y011940D01*
X028303Y012027D01*
X028543Y012027D01*
X028544Y012028D01*
X028494Y012078D01*
X028494Y012101D01*
X028303Y012101D01*
X028266Y012138D01*
X028258Y012130D01*
X028155Y012087D01*
X028044Y012087D01*
X027941Y012130D01*
X027863Y012208D01*
X027820Y012311D01*
X027820Y012422D01*
X027863Y012525D01*
X027941Y012603D01*
X028044Y012646D01*
X028155Y012646D01*
X028224Y012617D01*
X028303Y012697D01*
X028494Y012697D01*
X028494Y012718D01*
X028518Y012742D01*
X028303Y012742D01*
X028216Y012830D01*
X026898Y012830D01*
X026898Y012682D02*
X028288Y012682D01*
X027862Y012523D02*
X026898Y012523D01*
X026898Y012364D02*
X027820Y012364D01*
X027865Y012206D02*
X026898Y012206D01*
X026898Y012047D02*
X028525Y012047D01*
X028705Y011730D02*
X028721Y011730D01*
X028721Y011729D01*
X028705Y011729D01*
X028705Y011730D01*
X028518Y011432D02*
X028494Y011408D01*
X028494Y011386D01*
X028303Y011386D01*
X028224Y011307D01*
X028155Y011336D01*
X028044Y011336D01*
X027941Y011293D01*
X027863Y011215D01*
X027820Y011112D01*
X027820Y011001D01*
X027863Y010898D01*
X027941Y010820D01*
X028044Y010777D01*
X028155Y010777D01*
X028258Y010820D01*
X028266Y010828D01*
X028303Y010791D01*
X028494Y010791D01*
X028494Y010768D01*
X028544Y010718D01*
X028543Y010717D01*
X028303Y010717D01*
X028216Y010629D01*
X027380Y010629D01*
X027206Y010629D01*
X027201Y010624D01*
X027201Y011520D01*
X028216Y011520D01*
X028303Y011432D01*
X028518Y011432D01*
X028499Y011413D02*
X027201Y011413D01*
X027201Y011255D02*
X027903Y011255D01*
X027820Y011096D02*
X027201Y011096D01*
X027201Y010938D02*
X027846Y010938D01*
X028039Y010779D02*
X027201Y010779D01*
X027503Y010209D02*
X028216Y010209D01*
X028303Y010122D01*
X028518Y010122D01*
X028494Y010098D01*
X028494Y010076D01*
X028303Y010076D01*
X028284Y010057D01*
X028258Y010084D01*
X028155Y010126D01*
X028044Y010126D01*
X027941Y010084D01*
X027863Y010005D01*
X027820Y009902D01*
X027820Y009791D01*
X027863Y009689D01*
X027941Y009610D01*
X027992Y009589D01*
X028013Y009568D01*
X028042Y009568D01*
X028044Y009568D01*
X028155Y009568D01*
X028157Y009568D01*
X028186Y009568D01*
X028216Y009568D01*
X028303Y009481D01*
X028494Y009481D01*
X028494Y009458D01*
X028544Y009408D01*
X028543Y009407D01*
X028303Y009407D01*
X028216Y009319D01*
X025858Y009319D01*
X025858Y009335D01*
X027380Y009335D01*
X027503Y009458D01*
X027503Y009632D01*
X027503Y010209D01*
X027503Y010145D02*
X028280Y010145D01*
X027855Y009986D02*
X027503Y009986D01*
X027503Y009828D02*
X027820Y009828D01*
X027882Y009669D02*
X027503Y009669D01*
X027503Y009511D02*
X028273Y009511D01*
X028249Y009352D02*
X027398Y009352D01*
X028238Y008876D02*
X025858Y008876D01*
X028747Y007450D02*
X019339Y007450D01*
X019339Y007291D02*
X028747Y007291D01*
X028391Y006657D02*
X019037Y006657D01*
X019037Y006815D02*
X019042Y006815D01*
X018634Y006181D02*
X023354Y006181D01*
X023354Y006023D02*
X022747Y006023D01*
X022766Y005864D02*
X023354Y005864D01*
X023354Y005706D02*
X022766Y005706D01*
X022766Y005547D02*
X023354Y005547D01*
X023183Y005389D02*
X022922Y005389D01*
X022999Y005230D02*
X023105Y005230D01*
X023092Y005071D02*
X023012Y005071D01*
X023012Y004913D02*
X023092Y004913D01*
X023092Y004754D02*
X023012Y004754D01*
X023012Y004596D02*
X023092Y004596D01*
X023092Y004437D02*
X023012Y004437D01*
X022955Y004279D02*
X023149Y004279D01*
X023289Y004120D02*
X022815Y004120D01*
X022289Y004120D02*
X021815Y004120D01*
X021813Y004118D02*
X021942Y004247D01*
X022012Y004416D01*
X022012Y005199D01*
X021942Y005368D01*
X021813Y005497D01*
X021644Y005568D01*
X021461Y005568D01*
X021292Y005497D01*
X021162Y005368D01*
X021092Y005199D01*
X021092Y004416D01*
X021162Y004247D01*
X021292Y004118D01*
X021461Y004048D01*
X021644Y004048D01*
X021813Y004118D01*
X021955Y004279D02*
X022149Y004279D01*
X022092Y004437D02*
X022012Y004437D01*
X022012Y004596D02*
X022092Y004596D01*
X022092Y004754D02*
X022012Y004754D01*
X022012Y004913D02*
X022092Y004913D01*
X022092Y005071D02*
X022012Y005071D01*
X021999Y005230D02*
X022105Y005230D01*
X022183Y005389D02*
X021922Y005389D01*
X021693Y005547D02*
X022346Y005547D01*
X022346Y005706D02*
X018312Y005706D01*
X018312Y005547D02*
X019411Y005547D01*
X019461Y005568D02*
X019292Y005497D01*
X019162Y005368D01*
X019092Y005199D01*
X019092Y004416D01*
X019162Y004247D01*
X019292Y004118D01*
X019461Y004048D01*
X019644Y004048D01*
X019813Y004118D01*
X019942Y004247D01*
X020012Y004416D01*
X020012Y005199D01*
X019942Y005368D01*
X019813Y005497D01*
X019644Y005568D01*
X019461Y005568D01*
X019693Y005547D02*
X020358Y005547D01*
X020368Y005552D02*
X020301Y005518D01*
X020240Y005474D01*
X020186Y005420D01*
X020142Y005359D01*
X020107Y005292D01*
X020084Y005220D01*
X020072Y005145D01*
X020072Y004828D01*
X020532Y004828D01*
X020532Y005588D01*
X020514Y005588D01*
X020440Y005576D01*
X020368Y005552D01*
X020532Y005547D02*
X020572Y005547D01*
X020572Y005588D02*
X020572Y004828D01*
X020532Y004828D01*
X020532Y004787D01*
X020572Y004787D01*
X020572Y004028D01*
X020590Y004028D01*
X020665Y004039D01*
X020737Y004063D01*
X020804Y004097D01*
X020865Y004141D01*
X020918Y004195D01*
X020963Y004256D01*
X020997Y004323D01*
X021020Y004395D01*
X021032Y004470D01*
X021032Y004787D01*
X020573Y004787D01*
X020573Y004828D01*
X021032Y004828D01*
X021032Y005145D01*
X021020Y005220D01*
X020997Y005292D01*
X020963Y005359D01*
X020918Y005420D01*
X020865Y005474D01*
X020804Y005518D01*
X020737Y005552D01*
X020665Y005576D01*
X020590Y005588D01*
X020572Y005588D01*
X020747Y005547D02*
X021411Y005547D01*
X021183Y005389D02*
X020941Y005389D01*
X021017Y005230D02*
X021105Y005230D01*
X021092Y005071D02*
X021032Y005071D01*
X021032Y004913D02*
X021092Y004913D01*
X021092Y004754D02*
X021032Y004754D01*
X021032Y004596D02*
X021092Y004596D01*
X021092Y004437D02*
X021027Y004437D01*
X020974Y004279D02*
X021149Y004279D01*
X021289Y004120D02*
X020836Y004120D01*
X020572Y004120D02*
X020532Y004120D01*
X020532Y004028D02*
X020532Y004787D01*
X020072Y004787D01*
X020072Y004470D01*
X020084Y004395D01*
X020107Y004323D01*
X020142Y004256D01*
X020186Y004195D01*
X020240Y004141D01*
X020301Y004097D01*
X020368Y004063D01*
X020440Y004039D01*
X020514Y004028D01*
X020532Y004028D01*
X020532Y004279D02*
X020572Y004279D01*
X020572Y004437D02*
X020532Y004437D01*
X020532Y004596D02*
X020572Y004596D01*
X020572Y004754D02*
X020532Y004754D01*
X020532Y004913D02*
X020572Y004913D01*
X020572Y005071D02*
X020532Y005071D01*
X020532Y005230D02*
X020572Y005230D01*
X020572Y005389D02*
X020532Y005389D01*
X020163Y005389D02*
X019922Y005389D01*
X019999Y005230D02*
X020087Y005230D01*
X020072Y005071D02*
X020012Y005071D01*
X020012Y004913D02*
X020072Y004913D01*
X020072Y004754D02*
X020012Y004754D01*
X020012Y004596D02*
X020072Y004596D01*
X020077Y004437D02*
X020012Y004437D01*
X019955Y004279D02*
X020130Y004279D01*
X020269Y004120D02*
X019815Y004120D01*
X020136Y003803D02*
X018259Y003803D01*
X018259Y003645D02*
X020082Y003645D01*
X020082Y003486D02*
X018259Y003486D01*
X018259Y003327D02*
X020082Y003327D01*
X020082Y003169D02*
X018259Y003169D01*
X018259Y003010D02*
X020082Y003010D01*
X020082Y002852D02*
X018259Y002852D01*
X017495Y002535D02*
X020082Y002535D01*
X020082Y002693D02*
X017429Y002693D01*
X017152Y003010D02*
X017008Y003010D01*
X016882Y003169D02*
X017152Y003169D01*
X017152Y003327D02*
X016882Y003327D01*
X016882Y003486D02*
X017152Y003486D01*
X017152Y003645D02*
X016882Y003645D01*
X016882Y003803D02*
X017152Y003803D01*
X017243Y003962D02*
X016882Y003962D01*
X016845Y004120D02*
X019289Y004120D01*
X019149Y004279D02*
X016211Y004279D01*
X016211Y004437D02*
X019092Y004437D01*
X019092Y004596D02*
X016211Y004596D01*
X015971Y004886D02*
X016743Y004886D01*
X016743Y005767D01*
X017797Y005767D01*
X017797Y005765D01*
X017282Y005389D02*
X017258Y005389D01*
X016983Y005230D02*
X019105Y005230D01*
X019092Y005071D02*
X016983Y005071D01*
X016983Y004913D02*
X019092Y004913D01*
X019092Y004754D02*
X016948Y004754D01*
X015971Y004886D02*
X015971Y003756D01*
X015974Y003554D01*
X016288Y003554D02*
X016289Y003554D01*
X016289Y002920D01*
X016411Y002920D01*
X016446Y002929D01*
X016464Y002924D01*
X016456Y002921D01*
X016266Y002731D01*
X016163Y002482D01*
X016163Y002213D01*
X016266Y001964D01*
X016456Y001774D01*
X016705Y001671D01*
X016974Y001671D01*
X017219Y001772D01*
X017152Y001705D01*
X017152Y001155D01*
X014795Y001155D01*
X014795Y001705D01*
X014728Y001772D01*
X014973Y001671D01*
X015242Y001671D01*
X015491Y001774D01*
X015681Y001964D01*
X015784Y002213D01*
X015784Y002482D01*
X015681Y002731D01*
X015491Y002921D01*
X015447Y002940D01*
X015494Y002940D01*
X015809Y002940D01*
X016107Y002940D01*
X016121Y002932D01*
X016166Y002920D01*
X016288Y002920D01*
X016288Y003554D01*
X016288Y003486D02*
X016289Y003486D01*
X016288Y003327D02*
X016289Y003327D01*
X016288Y003169D02*
X016289Y003169D01*
X016288Y003010D02*
X016289Y003010D01*
X016387Y002852D02*
X015560Y002852D01*
X015697Y002693D02*
X016250Y002693D01*
X016185Y002535D02*
X015763Y002535D01*
X015784Y002376D02*
X016163Y002376D01*
X016163Y002218D02*
X015784Y002218D01*
X015720Y002059D02*
X016227Y002059D01*
X016330Y001901D02*
X015617Y001901D01*
X015414Y001742D02*
X016533Y001742D01*
X017146Y001742D02*
X017189Y001742D01*
X017152Y001584D02*
X014795Y001584D01*
X014801Y001742D02*
X014758Y001742D01*
X014597Y001901D02*
X012056Y001901D01*
X011959Y001901D02*
X001065Y001901D01*
X001065Y002059D02*
X009190Y002059D01*
X009190Y002055D02*
X009284Y001961D01*
X009928Y001961D01*
X010022Y002055D01*
X010022Y003605D01*
X009928Y003699D01*
X009284Y003699D01*
X009190Y003605D01*
X009190Y002055D01*
X009190Y002218D02*
X001065Y002218D01*
X001065Y002376D02*
X004779Y002376D01*
X004789Y002371D02*
X004835Y002358D01*
X005096Y002358D01*
X005096Y002815D01*
X005251Y002815D01*
X005251Y002358D01*
X005512Y002358D01*
X005558Y002371D01*
X005599Y002394D01*
X005633Y002428D01*
X005656Y002469D01*
X005668Y002515D01*
X005668Y002815D01*
X005251Y002815D01*
X005251Y002970D01*
X005668Y002970D01*
X005668Y003271D01*
X005656Y003316D01*
X005633Y003357D01*
X005599Y003391D01*
X005558Y003415D01*
X005512Y003427D01*
X005251Y003427D01*
X005251Y002970D01*
X005096Y002970D01*
X005096Y002815D01*
X004679Y002815D01*
X004679Y002515D01*
X004691Y002469D01*
X004715Y002428D01*
X004748Y002394D01*
X004789Y002371D01*
X004679Y002535D02*
X001065Y002535D01*
X001065Y002693D02*
X004679Y002693D01*
X004679Y002970D02*
X005096Y002970D01*
X005096Y003427D01*
X004835Y003427D01*
X004789Y003415D01*
X004748Y003391D01*
X004715Y003357D01*
X004691Y003316D01*
X004679Y003271D01*
X004679Y002970D01*
X004679Y003010D02*
X001065Y003010D01*
X001065Y002852D02*
X005096Y002852D01*
X005251Y002852D02*
X005801Y002852D01*
X005801Y003010D02*
X005668Y003010D01*
X005668Y003169D02*
X005801Y003169D01*
X005815Y003327D02*
X005650Y003327D01*
X005251Y003327D02*
X005096Y003327D01*
X005096Y003169D02*
X005251Y003169D01*
X005251Y003010D02*
X005096Y003010D01*
X005096Y002693D02*
X005251Y002693D01*
X005251Y002535D02*
X005096Y002535D01*
X005096Y002376D02*
X005251Y002376D01*
X005568Y002376D02*
X009190Y002376D01*
X009190Y002535D02*
X006751Y002535D01*
X006751Y002693D02*
X009190Y002693D01*
X009190Y002852D02*
X006751Y002852D01*
X006751Y003010D02*
X009190Y003010D01*
X009190Y003169D02*
X006751Y003169D01*
X006119Y003486D02*
X001065Y003486D01*
X001065Y003327D02*
X004697Y003327D01*
X004679Y003169D02*
X001065Y003169D01*
X001065Y003645D02*
X004133Y003645D01*
X004128Y003803D02*
X001065Y003803D01*
X001065Y003962D02*
X004128Y003962D01*
X004140Y004120D02*
X003147Y004120D01*
X003166Y004139D02*
X003210Y004200D01*
X003244Y004267D01*
X003268Y004339D01*
X003279Y004414D01*
X003279Y004432D01*
X002520Y004432D01*
X002520Y004472D01*
X003279Y004472D01*
X003279Y004489D01*
X003268Y004564D01*
X003244Y004636D01*
X003210Y004703D01*
X003166Y004764D01*
X003112Y004818D01*
X003051Y004862D01*
X002984Y004896D01*
X002912Y004920D01*
X002837Y004932D01*
X002520Y004932D01*
X002520Y004472D01*
X002479Y004472D01*
X002479Y004432D01*
X001720Y004432D01*
X001720Y004414D01*
X001731Y004339D01*
X001755Y004267D01*
X001789Y004200D01*
X001833Y004139D01*
X001887Y004086D01*
X001948Y004041D01*
X002015Y004007D01*
X002087Y003983D01*
X002162Y003972D01*
X002479Y003972D01*
X002479Y004431D01*
X002520Y004431D01*
X002520Y003972D01*
X002837Y003972D01*
X002912Y003983D01*
X002984Y004007D01*
X003051Y004041D01*
X003112Y004086D01*
X003166Y004139D01*
X003248Y004279D02*
X004128Y004279D01*
X004128Y004316D02*
X004708Y004316D01*
X004708Y004316D01*
X004128Y004316D01*
X004128Y004437D02*
X002520Y004437D01*
X002479Y004437D02*
X001065Y004437D01*
X001065Y004279D02*
X001751Y004279D01*
X001852Y004120D02*
X001065Y004120D01*
X001720Y004472D02*
X002479Y004472D01*
X002479Y004932D01*
X002162Y004932D01*
X002087Y004920D01*
X002015Y004896D01*
X001948Y004862D01*
X001887Y004818D01*
X001833Y004764D01*
X001789Y004703D01*
X001755Y004636D01*
X001731Y004564D01*
X001720Y004489D01*
X001720Y004472D01*
X001742Y004596D02*
X001065Y004596D01*
X001065Y004754D02*
X001826Y004754D01*
X002066Y004913D02*
X001065Y004913D01*
X001065Y005071D02*
X001906Y005071D01*
X001887Y005086D02*
X001948Y005041D01*
X002015Y005007D01*
X002087Y004983D01*
X002162Y004972D01*
X002479Y004972D01*
X002479Y005431D01*
X002520Y005431D01*
X002520Y004972D01*
X002837Y004972D01*
X002912Y004983D01*
X002984Y005007D01*
X003051Y005041D01*
X003112Y005086D01*
X003166Y005139D01*
X003210Y005200D01*
X003244Y005267D01*
X003268Y005339D01*
X003279Y005414D01*
X003279Y005432D01*
X002520Y005432D01*
X002520Y005472D01*
X003279Y005472D01*
X003279Y005489D01*
X003268Y005564D01*
X003244Y005636D01*
X003210Y005703D01*
X003166Y005764D01*
X003112Y005818D01*
X003051Y005862D01*
X002984Y005896D01*
X002912Y005920D01*
X002837Y005932D01*
X002520Y005932D01*
X002520Y005472D01*
X002479Y005472D01*
X002479Y005432D01*
X001720Y005432D01*
X001720Y005414D01*
X001731Y005339D01*
X001755Y005267D01*
X001789Y005200D01*
X001833Y005139D01*
X001887Y005086D01*
X001774Y005230D02*
X001065Y005230D01*
X001065Y005389D02*
X001724Y005389D01*
X001720Y005472D02*
X002479Y005472D01*
X002479Y005932D01*
X002162Y005932D01*
X002087Y005920D01*
X002015Y005896D01*
X001948Y005862D01*
X001887Y005818D01*
X001833Y005764D01*
X001789Y005703D01*
X001755Y005636D01*
X001731Y005564D01*
X001720Y005489D01*
X001720Y005472D01*
X001729Y005547D02*
X001065Y005547D01*
X001065Y005706D02*
X001791Y005706D01*
X001952Y005864D02*
X001065Y005864D01*
X001065Y006023D02*
X002033Y006023D01*
X001819Y006181D02*
X001065Y006181D01*
X001065Y006340D02*
X001748Y006340D01*
X001740Y006498D02*
X001065Y006498D01*
X001065Y006657D02*
X001787Y006657D01*
X001913Y006815D02*
X001065Y006815D01*
X001065Y006974D02*
X005283Y006974D01*
X005283Y007133D02*
X003131Y007133D01*
X003189Y007191D02*
X003259Y007360D01*
X003259Y007543D01*
X003189Y007712D01*
X003060Y007842D01*
X002891Y007912D01*
X002108Y007912D01*
X001939Y007842D01*
X001810Y007712D01*
X001740Y007543D01*
X001740Y007360D01*
X001810Y007191D01*
X001939Y007062D01*
X002108Y006992D01*
X002891Y006992D01*
X003060Y007062D01*
X003189Y007191D01*
X003231Y007291D02*
X005283Y007291D01*
X005283Y007450D02*
X003259Y007450D01*
X003233Y007608D02*
X005283Y007608D01*
X005283Y007767D02*
X003135Y007767D01*
X003060Y008062D02*
X002891Y007992D01*
X002108Y007992D01*
X001939Y008062D01*
X001810Y008191D01*
X001740Y008360D01*
X001740Y008543D01*
X001810Y008712D01*
X001939Y008842D01*
X002108Y008912D01*
X002891Y008912D01*
X003060Y008842D01*
X003189Y008712D01*
X003259Y008543D01*
X003259Y008360D01*
X003189Y008191D01*
X003060Y008062D01*
X003082Y008084D02*
X005283Y008084D01*
X005283Y008242D02*
X003211Y008242D01*
X003259Y008401D02*
X005283Y008401D01*
X005283Y008559D02*
X003253Y008559D01*
X003184Y008718D02*
X005283Y008718D01*
X005283Y008876D02*
X002976Y008876D01*
X002891Y008992D02*
X003060Y009062D01*
X003189Y009191D01*
X003259Y009360D01*
X003259Y009543D01*
X003189Y009712D01*
X003060Y009842D01*
X002891Y009912D01*
X002108Y009912D01*
X001939Y009842D01*
X001810Y009712D01*
X001740Y009543D01*
X001740Y009360D01*
X001810Y009191D01*
X001939Y009062D01*
X002108Y008992D01*
X002891Y008992D01*
X002996Y009035D02*
X005283Y009035D01*
X005283Y009194D02*
X003190Y009194D01*
X003256Y009352D02*
X005283Y009352D01*
X005283Y009511D02*
X003259Y009511D01*
X003207Y009669D02*
X005283Y009669D01*
X005283Y009828D02*
X003074Y009828D01*
X003060Y010062D02*
X002891Y009992D01*
X002108Y009992D01*
X001939Y010062D01*
X001810Y010191D01*
X001740Y010360D01*
X001740Y010543D01*
X001810Y010712D01*
X001939Y010842D01*
X002108Y010912D01*
X002891Y010912D01*
X003060Y010842D01*
X003189Y010712D01*
X003259Y010543D01*
X003259Y010360D01*
X003189Y010191D01*
X003060Y010062D01*
X003143Y010145D02*
X005283Y010145D01*
X005283Y010303D02*
X003236Y010303D01*
X003259Y010462D02*
X005283Y010462D01*
X005283Y010620D02*
X003227Y010620D01*
X003123Y010779D02*
X005283Y010779D01*
X005283Y010938D02*
X001065Y010938D01*
X001065Y011096D02*
X001905Y011096D01*
X001939Y011062D02*
X002108Y010992D01*
X002891Y010992D01*
X003060Y011062D01*
X003189Y011191D01*
X003259Y011360D01*
X003259Y011543D01*
X003189Y011712D01*
X003060Y011842D01*
X002891Y011912D01*
X002108Y011912D01*
X001939Y011842D01*
X001810Y011712D01*
X001740Y011543D01*
X001740Y011360D01*
X001810Y011191D01*
X001939Y011062D01*
X001783Y011255D02*
X001065Y011255D01*
X001065Y011413D02*
X001740Y011413D01*
X001751Y011572D02*
X001065Y011572D01*
X001065Y011730D02*
X001828Y011730D01*
X002053Y011889D02*
X001065Y011889D01*
X001065Y012047D02*
X001974Y012047D01*
X001939Y012062D02*
X002108Y011992D01*
X002891Y011992D01*
X003060Y012062D01*
X003189Y012191D01*
X003259Y012360D01*
X003259Y012543D01*
X003189Y012712D01*
X003060Y012842D01*
X002891Y012912D01*
X002108Y012912D01*
X001939Y012842D01*
X001810Y012712D01*
X001740Y012543D01*
X001740Y012360D01*
X001810Y012191D01*
X001939Y012062D01*
X001803Y012206D02*
X001065Y012206D01*
X001065Y012364D02*
X001740Y012364D01*
X001740Y012523D02*
X001065Y012523D01*
X001065Y012682D02*
X001797Y012682D01*
X001937Y012840D02*
X001065Y012840D01*
X001065Y012999D02*
X002091Y012999D01*
X002108Y012992D02*
X001939Y013062D01*
X001810Y013191D01*
X001740Y013360D01*
X001740Y013543D01*
X001810Y013712D01*
X001939Y013842D01*
X002108Y013912D01*
X002891Y013912D01*
X003060Y013842D01*
X003189Y013712D01*
X003259Y013543D01*
X003259Y013360D01*
X003189Y013191D01*
X003060Y013062D01*
X002891Y012992D01*
X002108Y012992D01*
X001843Y013157D02*
X001065Y013157D01*
X001065Y013316D02*
X001758Y013316D01*
X001740Y013474D02*
X001065Y013474D01*
X001065Y013633D02*
X001777Y013633D01*
X001889Y013791D02*
X001065Y013791D01*
X001065Y013950D02*
X005283Y013950D01*
X005283Y014108D02*
X003107Y014108D01*
X003060Y014062D02*
X003189Y014191D01*
X003259Y014360D01*
X003259Y014543D01*
X003189Y014712D01*
X003060Y014842D01*
X002891Y014912D01*
X002108Y014912D01*
X001939Y014842D01*
X001810Y014712D01*
X001740Y014543D01*
X001740Y014360D01*
X001810Y014191D01*
X001939Y014062D01*
X002108Y013992D01*
X002891Y013992D01*
X003060Y014062D01*
X003221Y014267D02*
X005283Y014267D01*
X005283Y014426D02*
X003259Y014426D01*
X003243Y014584D02*
X005283Y014584D01*
X005283Y014743D02*
X003159Y014743D01*
X002916Y014901D02*
X005283Y014901D01*
X005283Y015060D02*
X003055Y015060D01*
X003060Y015062D02*
X003189Y015191D01*
X003259Y015360D01*
X003259Y015543D01*
X003189Y015712D01*
X003060Y015842D01*
X002891Y015912D01*
X002108Y015912D01*
X001939Y015842D01*
X001810Y015712D01*
X001740Y015543D01*
X001740Y015360D01*
X001810Y015191D01*
X001939Y015062D01*
X002108Y014992D01*
X002891Y014992D01*
X003060Y015062D01*
X003201Y015218D02*
X005283Y015218D01*
X005283Y015377D02*
X003259Y015377D01*
X003259Y015535D02*
X005283Y015535D01*
X005283Y015694D02*
X003197Y015694D01*
X003034Y015852D02*
X005283Y015852D01*
X005283Y016011D02*
X002938Y016011D01*
X003168Y016169D02*
X005283Y016169D01*
X005523Y016452D02*
X005523Y010250D01*
X006527Y010250D01*
X006527Y010264D01*
X008055Y010264D01*
X008055Y010258D01*
X008055Y010514D02*
X008055Y010515D01*
X007136Y010515D01*
X007136Y011384D01*
X006527Y011384D01*
X006450Y011413D02*
X005763Y011413D01*
X005763Y011255D02*
X005992Y011255D01*
X005992Y011306D02*
X005992Y011045D01*
X006005Y010999D01*
X006028Y010958D01*
X006062Y010924D01*
X006103Y010901D01*
X006149Y010889D01*
X006450Y010889D01*
X006450Y011306D01*
X006605Y011306D01*
X006605Y011461D01*
X007062Y011461D01*
X007062Y011722D01*
X007050Y011768D01*
X007026Y011809D01*
X006993Y011842D01*
X006952Y011866D01*
X006906Y011878D01*
X006605Y011878D01*
X006605Y011461D01*
X006450Y011461D01*
X006450Y011878D01*
X006149Y011878D01*
X006103Y011866D01*
X006062Y011842D01*
X006028Y011809D01*
X006005Y011768D01*
X005992Y011722D01*
X005992Y011461D01*
X006450Y011461D01*
X006450Y011306D01*
X005992Y011306D01*
X005992Y011096D02*
X005763Y011096D01*
X005763Y010938D02*
X006049Y010938D01*
X005763Y010779D02*
X007560Y010779D01*
X007560Y010770D02*
X007705Y010770D01*
X007705Y010770D01*
X007705Y010770D01*
X007560Y010770D01*
X007561Y010620D02*
X007042Y010620D01*
X007560Y010514D02*
X007705Y010514D01*
X007706Y010514D01*
X007560Y010514D01*
X007560Y010938D02*
X007006Y010938D01*
X006993Y010924D02*
X007026Y010958D01*
X007050Y010999D01*
X007062Y011045D01*
X007062Y011306D01*
X006605Y011306D01*
X006605Y010889D01*
X006906Y010889D01*
X006952Y010901D01*
X006993Y010924D01*
X007062Y011096D02*
X007560Y011096D01*
X007560Y011255D02*
X007062Y011255D01*
X007297Y011413D02*
X006605Y011413D01*
X006605Y011255D02*
X006450Y011255D01*
X006450Y011096D02*
X006605Y011096D01*
X006605Y010938D02*
X006450Y010938D01*
X006012Y010620D02*
X005763Y010620D01*
X005523Y010250D02*
X005523Y004816D01*
X004708Y004816D01*
X005220Y005071D02*
X005283Y005071D01*
X005268Y005230D02*
X005283Y005230D01*
X005268Y005389D02*
X005283Y005389D01*
X005283Y005547D02*
X005234Y005547D01*
X005283Y005706D02*
X004948Y005706D01*
X004948Y005864D02*
X005283Y005864D01*
X005283Y006023D02*
X004948Y006023D01*
X004948Y006181D02*
X005283Y006181D01*
X005283Y006340D02*
X004948Y006340D01*
X004948Y006498D02*
X005283Y006498D01*
X005283Y006657D02*
X004840Y006657D01*
X005283Y006815D02*
X003086Y006815D01*
X002500Y006452D02*
X004708Y006452D01*
X004708Y005316D01*
X004148Y005389D02*
X003275Y005389D01*
X003270Y005547D02*
X004183Y005547D01*
X004468Y005706D02*
X003208Y005706D01*
X003047Y005864D02*
X004468Y005864D01*
X004468Y006023D02*
X002966Y006023D01*
X003180Y006181D02*
X004468Y006181D01*
X005763Y006181D02*
X007732Y006181D01*
X007732Y006023D02*
X005763Y006023D01*
X005763Y005864D02*
X007732Y005864D01*
X007732Y005706D02*
X005763Y005706D01*
X005763Y005547D02*
X006603Y005547D01*
X006119Y005389D02*
X005763Y005389D01*
X005763Y005230D02*
X006119Y005230D01*
X006119Y005071D02*
X005763Y005071D01*
X005763Y004913D02*
X006119Y004913D01*
X006119Y004754D02*
X005757Y004754D01*
X005619Y004596D02*
X006119Y004596D01*
X006119Y004437D02*
X005288Y004437D01*
X005288Y004316D02*
X004709Y004316D01*
X004709Y004316D01*
X005288Y004316D01*
X005288Y004279D02*
X006119Y004279D01*
X006119Y004120D02*
X005277Y004120D01*
X005288Y003962D02*
X006119Y003962D01*
X006119Y003803D02*
X005288Y003803D01*
X005288Y003816D02*
X004709Y003816D01*
X004709Y003816D01*
X004709Y003506D01*
X005132Y003506D01*
X005178Y003518D01*
X005219Y003542D01*
X005252Y003575D01*
X005276Y003617D01*
X005288Y003662D01*
X005288Y003816D01*
X005284Y003645D02*
X006119Y003645D01*
X004709Y003645D02*
X004708Y003645D01*
X004708Y003803D02*
X004709Y003803D01*
X004708Y003816D02*
X004708Y004006D01*
X004708Y004316D01*
X004709Y004316D01*
X004709Y004006D01*
X004709Y003816D01*
X004708Y003816D01*
X004708Y003962D02*
X004709Y003962D01*
X004708Y004120D02*
X004709Y004120D01*
X004708Y004279D02*
X004709Y004279D01*
X004172Y004596D02*
X003257Y004596D01*
X003173Y004754D02*
X004148Y004754D01*
X004148Y004913D02*
X002933Y004913D01*
X003093Y005071D02*
X004197Y005071D01*
X004148Y005230D02*
X003225Y005230D01*
X002520Y005230D02*
X002479Y005230D01*
X002479Y005071D02*
X002520Y005071D01*
X002520Y004913D02*
X002479Y004913D01*
X002479Y004754D02*
X002520Y004754D01*
X002520Y004596D02*
X002479Y004596D01*
X002479Y004279D02*
X002520Y004279D01*
X002520Y004120D02*
X002479Y004120D01*
X002479Y005389D02*
X002520Y005389D01*
X002520Y005547D02*
X002479Y005547D01*
X002479Y005706D02*
X002520Y005706D01*
X002520Y005864D02*
X002479Y005864D01*
X001868Y007133D02*
X001065Y007133D01*
X001065Y007291D02*
X001768Y007291D01*
X001740Y007450D02*
X001065Y007450D01*
X001065Y007608D02*
X001766Y007608D01*
X001864Y007767D02*
X001065Y007767D01*
X001065Y007925D02*
X005283Y007925D01*
X005763Y007925D02*
X006002Y007925D01*
X006002Y007767D02*
X005763Y007767D01*
X005763Y007608D02*
X006017Y007608D01*
X005763Y007450D02*
X012771Y007450D01*
X012771Y007608D02*
X012553Y007608D01*
X012553Y007767D02*
X012771Y007767D01*
X012771Y007925D02*
X012553Y007925D01*
X012553Y008084D02*
X012771Y008084D01*
X012771Y008242D02*
X012553Y008242D01*
X012483Y008401D02*
X012771Y008401D01*
X012771Y008559D02*
X010601Y008559D01*
X010948Y009074D02*
X011066Y009074D01*
X011066Y009746D01*
X010377Y009746D01*
X010377Y009746D01*
X010377Y010002D02*
X012039Y010002D01*
X012039Y009052D01*
X012553Y009035D02*
X012771Y009035D01*
X012771Y008876D02*
X012553Y008876D01*
X012553Y008718D02*
X012771Y008718D01*
X012771Y009194D02*
X012553Y009194D01*
X012553Y009352D02*
X012771Y009352D01*
X012771Y009511D02*
X012475Y009511D01*
X012279Y009669D02*
X012771Y009669D01*
X012771Y009828D02*
X012279Y009828D01*
X012279Y009986D02*
X012771Y009986D01*
X012771Y010145D02*
X012236Y010145D01*
X012771Y010303D02*
X010852Y010303D01*
X010852Y010462D02*
X012771Y010462D01*
X012771Y010620D02*
X010859Y010620D01*
X010872Y010770D02*
X010378Y010770D01*
X010872Y010770D01*
X010872Y010779D02*
X012771Y010779D01*
X012771Y010938D02*
X010852Y010938D01*
X010377Y011026D02*
X010377Y011031D01*
X009051Y011031D01*
X009051Y012482D01*
X008473Y012482D01*
X007939Y012523D02*
X005763Y012523D01*
X005763Y012364D02*
X007939Y012364D01*
X007939Y012206D02*
X005763Y012206D01*
X005763Y012047D02*
X008811Y012047D01*
X008811Y011889D02*
X005763Y011889D01*
X005763Y011730D02*
X005995Y011730D01*
X005992Y011572D02*
X005763Y011572D01*
X005283Y011572D02*
X003248Y011572D01*
X003259Y011413D02*
X005283Y011413D01*
X005283Y011255D02*
X003216Y011255D01*
X003094Y011096D02*
X005283Y011096D01*
X005283Y011730D02*
X003171Y011730D01*
X002946Y011889D02*
X005283Y011889D01*
X005283Y012047D02*
X003025Y012047D01*
X003196Y012206D02*
X005283Y012206D01*
X005283Y012364D02*
X003259Y012364D01*
X003259Y012523D02*
X005283Y012523D01*
X005283Y012682D02*
X003202Y012682D01*
X003062Y012840D02*
X005283Y012840D01*
X005283Y012999D02*
X002908Y012999D01*
X003156Y013157D02*
X005283Y013157D01*
X005283Y013316D02*
X003241Y013316D01*
X003259Y013474D02*
X005283Y013474D01*
X005283Y013633D02*
X003222Y013633D01*
X003110Y013791D02*
X005283Y013791D01*
X005763Y013791D02*
X005888Y013791D01*
X005888Y013633D02*
X005763Y013633D01*
X005763Y013474D02*
X005888Y013474D01*
X005888Y013316D02*
X005763Y013316D01*
X005763Y013157D02*
X005888Y013157D01*
X005849Y012999D02*
X005763Y012999D01*
X005763Y012840D02*
X005880Y012840D01*
X005763Y012682D02*
X007939Y012682D01*
X008014Y012840D02*
X006779Y012840D01*
X006810Y012999D02*
X008048Y012999D01*
X008030Y013003D02*
X008075Y012991D01*
X008445Y012991D01*
X008445Y013359D01*
X008501Y013359D01*
X008501Y012991D01*
X008871Y012991D01*
X008917Y013003D01*
X008958Y013027D01*
X008991Y013061D01*
X009015Y013102D01*
X009027Y013147D01*
X009027Y013359D01*
X008502Y013359D01*
X008502Y013416D01*
X009027Y013416D01*
X009027Y013628D01*
X009015Y013674D01*
X009010Y013681D01*
X009038Y013689D01*
X009079Y013712D01*
X009112Y013746D01*
X009136Y013787D01*
X009148Y013833D01*
X009148Y014133D01*
X008731Y014133D01*
X008731Y014288D01*
X009148Y014288D01*
X009148Y014589D01*
X009136Y014634D01*
X009112Y014675D01*
X009079Y014709D01*
X009038Y014733D01*
X008992Y014745D01*
X008731Y014745D01*
X008731Y014288D01*
X008576Y014288D01*
X008576Y014133D01*
X008158Y014133D01*
X008158Y013833D01*
X008171Y013787D01*
X008172Y013784D01*
X008075Y013784D01*
X008030Y013772D01*
X007989Y013748D01*
X007955Y013715D01*
X007931Y013674D01*
X007919Y013628D01*
X007919Y013416D01*
X008445Y013416D01*
X008445Y013359D01*
X007919Y013359D01*
X007919Y013147D01*
X007931Y013102D01*
X007955Y013061D01*
X007989Y013027D01*
X008030Y013003D01*
X007919Y013157D02*
X006771Y013157D01*
X006771Y013316D02*
X007919Y013316D01*
X007919Y013474D02*
X006771Y013474D01*
X006771Y013633D02*
X007920Y013633D01*
X008169Y013791D02*
X006771Y013791D01*
X006771Y013950D02*
X008158Y013950D01*
X008158Y014108D02*
X006771Y014108D01*
X006771Y014267D02*
X008576Y014267D01*
X008576Y014288D02*
X008158Y014288D01*
X008158Y014589D01*
X008171Y014634D01*
X008194Y014675D01*
X008228Y014709D01*
X008269Y014733D01*
X008315Y014745D01*
X008576Y014745D01*
X008576Y014288D01*
X008576Y014426D02*
X008731Y014426D01*
X008731Y014584D02*
X008576Y014584D01*
X008576Y014743D02*
X008731Y014743D01*
X009001Y014743D02*
X010625Y014743D01*
X010625Y014901D02*
X006771Y014901D01*
X006771Y014743D02*
X008306Y014743D01*
X008158Y014584D02*
X006771Y014584D01*
X006771Y014426D02*
X008158Y014426D01*
X008731Y014267D02*
X009281Y014267D01*
X009281Y014426D02*
X009148Y014426D01*
X009148Y014584D02*
X009281Y014584D01*
X009281Y014108D02*
X009148Y014108D01*
X009148Y013950D02*
X009281Y013950D01*
X009281Y013791D02*
X009137Y013791D01*
X009026Y013633D02*
X009396Y013633D01*
X009396Y013474D02*
X009027Y013474D01*
X009027Y013316D02*
X009396Y013316D01*
X009396Y013157D02*
X009027Y013157D01*
X008899Y012999D02*
X009690Y012999D01*
X009471Y012840D02*
X008932Y012840D01*
X009191Y012682D02*
X009396Y012682D01*
X009396Y012523D02*
X009291Y012523D01*
X009291Y012364D02*
X009396Y012364D01*
X009396Y012206D02*
X009291Y012206D01*
X009291Y012047D02*
X009388Y012047D01*
X009384Y011889D02*
X009291Y011889D01*
X009291Y011730D02*
X009494Y011730D01*
X009291Y011572D02*
X009902Y011572D01*
X009902Y011413D02*
X009291Y011413D01*
X008811Y011413D02*
X008542Y011413D01*
X008549Y011282D02*
X008403Y011282D01*
X008404Y011282D01*
X008549Y011282D01*
X008549Y011255D02*
X008811Y011255D01*
X008811Y011096D02*
X008549Y011096D01*
X008549Y011026D02*
X008404Y011026D01*
X008404Y011026D01*
X008404Y011026D01*
X008549Y011026D01*
X008549Y010938D02*
X008830Y010938D01*
X008549Y010779D02*
X009595Y010779D01*
X009716Y010779D02*
X009882Y010779D01*
X009882Y010770D02*
X010377Y010770D01*
X009882Y010770D01*
X009655Y010502D02*
X010377Y010502D01*
X010377Y010514D01*
X010377Y010258D02*
X010377Y010002D01*
X009902Y009986D02*
X009089Y009986D01*
X009089Y009828D02*
X009902Y009828D01*
X009902Y009669D02*
X009089Y009669D01*
X009089Y009511D02*
X009993Y009511D01*
X010361Y009242D02*
X010361Y007932D01*
X011351Y007932D01*
X010948Y007955D01*
X011351Y007949D01*
X012039Y007949D01*
X011525Y008242D02*
X011463Y008242D01*
X011398Y008401D02*
X011595Y008401D01*
X011525Y008718D02*
X011463Y008718D01*
X011463Y008876D02*
X011525Y008876D01*
X011525Y009035D02*
X011463Y009035D01*
X011463Y009194D02*
X011525Y009194D01*
X011525Y009352D02*
X011463Y009352D01*
X011408Y009511D02*
X011602Y009511D01*
X011799Y009669D02*
X011306Y009669D01*
X010361Y009242D02*
X008849Y009242D01*
X008849Y010514D01*
X008633Y010620D02*
X008548Y010620D01*
X008549Y010770D02*
X008404Y010770D01*
X008549Y010770D01*
X008404Y010770D02*
X008404Y010770D01*
X008404Y010770D01*
X008549Y010462D02*
X008609Y010462D01*
X008609Y010303D02*
X008529Y010303D01*
X008055Y010515D02*
X008054Y010515D01*
X008054Y010770D01*
X008055Y010770D01*
X008055Y010515D01*
X008054Y010620D02*
X008055Y010620D01*
X008054Y010770D02*
X008054Y010773D01*
X008054Y011026D01*
X008054Y011029D01*
X008054Y011281D01*
X008055Y011281D01*
X008055Y011029D01*
X008055Y011026D01*
X008054Y011026D01*
X008055Y011026D01*
X008055Y010773D01*
X008055Y010770D01*
X008054Y010770D01*
X008054Y010779D02*
X008055Y010779D01*
X008054Y010938D02*
X008055Y010938D01*
X008054Y011096D02*
X008055Y011096D01*
X008054Y011255D02*
X008055Y011255D01*
X008055Y011258D02*
X008055Y011282D01*
X008055Y011258D02*
X008648Y011258D01*
X008648Y011963D01*
X007740Y011963D01*
X007740Y013388D01*
X008473Y013388D01*
X008445Y013316D02*
X008501Y013316D01*
X008501Y013157D02*
X008445Y013157D01*
X008445Y012999D02*
X008501Y012999D01*
X009655Y012482D02*
X009655Y011963D01*
X009923Y012047D02*
X013175Y012047D01*
X013175Y011889D02*
X009927Y011889D01*
X009950Y011730D02*
X009817Y011730D01*
X008811Y011730D02*
X008482Y011730D01*
X008529Y011572D02*
X008811Y011572D01*
X009065Y010620D02*
X009402Y010620D01*
X009376Y010462D02*
X009089Y010462D01*
X009089Y010303D02*
X009459Y010303D01*
X009089Y010145D02*
X009902Y010145D01*
X010377Y010770D02*
X010377Y010770D01*
X010378Y010770D02*
X010378Y010770D01*
X008547Y010002D02*
X008547Y009343D01*
X008301Y009343D01*
X008301Y008334D01*
X007767Y008401D02*
X007678Y008401D01*
X007678Y008559D02*
X007767Y008559D01*
X007767Y008718D02*
X007678Y008718D01*
X007678Y008876D02*
X007767Y008876D01*
X007767Y009035D02*
X007678Y009035D01*
X007678Y009194D02*
X008061Y009194D01*
X008061Y009352D02*
X007678Y009352D01*
X007438Y009746D02*
X007438Y008033D01*
X006516Y008033D01*
X006516Y008005D01*
X006002Y008084D02*
X005763Y008084D01*
X005763Y008242D02*
X006002Y008242D01*
X006016Y008401D02*
X005763Y008401D01*
X005763Y008559D02*
X007198Y008559D01*
X007198Y008401D02*
X007016Y008401D01*
X007022Y008718D02*
X007198Y008718D01*
X007198Y008876D02*
X007030Y008876D01*
X007136Y009141D02*
X006516Y009141D01*
X006516Y009107D01*
X006002Y009035D02*
X005763Y009035D01*
X005763Y008876D02*
X006002Y008876D01*
X006010Y008718D02*
X005763Y008718D01*
X005763Y009194D02*
X006002Y009194D01*
X006002Y009352D02*
X005763Y009352D01*
X005763Y009511D02*
X006024Y009511D01*
X005763Y009669D02*
X006896Y009669D01*
X007136Y010002D02*
X007136Y009141D01*
X007438Y009746D02*
X008055Y009746D01*
X008055Y010002D02*
X008547Y010002D01*
X008055Y010002D02*
X007136Y010002D01*
X006067Y009828D02*
X005763Y009828D01*
X005763Y009986D02*
X006012Y009986D01*
X005283Y009986D02*
X001065Y009986D01*
X001065Y009828D02*
X001925Y009828D01*
X001792Y009669D02*
X001065Y009669D01*
X001065Y009511D02*
X001740Y009511D01*
X001743Y009352D02*
X001065Y009352D01*
X001065Y009194D02*
X001809Y009194D01*
X002003Y009035D02*
X001065Y009035D01*
X001065Y008876D02*
X002023Y008876D01*
X001815Y008718D02*
X001065Y008718D01*
X001065Y008559D02*
X001746Y008559D01*
X001740Y008401D02*
X001065Y008401D01*
X001065Y008242D02*
X001788Y008242D01*
X001917Y008084D02*
X001065Y008084D01*
X001065Y010145D02*
X001856Y010145D01*
X001763Y010303D02*
X001065Y010303D01*
X001065Y010462D02*
X001740Y010462D01*
X001772Y010620D02*
X001065Y010620D01*
X001065Y010779D02*
X001876Y010779D01*
X006128Y012971D02*
X006128Y015491D01*
X011268Y015491D01*
X011268Y014483D01*
X011529Y014584D02*
X013245Y014584D01*
X013245Y014426D02*
X012791Y014426D01*
X013245Y014743D02*
X011508Y014743D01*
X011508Y014901D02*
X011518Y014901D01*
X012081Y014901D02*
X012236Y014901D01*
X012236Y015060D02*
X012081Y015060D01*
X012236Y015218D02*
X012969Y015218D01*
X012969Y015060D02*
X012811Y015060D01*
X012799Y014901D02*
X012973Y014901D01*
X012969Y015377D02*
X012811Y015377D01*
X012811Y015535D02*
X012969Y015535D01*
X012994Y015694D02*
X012784Y015694D01*
X012983Y016011D02*
X005763Y016011D01*
X005763Y016169D02*
X012969Y016169D01*
X012969Y016328D02*
X005763Y016328D01*
X005763Y016487D02*
X012969Y016487D01*
X012969Y016645D02*
X005669Y016645D01*
X005523Y016452D02*
X002500Y016452D01*
X002061Y016011D02*
X001065Y016011D01*
X001065Y016169D02*
X001831Y016169D01*
X001753Y016328D02*
X001065Y016328D01*
X001065Y016487D02*
X001740Y016487D01*
X001782Y016645D02*
X001065Y016645D01*
X001065Y016804D02*
X001901Y016804D01*
X001065Y016962D02*
X031613Y016962D01*
X031613Y016804D02*
X031028Y016804D01*
X031275Y016645D02*
X031613Y016645D01*
X031613Y016487D02*
X031361Y016487D01*
X031379Y016328D02*
X031613Y016328D01*
X031613Y016169D02*
X031342Y016169D01*
X031230Y016011D02*
X031613Y016011D01*
X031613Y015852D02*
X029922Y015852D01*
X029922Y015694D02*
X030012Y015694D01*
X030009Y016011D02*
X029922Y016011D01*
X030619Y016330D02*
X030619Y016351D01*
X030619Y016330D02*
X028960Y016330D01*
X028704Y015660D02*
X028704Y015660D01*
X028687Y015660D01*
X028687Y015660D01*
X028704Y015660D01*
X028960Y015024D02*
X028960Y015019D01*
X028960Y015024D02*
X029911Y015024D01*
X029911Y015351D01*
X030619Y015351D01*
X030203Y014901D02*
X030120Y014901D01*
X030063Y014743D02*
X029922Y014743D01*
X029901Y014349D02*
X030619Y014349D01*
X030619Y014351D01*
X031153Y013950D02*
X031613Y013950D01*
X031613Y014108D02*
X031317Y014108D01*
X031379Y014267D02*
X031613Y014267D01*
X031613Y014426D02*
X031379Y014426D01*
X031320Y014584D02*
X031613Y014584D01*
X031613Y014743D02*
X031175Y014743D01*
X031035Y014901D02*
X031613Y014901D01*
X031613Y015060D02*
X031279Y015060D01*
X031362Y015218D02*
X031613Y015218D01*
X031613Y015377D02*
X031379Y015377D01*
X031341Y015535D02*
X031613Y015535D01*
X031613Y015694D02*
X031227Y015694D01*
X029963Y016645D02*
X017772Y016645D01*
X017756Y016804D02*
X030210Y016804D01*
X031613Y017121D02*
X001065Y017121D01*
X001065Y017279D02*
X031613Y017279D01*
X031613Y017438D02*
X001065Y017438D01*
X001065Y017596D02*
X031613Y017596D01*
X029901Y014349D02*
X029901Y013709D01*
X028960Y013709D01*
X028721Y014350D02*
X028705Y014350D01*
X028705Y014350D01*
X028721Y014350D01*
X028721Y014350D01*
X030141Y013791D02*
X030181Y013791D01*
X029813Y013351D02*
X029813Y012424D01*
X028960Y012424D01*
X028960Y012399D01*
X028704Y013040D02*
X028687Y013040D01*
X028704Y013040D01*
X028704Y013040D01*
X028687Y013040D02*
X028687Y013040D01*
X029813Y013351D02*
X030619Y013351D01*
X031058Y013791D02*
X031613Y013791D01*
X031613Y013633D02*
X031288Y013633D01*
X031366Y013474D02*
X031613Y013474D01*
X031613Y013316D02*
X031379Y013316D01*
X031337Y013157D02*
X031613Y013157D01*
X031613Y012999D02*
X031217Y012999D01*
X031613Y012840D02*
X030053Y012840D01*
X030619Y012351D02*
X029811Y011746D01*
X029811Y011099D01*
X028960Y011099D01*
X028960Y011089D01*
X028494Y010779D02*
X028160Y010779D01*
X028687Y010420D02*
X028704Y010420D01*
X028704Y010419D01*
X028687Y010419D01*
X028687Y010420D01*
X028960Y009786D02*
X028960Y009778D01*
X028960Y009786D02*
X029746Y009786D01*
X029746Y010746D01*
X030619Y011351D01*
X031123Y010938D02*
X031613Y010938D01*
X031613Y011096D02*
X031312Y011096D01*
X031377Y011255D02*
X031613Y011255D01*
X031613Y011413D02*
X031379Y011413D01*
X031326Y011572D02*
X031613Y011572D01*
X031613Y011730D02*
X031190Y011730D01*
X031613Y011889D02*
X030402Y011889D01*
X031266Y012047D02*
X031613Y012047D01*
X031613Y012206D02*
X031357Y012206D01*
X031379Y012364D02*
X031613Y012364D01*
X031613Y012523D02*
X031346Y012523D01*
X031239Y012682D02*
X031613Y012682D01*
X031613Y010779D02*
X031088Y010779D01*
X031300Y010620D02*
X031613Y010620D01*
X031613Y010462D02*
X031371Y010462D01*
X031379Y010303D02*
X031613Y010303D01*
X031613Y010145D02*
X031332Y010145D01*
X031205Y009986D02*
X031613Y009986D01*
X031613Y009828D02*
X029986Y009828D01*
X029986Y009986D02*
X030033Y009986D01*
X029987Y009669D02*
X029958Y009669D01*
X029888Y009511D02*
X029821Y009511D01*
X029821Y009352D02*
X029859Y009352D01*
X029886Y009194D02*
X029821Y009194D01*
X029821Y009035D02*
X029984Y009035D01*
X029401Y009035D02*
X029199Y009035D01*
X029199Y009194D02*
X029401Y009194D01*
X031251Y009669D02*
X031613Y009669D01*
X031613Y009511D02*
X031351Y009511D01*
X031379Y009352D02*
X031613Y009352D01*
X031613Y009194D02*
X031352Y009194D01*
X028391Y006498D02*
X023774Y006498D01*
X023774Y006340D02*
X028391Y006340D01*
X028391Y006181D02*
X023774Y006181D01*
X023774Y006023D02*
X028455Y006023D01*
X028371Y005547D02*
X024693Y005547D01*
X024411Y005547D02*
X023774Y005547D01*
X023922Y005389D02*
X024183Y005389D01*
X024105Y005230D02*
X023999Y005230D01*
X024012Y005071D02*
X024092Y005071D01*
X024092Y004913D02*
X024012Y004913D01*
X024012Y004754D02*
X024092Y004754D01*
X024092Y004596D02*
X024012Y004596D01*
X024012Y004437D02*
X024092Y004437D01*
X024149Y004279D02*
X023955Y004279D01*
X023815Y004120D02*
X024289Y004120D01*
X024815Y004120D02*
X029898Y004120D01*
X029845Y004279D02*
X024955Y004279D01*
X025012Y004437D02*
X029847Y004437D01*
X029905Y004596D02*
X025012Y004596D01*
X025012Y004754D02*
X030058Y004754D01*
X030121Y004913D02*
X029378Y004913D01*
X029440Y005071D02*
X029929Y005071D01*
X029854Y005230D02*
X029440Y005230D01*
X030038Y003962D02*
X018169Y003962D01*
X016604Y003962D02*
X016603Y003962D01*
X016603Y004120D02*
X016604Y004120D01*
X016289Y004120D02*
X016288Y004120D01*
X016288Y003962D02*
X016289Y003962D01*
X016288Y003803D02*
X016289Y003803D01*
X016288Y003645D02*
X016289Y003645D01*
X016603Y003645D02*
X016604Y003645D01*
X016603Y003803D02*
X016604Y003803D01*
X015656Y003756D02*
X015659Y003554D01*
X015656Y003756D02*
X015656Y005764D01*
X014415Y005241D02*
X014415Y005086D01*
X014163Y005086D01*
X014163Y005133D01*
X013637Y005133D01*
X013637Y005189D01*
X014163Y005189D01*
X014163Y005241D01*
X014415Y005241D01*
X014415Y005230D02*
X014163Y005230D01*
X014416Y005071D02*
X014571Y005071D01*
X014571Y004913D02*
X014416Y004913D01*
X014416Y004754D02*
X014571Y004754D01*
X013985Y004754D02*
X011509Y004754D01*
X011508Y004596D02*
X012833Y004596D01*
X012741Y004437D02*
X012134Y004437D01*
X012244Y004279D02*
X012741Y004279D01*
X012981Y004404D02*
X015098Y004404D01*
X015344Y004404D01*
X015344Y003554D01*
X015085Y003486D02*
X014795Y003486D01*
X014795Y003327D02*
X015085Y003327D01*
X015085Y003169D02*
X014795Y003169D01*
X014795Y003010D02*
X014939Y003010D01*
X014518Y002693D02*
X013629Y002693D01*
X013629Y002622D02*
X013054Y002622D01*
X013054Y003039D01*
X013473Y003039D01*
X013519Y003027D01*
X013560Y003004D01*
X013593Y002970D01*
X013617Y002929D01*
X013629Y002883D01*
X013629Y002622D01*
X013629Y002376D02*
X014431Y002376D01*
X014431Y002218D02*
X013629Y002218D01*
X013508Y002059D02*
X014494Y002059D01*
X013724Y001742D02*
X012444Y001742D01*
X012422Y001584D02*
X013688Y001584D01*
X013688Y001425D02*
X001065Y001425D01*
X001065Y001584D02*
X011593Y001584D01*
X011572Y001742D02*
X001065Y001742D01*
X001065Y001266D02*
X013688Y001266D01*
X014795Y001266D02*
X017152Y001266D01*
X017152Y001425D02*
X014795Y001425D01*
X013054Y002059D02*
X012899Y002059D01*
X012899Y002218D02*
X013054Y002218D01*
X013054Y002376D02*
X012899Y002376D01*
X013054Y002535D02*
X014452Y002535D01*
X013688Y002852D02*
X013629Y002852D01*
X013688Y003010D02*
X013548Y003010D01*
X013688Y003169D02*
X012407Y003169D01*
X012361Y003327D02*
X012338Y003327D01*
X011678Y003327D02*
X011508Y003327D01*
X011508Y003169D02*
X011608Y003169D01*
X011028Y003169D02*
X010022Y003169D01*
X010022Y003327D02*
X011028Y003327D01*
X011028Y003486D02*
X010022Y003486D01*
X009982Y003645D02*
X011028Y003645D01*
X011028Y003803D02*
X009160Y003803D01*
X009160Y003645D02*
X009230Y003645D01*
X009190Y003486D02*
X009160Y003486D01*
X009190Y003327D02*
X009077Y003327D01*
X009160Y003962D02*
X011028Y003962D01*
X011028Y004120D02*
X009218Y004120D01*
X009221Y004279D02*
X011028Y004279D01*
X011028Y004357D02*
X011028Y004357D01*
X011028Y004437D02*
X009626Y004437D01*
X009641Y004441D02*
X009682Y004465D01*
X009716Y004499D01*
X009740Y004540D01*
X009752Y004585D01*
X009752Y005004D01*
X009335Y005004D01*
X009335Y005159D01*
X009752Y005159D01*
X009752Y005578D01*
X009740Y005623D01*
X009716Y005665D01*
X009682Y005698D01*
X009641Y005722D01*
X009596Y005734D01*
X009334Y005734D01*
X009334Y005159D01*
X009179Y005159D01*
X009179Y005004D01*
X009334Y005004D01*
X009334Y004429D01*
X009596Y004429D01*
X009641Y004441D01*
X009752Y004596D02*
X009963Y004596D01*
X009963Y004754D02*
X009752Y004754D01*
X009752Y004913D02*
X009963Y004913D01*
X009963Y005071D02*
X009335Y005071D01*
X009179Y005071D02*
X008757Y005071D01*
X008762Y005159D02*
X009179Y005159D01*
X009179Y005734D01*
X008918Y005734D01*
X008873Y005722D01*
X008831Y005698D01*
X008798Y005665D01*
X008774Y005623D01*
X008762Y005578D01*
X008762Y005159D01*
X008757Y005230D02*
X008762Y005230D01*
X008757Y005389D02*
X008762Y005389D01*
X008757Y005547D02*
X008762Y005547D01*
X008757Y005706D02*
X008845Y005706D01*
X008757Y005864D02*
X011028Y005864D01*
X011028Y005706D02*
X010828Y005706D01*
X010913Y005547D02*
X011028Y005547D01*
X011028Y005389D02*
X010913Y005389D01*
X011269Y005085D02*
X010438Y005082D01*
X011268Y005082D01*
X011268Y006017D01*
X012354Y006017D01*
X012152Y006067D01*
X012152Y005161D01*
X011912Y005547D02*
X011508Y005547D01*
X011508Y005389D02*
X011618Y005389D01*
X011618Y005230D02*
X011508Y005230D01*
X011509Y005071D02*
X011618Y005071D01*
X011618Y004913D02*
X011509Y004913D01*
X011269Y005085D02*
X011268Y004404D01*
X011268Y002830D01*
X012008Y002830D01*
X011592Y002535D02*
X010022Y002535D01*
X010022Y002693D02*
X011065Y002693D01*
X011028Y002852D02*
X010022Y002852D01*
X010022Y003010D02*
X011028Y003010D01*
X011508Y003486D02*
X011592Y003486D01*
X011592Y003645D02*
X011508Y003645D01*
X011508Y003803D02*
X011592Y003803D01*
X011592Y003962D02*
X011508Y003962D01*
X011508Y004120D02*
X011654Y004120D01*
X011703Y004279D02*
X011508Y004279D01*
X011508Y004437D02*
X011813Y004437D01*
X011028Y004452D02*
X011028Y004452D01*
X011028Y004596D02*
X010913Y004596D01*
X010913Y004754D02*
X011029Y004754D01*
X009963Y005230D02*
X009752Y005230D01*
X009752Y005389D02*
X009963Y005389D01*
X009963Y005547D02*
X009752Y005547D01*
X009669Y005706D02*
X010049Y005706D01*
X010989Y006023D02*
X008757Y006023D01*
X008757Y006181D02*
X011037Y006181D01*
X011618Y006340D02*
X008757Y006340D01*
X008757Y006498D02*
X013578Y006498D01*
X013075Y006340D02*
X012686Y006340D01*
X012686Y006181D02*
X013075Y006181D01*
X013075Y006023D02*
X012686Y006023D01*
X012686Y005864D02*
X013075Y005864D01*
X013055Y005389D02*
X012686Y005389D01*
X012686Y005230D02*
X013055Y005230D01*
X013055Y005071D02*
X012686Y005071D01*
X012686Y004913D02*
X013057Y004913D01*
X013581Y004913D02*
X013637Y004913D01*
X013637Y005071D02*
X013581Y005071D01*
X012981Y004404D02*
X012981Y003726D01*
X012977Y003726D01*
X012977Y003736D01*
X012008Y003736D01*
X012899Y003010D02*
X013054Y003010D01*
X013054Y002852D02*
X012899Y002852D01*
X012899Y002693D02*
X013054Y002693D01*
X012324Y002376D02*
X010022Y002376D01*
X010022Y002218D02*
X011575Y002218D01*
X011572Y002059D02*
X010022Y002059D01*
X011960Y002059D02*
X012056Y002059D01*
X012056Y002218D02*
X011960Y002218D01*
X011960Y001742D02*
X012056Y001742D01*
X012056Y001584D02*
X011960Y001584D01*
X012444Y002059D02*
X012445Y002059D01*
X013592Y003327D02*
X013688Y003327D01*
X013688Y003486D02*
X013609Y003486D01*
X013609Y003645D02*
X013688Y003645D01*
X013688Y003803D02*
X013609Y003803D01*
X013609Y003962D02*
X013779Y003962D01*
X013596Y004120D02*
X015104Y004120D01*
X015085Y003962D02*
X014704Y003962D01*
X014795Y003803D02*
X015085Y003803D01*
X015085Y003645D02*
X014795Y003645D01*
X017516Y002376D02*
X020082Y002376D01*
X020082Y002218D02*
X017516Y002218D01*
X017453Y002059D02*
X020082Y002059D01*
X020082Y001901D02*
X017350Y001901D01*
X018223Y001742D02*
X020082Y001742D01*
X020082Y001584D02*
X018259Y001584D01*
X018259Y001425D02*
X020082Y001425D01*
X020082Y001266D02*
X018259Y001266D01*
X018312Y005389D02*
X019183Y005389D01*
X018145Y007359D02*
X018007Y007359D01*
X018007Y009351D01*
X017884Y009474D01*
X017681Y009677D01*
X017759Y009677D01*
X017761Y009674D01*
X017832Y009674D01*
X017903Y009664D01*
X017917Y009674D01*
X018352Y009674D01*
X018379Y009648D01*
X018482Y009605D01*
X018583Y009605D01*
X018590Y009588D01*
X018617Y009561D01*
X018617Y007529D01*
X018582Y007564D01*
X018479Y007607D01*
X018368Y007607D01*
X018266Y007564D01*
X018187Y007485D01*
X018145Y007383D01*
X018145Y007359D01*
X018172Y007450D02*
X018007Y007450D01*
X018007Y007608D02*
X018617Y007608D01*
X018617Y007767D02*
X018007Y007767D01*
X018007Y007925D02*
X018617Y007925D01*
X018617Y008084D02*
X018007Y008084D01*
X018007Y008242D02*
X018617Y008242D01*
X018617Y008401D02*
X018007Y008401D01*
X018007Y008559D02*
X018617Y008559D01*
X018617Y008718D02*
X018007Y008718D01*
X018007Y008876D02*
X018617Y008876D01*
X018617Y009035D02*
X018007Y009035D01*
X018007Y009194D02*
X018617Y009194D01*
X018617Y009352D02*
X018006Y009352D01*
X017884Y009474D02*
X017884Y009474D01*
X017848Y009511D02*
X018617Y009511D01*
X018357Y009669D02*
X017910Y009669D01*
X017867Y009669D02*
X017689Y009669D01*
X019541Y009352D02*
X019874Y009352D01*
X019874Y009194D02*
X019541Y009194D01*
X019541Y009035D02*
X019978Y009035D01*
X015661Y010938D02*
X014905Y010938D01*
X014905Y011096D02*
X015661Y011096D01*
X015661Y011255D02*
X014925Y011255D01*
X014905Y011413D02*
X015661Y011413D01*
X011526Y013791D02*
X011352Y013791D01*
X011184Y013791D02*
X011045Y013791D01*
X010685Y013791D02*
X010231Y013791D01*
X010464Y013633D02*
X010586Y013633D01*
X010605Y013474D02*
X010464Y013474D01*
X010464Y013316D02*
X010655Y013316D01*
X010684Y013157D02*
X010464Y013157D01*
X009958Y013416D02*
X009958Y014181D01*
X010035Y014104D01*
X012159Y014104D01*
X012182Y014080D01*
X013485Y014080D01*
X013485Y015287D01*
X013484Y015287D01*
X013999Y015218D02*
X014082Y015218D01*
X014082Y015377D02*
X013999Y015377D01*
X013999Y015535D02*
X014082Y015535D01*
X014082Y015694D02*
X013973Y015694D01*
X014082Y015852D02*
X005763Y015852D01*
X005763Y015694D02*
X005991Y015694D01*
X005888Y015535D02*
X005763Y015535D01*
X005763Y015377D02*
X005888Y015377D01*
X005888Y015218D02*
X005763Y015218D01*
X005763Y015060D02*
X005888Y015060D01*
X005888Y014901D02*
X005763Y014901D01*
X005763Y014743D02*
X005888Y014743D01*
X005888Y014584D02*
X005763Y014584D01*
X005763Y014426D02*
X005888Y014426D01*
X005888Y014267D02*
X005763Y014267D01*
X005763Y014108D02*
X005888Y014108D01*
X005888Y013950D02*
X005763Y013950D01*
X006531Y012971D02*
X006531Y015189D01*
X010865Y015189D01*
X010865Y014483D01*
X010604Y014584D02*
X010231Y014584D01*
X010231Y014426D02*
X010586Y014426D01*
X009958Y014181D02*
X009928Y014211D01*
X009756Y014211D01*
X009958Y013416D02*
X009930Y013388D01*
X009930Y012482D01*
X009655Y012482D01*
X007314Y011730D02*
X007060Y011730D01*
X007062Y011572D02*
X007260Y011572D01*
X006605Y011572D02*
X006450Y011572D01*
X006450Y011730D02*
X006605Y011730D01*
X001892Y014108D02*
X001065Y014108D01*
X001065Y014267D02*
X001778Y014267D01*
X001740Y014426D02*
X001065Y014426D01*
X001065Y014584D02*
X001756Y014584D01*
X001840Y014743D02*
X001065Y014743D01*
X001065Y014901D02*
X002083Y014901D01*
X001944Y015060D02*
X001065Y015060D01*
X001065Y015218D02*
X001798Y015218D01*
X001740Y015377D02*
X001065Y015377D01*
X001065Y015535D02*
X001740Y015535D01*
X001802Y015694D02*
X001065Y015694D01*
X001065Y015852D02*
X001965Y015852D01*
X003098Y016804D02*
X012985Y016804D01*
X013586Y016600D02*
X013586Y016407D01*
X013484Y016407D01*
X013586Y016600D02*
X015098Y016600D01*
X015098Y016571D01*
X015312Y016571D02*
X017312Y016571D01*
X016879Y016328D02*
X015745Y016328D01*
X014879Y016328D02*
X014502Y016328D01*
X014082Y016328D02*
X013999Y016328D01*
X013999Y016169D02*
X014082Y016169D01*
X014082Y016011D02*
X013984Y016011D01*
X014502Y015852D02*
X018659Y015852D01*
X018659Y015694D02*
X018814Y015694D01*
X018814Y015535D02*
X018659Y015535D01*
X018659Y015377D02*
X018814Y015377D01*
X019201Y015377D02*
X019235Y015410D01*
X019259Y015451D01*
X019260Y015457D01*
X019338Y015379D01*
X020181Y015379D01*
X018202Y015694D02*
X014502Y015694D01*
X014019Y015060D02*
X013999Y015060D01*
X013994Y014901D02*
X014025Y014901D01*
X014152Y014743D02*
X013725Y014743D01*
X013485Y014080D02*
X015904Y014080D01*
X012236Y015377D02*
X012081Y015377D01*
X012081Y015535D02*
X012236Y015535D01*
X012236Y015694D02*
X012081Y015694D01*
X011533Y015694D02*
X011405Y015694D01*
X022277Y016169D02*
X022432Y016169D01*
X022432Y016328D02*
X022277Y016328D01*
X022875Y016328D02*
X025010Y016328D01*
X011525Y007608D02*
X011463Y007608D01*
X010433Y007608D02*
X010371Y007608D01*
X009837Y008334D02*
X009837Y008335D01*
X009151Y008335D01*
X008888Y008242D02*
X008835Y008242D01*
X008835Y008084D02*
X009028Y008084D01*
X009275Y008084D02*
X009303Y008084D01*
X009303Y007925D02*
X008835Y007925D01*
X008835Y007767D02*
X009303Y007767D01*
X009303Y007608D02*
X008835Y007608D01*
X007767Y007608D02*
X007015Y007608D01*
X007030Y007767D02*
X007767Y007767D01*
X007767Y007925D02*
X007653Y007925D01*
X007678Y008084D02*
X007767Y008084D01*
X007767Y008242D02*
X007678Y008242D01*
X008835Y008401D02*
X008876Y008401D01*
X008835Y008559D02*
X008981Y008559D01*
X008835Y008718D02*
X009303Y008718D01*
X009303Y008876D02*
X008835Y008876D01*
X007810Y007291D02*
X005763Y007291D01*
X005763Y007133D02*
X007732Y007133D01*
X007732Y006974D02*
X005763Y006974D01*
X005763Y006815D02*
X007732Y006815D01*
X007732Y006657D02*
X005763Y006657D01*
X005763Y006498D02*
X007732Y006498D01*
X007732Y006340D02*
X005763Y006340D01*
X007654Y005547D02*
X007732Y005547D01*
X007732Y005389D02*
X007688Y005389D01*
X007688Y005230D02*
X007732Y005230D01*
X007732Y005071D02*
X007640Y005071D01*
X008757Y004913D02*
X008762Y004913D01*
X008757Y004754D02*
X008762Y004754D01*
X008757Y004596D02*
X008762Y004596D01*
X008757Y004437D02*
X008789Y004437D01*
X009179Y004437D02*
X009334Y004437D01*
X009334Y004596D02*
X009179Y004596D01*
X009179Y004754D02*
X009334Y004754D01*
X009334Y004913D02*
X009179Y004913D01*
X009179Y005230D02*
X009334Y005230D01*
X009334Y005389D02*
X009179Y005389D01*
X009179Y005547D02*
X009334Y005547D01*
X009334Y005706D02*
X009179Y005706D01*
X011508Y005706D02*
X011696Y005706D01*
X005801Y002693D02*
X005668Y002693D01*
X005668Y002535D02*
X005801Y002535D01*
X030687Y002535D02*
X031613Y002535D01*
X031613Y002693D02*
X030687Y002693D01*
X030687Y002852D02*
X031613Y002852D01*
X031613Y003010D02*
X030687Y003010D01*
X030687Y003169D02*
X031613Y003169D01*
X031613Y003327D02*
X030687Y003327D01*
X030687Y003486D02*
X031613Y003486D01*
X031613Y003645D02*
X030687Y003645D01*
X030687Y002376D02*
X031613Y002376D01*
X031613Y002218D02*
X030687Y002218D01*
X030687Y002059D02*
X031613Y002059D01*
X031613Y001901D02*
X030687Y001901D01*
X030687Y001742D02*
X031613Y001742D01*
X031613Y001584D02*
X030687Y001584D01*
X030687Y001425D02*
X031613Y001425D01*
X031613Y001266D02*
X030687Y001266D01*
D33*
X023564Y004808D02*
X023564Y006420D01*
X018827Y006420D01*
X018827Y009746D01*
X018537Y009884D02*
X017848Y009884D01*
X017836Y009886D01*
X018323Y010250D02*
X018323Y010280D01*
X017836Y010280D01*
X017836Y010452D02*
X017836Y010477D01*
X018525Y010477D01*
X018525Y010452D01*
X018726Y010653D02*
X018726Y010674D01*
X017836Y010674D01*
X017836Y010666D01*
X016711Y010666D01*
X016711Y011258D01*
X016207Y011258D01*
X016912Y011460D02*
X017836Y011460D01*
X017836Y011461D01*
X017836Y011264D02*
X019331Y011264D01*
X019331Y007730D01*
X022568Y007730D01*
X022568Y008939D01*
X023068Y008939D02*
X023068Y010754D01*
X026084Y010754D01*
X026084Y015660D01*
X028448Y015660D01*
X028696Y015660D02*
X028696Y015411D01*
X026798Y015411D01*
X026798Y014636D01*
X028704Y014636D01*
X028704Y014350D01*
X028709Y014350D01*
X028709Y014086D01*
X026890Y014086D01*
X026890Y013878D01*
X026890Y013274D01*
X028704Y013274D01*
X028704Y013040D01*
X028696Y013040D01*
X028696Y012786D01*
X027394Y012786D01*
X027394Y011963D01*
X028704Y011963D01*
X028704Y011730D01*
X028709Y011730D01*
X028709Y011461D01*
X027394Y011461D01*
X027394Y010653D01*
X028704Y010653D01*
X028704Y010419D01*
X028696Y010419D01*
X028696Y010161D01*
X028200Y010161D01*
X028448Y010419D02*
X027293Y010419D01*
X027293Y009545D01*
X025068Y009545D01*
X025068Y008939D01*
X025568Y008939D02*
X025568Y009109D01*
X028448Y009109D01*
X028704Y009109D02*
X028704Y009343D01*
X029208Y009343D01*
X029208Y009242D01*
X028960Y009109D02*
X028957Y009097D01*
X028957Y007012D01*
X019129Y007025D01*
X019129Y010867D01*
X017836Y010867D01*
X017836Y010871D01*
X017836Y011056D02*
X017836Y011067D01*
X017836Y011056D02*
X018827Y011056D01*
X019633Y011661D02*
X021649Y011661D01*
X021649Y012367D01*
X021246Y012669D02*
X021246Y011863D01*
X019432Y011863D01*
X019230Y012064D02*
X020944Y012064D01*
X020540Y012367D02*
X017819Y012367D01*
X017819Y012064D01*
X017836Y012064D01*
X017836Y012052D01*
X017836Y011863D02*
X017836Y011855D01*
X017836Y011863D02*
X018323Y011863D01*
X017836Y011661D02*
X017836Y011658D01*
X017836Y011661D02*
X017214Y011661D01*
X016446Y012186D02*
X016446Y012662D01*
X016438Y012662D01*
X016446Y012662D02*
X016446Y013399D01*
X016408Y013399D01*
X016408Y013576D01*
X016034Y013837D02*
X020641Y013837D01*
X020641Y013778D01*
X020339Y013274D02*
X016635Y013274D01*
X016635Y012662D01*
X016832Y012662D02*
X016832Y013072D01*
X019734Y013072D01*
X019835Y013072D01*
X020843Y013072D01*
X020137Y012669D02*
X017226Y012669D01*
X017226Y012662D01*
X016044Y012662D02*
X016034Y012662D01*
X016034Y013837D01*
X015904Y014080D02*
X015859Y014080D01*
X015859Y012499D01*
X015871Y012499D01*
X015871Y010674D01*
X016698Y009847D01*
X016711Y009847D01*
X015904Y010653D01*
X015871Y010674D02*
X014450Y010674D01*
X014450Y010477D02*
X014450Y010477D01*
X014014Y010477D01*
X013989Y010280D02*
X013989Y008738D01*
X015257Y009276D02*
X015271Y009276D01*
X015271Y007536D01*
X015098Y007536D01*
X015098Y004404D01*
X014493Y005614D02*
X014493Y006266D01*
X013788Y006118D02*
X013609Y006118D01*
X013609Y006067D01*
X013788Y006118D02*
X013788Y011067D01*
X014450Y011067D01*
X014450Y011264D02*
X015199Y011264D01*
X015199Y010956D01*
X014450Y010280D02*
X013989Y010280D01*
X014287Y009889D02*
X014450Y009886D01*
X014287Y009889D02*
X014292Y009645D01*
X015848Y009276D02*
X015848Y008682D01*
X015803Y008637D01*
X016234Y009276D02*
X016234Y007911D01*
X015656Y007911D01*
X015656Y006883D01*
X016743Y006887D02*
X016743Y007911D01*
X016446Y007911D01*
X016446Y009276D01*
X016438Y009276D01*
X016241Y009276D02*
X016234Y009276D01*
X016711Y009847D02*
X017214Y009847D01*
X017797Y009264D01*
X017797Y006885D01*
X018424Y007327D02*
X018424Y005916D01*
X022556Y005916D01*
X022556Y004808D01*
X022552Y004808D01*
X023552Y004808D02*
X023564Y004808D01*
X028906Y006467D02*
X030619Y006467D01*
X030619Y006351D01*
X030619Y007327D01*
X030619Y007351D01*
X030619Y007327D02*
X029611Y007327D01*
X029611Y009545D01*
X028704Y009545D01*
X028704Y009778D01*
X028704Y010011D01*
X029511Y010011D01*
X029511Y010855D01*
X028704Y010855D01*
X028704Y011089D01*
X028704Y011321D01*
X029511Y011321D01*
X029511Y012165D01*
X028704Y012165D01*
X028704Y012399D01*
X028704Y012631D01*
X029611Y012631D01*
X029611Y013475D01*
X028704Y013475D01*
X028704Y013709D01*
X028704Y013954D01*
X029712Y013954D01*
X029712Y014786D01*
X028704Y014786D01*
X028704Y015019D01*
X028704Y015252D01*
X029712Y015252D01*
X029712Y016096D01*
X028704Y016096D01*
X025076Y016096D01*
X027999Y016297D02*
X027999Y016330D01*
X028448Y016330D01*
X028704Y016330D02*
X028704Y016096D01*
X028704Y015920D02*
X028100Y015920D01*
X028704Y015920D02*
X028704Y015660D01*
X028696Y015660D01*
X028960Y015660D02*
X029309Y015660D01*
X029309Y015693D01*
X028448Y015019D02*
X027999Y015019D01*
X027999Y014987D01*
X028448Y014350D02*
X026386Y014350D01*
X026386Y010452D01*
X023568Y010452D01*
X023568Y008939D01*
X024068Y008939D02*
X024068Y010149D01*
X026689Y010149D01*
X026689Y013040D01*
X028448Y013040D01*
X028960Y013040D02*
X029208Y013040D01*
X029208Y012971D01*
X028448Y012399D02*
X028100Y012399D01*
X028100Y012367D01*
X028448Y011730D02*
X026991Y011730D01*
X026991Y009847D01*
X024568Y009847D01*
X024568Y008939D01*
X028100Y009778D02*
X028100Y009847D01*
X028100Y009778D02*
X028448Y009778D01*
X028200Y009381D02*
X028704Y009381D01*
X028704Y009343D01*
X029309Y010250D02*
X029107Y010419D01*
X028960Y010419D01*
X028448Y011089D02*
X028100Y011089D01*
X028100Y011056D01*
X028960Y011730D02*
X029171Y011730D01*
X029171Y011686D01*
X029173Y011561D01*
X025781Y012467D02*
X025076Y012467D01*
X025076Y011359D01*
X025068Y011359D01*
X024568Y011359D02*
X024568Y012971D01*
X024572Y012971D01*
X024068Y012669D02*
X024068Y011359D01*
X023568Y011359D02*
X023564Y011363D01*
X023564Y012367D01*
X023068Y012064D02*
X023068Y011359D01*
X023060Y012064D02*
X023068Y012064D01*
X028100Y013677D02*
X028100Y013709D01*
X028448Y013709D01*
X029309Y014181D02*
X029309Y014350D01*
X028960Y014350D01*
X017836Y010452D02*
X016509Y010452D01*
X014450Y011658D02*
X014450Y011661D01*
X013788Y011661D01*
X013586Y011661D01*
X013586Y006823D01*
X013385Y006723D02*
X013385Y012669D01*
X015060Y012669D01*
X015060Y012662D01*
X015257Y012662D02*
X015259Y012662D01*
X015259Y013274D01*
X010865Y013274D01*
X010865Y013576D01*
X011268Y013576D02*
X011268Y013524D01*
X015446Y013524D01*
X015446Y012662D01*
X015454Y012662D01*
X015848Y012662D02*
X015871Y012662D01*
X015871Y012499D01*
X013788Y011963D02*
X013788Y011661D01*
X013183Y011560D02*
X013183Y011538D01*
X013183Y006924D01*
X008244Y006924D01*
X008244Y004316D01*
X007128Y004316D01*
X007128Y003816D02*
X008547Y003816D01*
X008547Y006723D01*
X013385Y006723D01*
X012981Y007126D02*
X012981Y011258D01*
X012981Y011282D01*
X010377Y011282D01*
X010377Y011538D02*
X013183Y011538D01*
X017226Y009276D02*
X017226Y008940D01*
X017227Y008234D01*
X012981Y007126D02*
X007942Y007126D01*
X007942Y004816D01*
X007128Y004816D01*
X007128Y005316D02*
X006329Y005316D01*
X006329Y003497D01*
X006329Y002893D01*
X006276Y002893D01*
X006329Y003497D02*
X008950Y003497D01*
X008950Y004203D01*
X011974Y004203D02*
X012008Y004203D01*
X012008Y003736D01*
X012175Y005614D02*
X014493Y005614D01*
X012354Y006017D02*
X012175Y006017D01*
X012175Y005614D01*
X008055Y011538D02*
X008032Y011560D01*
X007539Y011560D01*
X014292Y014987D02*
X014292Y016571D01*
X015098Y016571D01*
X015312Y016571D01*
D34*
X014292Y014987D03*
X011268Y014483D03*
X010865Y014483D03*
X010865Y013576D03*
X011268Y013524D03*
X009655Y011963D03*
X007539Y011560D03*
X009655Y010502D03*
X012981Y011258D03*
X013183Y011560D03*
X013788Y011963D03*
X015199Y010956D03*
X016207Y011258D03*
X016912Y011460D03*
X017214Y011661D03*
X016421Y012199D03*
X018323Y011863D03*
X019230Y012064D03*
X019432Y011863D03*
X019633Y011661D03*
X018827Y011056D03*
X018726Y010653D03*
X018525Y010452D03*
X018323Y010250D03*
X018537Y009884D03*
X018827Y009746D03*
X018323Y008940D03*
X017227Y008234D03*
X015803Y008637D03*
X014292Y009645D03*
X013989Y008738D03*
X014014Y010477D03*
X016509Y010452D03*
X019633Y008940D03*
X020037Y008940D03*
X018424Y007327D03*
X013586Y006823D03*
X011268Y006017D03*
X011974Y004203D03*
X008950Y004203D03*
X009151Y008335D03*
X006531Y012971D03*
X006128Y012971D03*
X019835Y013072D03*
X020339Y013274D03*
X020843Y013072D03*
X021246Y012669D03*
X021649Y012367D03*
X020944Y012064D03*
X020540Y012367D03*
X020137Y012669D03*
X020641Y013778D03*
X023060Y012064D03*
X023564Y012367D03*
X024068Y012669D03*
X024572Y012971D03*
X025681Y013475D03*
X025681Y013878D03*
X026890Y013878D03*
X026890Y013475D03*
X028100Y013677D03*
X029309Y014181D03*
X027999Y014987D03*
X029309Y015693D03*
X027999Y016297D03*
X029208Y012971D03*
X028100Y012367D03*
X029173Y011561D03*
X028100Y011056D03*
X029309Y010250D03*
X028100Y009847D03*
X028200Y007428D03*
X027293Y007428D03*
X026285Y007428D03*
M02*
