G75*
G70*
%OFA0B0*%
%FSLAX24Y24*%
%IPPOS*%
%LPD*%
%AMOC8*
5,1,8,0,0,1.08239X$1,22.5*
%
%ADD10R,0.0671X0.0178*%
%ADD11R,0.0178X0.0671*%
%ADD12R,0.0867X0.1025*%
%ADD13R,0.0277X0.0989*%
%ADD14C,0.0474*%
%ADD15R,0.0790X0.0710*%
%ADD16R,0.1025X0.0710*%
%ADD17R,0.0710X0.0237*%
%ADD18R,0.0592X0.0592*%
%ADD19R,0.0592X0.1497*%
%ADD20R,0.0789X0.0710*%
%ADD21R,0.0710X0.1025*%
%ADD22R,0.0671X0.0671*%
%ADD23R,0.0680X0.0380*%
%ADD24R,0.0828X0.1419*%
%ADD25R,0.0828X0.0513*%
%ADD26R,0.0710X0.0789*%
%ADD27R,0.0880X0.0340*%
%ADD28R,0.0237X0.0356*%
%ADD29C,0.0680*%
%ADD30R,0.0340X0.0880*%
%ADD31C,0.0319*%
D10*
X014450Y009886D03*
X014450Y010083D03*
X014450Y010280D03*
X014450Y010477D03*
X014450Y010674D03*
X014450Y010871D03*
X014450Y011067D03*
X014450Y011264D03*
X014450Y011461D03*
X014450Y011658D03*
X014450Y011855D03*
X014450Y012052D03*
X017836Y012052D03*
X017836Y011855D03*
X017836Y011658D03*
X017836Y011461D03*
X017836Y011264D03*
X017836Y011067D03*
X017836Y010871D03*
X017836Y010674D03*
X017836Y010477D03*
X017836Y010280D03*
X017836Y010083D03*
X017836Y009886D03*
D11*
X017226Y009276D03*
X017029Y009276D03*
X016832Y009276D03*
X016635Y009276D03*
X016438Y009276D03*
X016241Y009276D03*
X016044Y009276D03*
X015848Y009276D03*
X015651Y009276D03*
X015454Y009276D03*
X015257Y009276D03*
X015060Y009276D03*
X015060Y012662D03*
X015257Y012662D03*
X015454Y012662D03*
X015651Y012662D03*
X015848Y012662D03*
X016044Y012662D03*
X016241Y012662D03*
X016438Y012662D03*
X016635Y012662D03*
X016832Y012662D03*
X017029Y012662D03*
X017226Y012662D03*
D12*
X017706Y003332D03*
X017706Y001167D03*
X014241Y001167D03*
X014241Y003332D03*
D13*
X015344Y003554D03*
X015659Y003554D03*
X015974Y003554D03*
X016289Y003554D03*
X016603Y003554D03*
D14*
X016840Y002348D03*
X015107Y002348D03*
D15*
X015656Y005764D03*
X016743Y005767D03*
X017797Y005765D03*
X017797Y006885D03*
X016743Y006887D03*
X015656Y006883D03*
X010948Y007955D03*
X010948Y009074D03*
X006527Y010264D03*
X006527Y011384D03*
X013484Y015287D03*
X013484Y016407D03*
X019759Y015854D03*
X019759Y014734D03*
D16*
X020526Y010695D03*
X020526Y009514D03*
X012159Y014104D03*
X012159Y015285D03*
X012977Y003726D03*
X012977Y002545D03*
D17*
X010377Y009746D03*
X010377Y010002D03*
X010377Y010258D03*
X010377Y010514D03*
X010377Y010770D03*
X010377Y011026D03*
X010377Y011282D03*
X010377Y011538D03*
X008055Y011538D03*
X008055Y011282D03*
X008055Y011026D03*
X008055Y010770D03*
X008055Y010514D03*
X008055Y010258D03*
X008055Y010002D03*
X008055Y009746D03*
D18*
X012008Y003736D03*
X012008Y002830D03*
X012008Y001925D03*
D19*
X009606Y002830D03*
D20*
X014493Y005163D03*
X014493Y006266D03*
X012039Y007949D03*
X012039Y009052D03*
X006516Y009107D03*
X006516Y008005D03*
X018737Y014734D03*
X018737Y015836D03*
X022355Y015941D03*
X022355Y014839D03*
X021649Y010600D03*
X021649Y009497D03*
X028906Y006467D03*
X028906Y005365D03*
D21*
X010438Y005082D03*
X009257Y005082D03*
D22*
X021138Y014660D03*
X021138Y016038D03*
D23*
X017312Y016571D03*
X015312Y016571D03*
X015312Y015071D03*
X017312Y015071D03*
D24*
X009837Y008334D03*
X008301Y008334D03*
D25*
X012152Y006067D03*
X012152Y005161D03*
X013609Y005161D03*
X013609Y006067D03*
X009930Y012482D03*
X008473Y012482D03*
X008473Y013388D03*
X009930Y013388D03*
D26*
X005174Y002893D03*
X006276Y002893D03*
X008653Y014211D03*
X009756Y014211D03*
D27*
X007128Y005316D03*
X007128Y004816D03*
X007128Y004316D03*
X007128Y003816D03*
X004708Y003816D03*
X004708Y004316D03*
X004708Y004816D03*
X004708Y005316D03*
D28*
X028448Y009109D03*
X028704Y009109D03*
X028960Y009109D03*
X028960Y009778D03*
X028704Y009778D03*
X028448Y009778D03*
X028448Y010419D03*
X028704Y010419D03*
X028960Y010419D03*
X028960Y011089D03*
X028704Y011089D03*
X028448Y011089D03*
X028448Y011730D03*
X028704Y011730D03*
X028960Y011730D03*
X028960Y012399D03*
X028704Y012399D03*
X028448Y012399D03*
X028448Y013040D03*
X028704Y013040D03*
X028960Y013040D03*
X028960Y013709D03*
X028704Y013709D03*
X028448Y013709D03*
X028448Y014350D03*
X028704Y014350D03*
X028960Y014350D03*
X028960Y015019D03*
X028704Y015019D03*
X028448Y015019D03*
X028448Y015660D03*
X028704Y015660D03*
X028960Y015660D03*
X028960Y016330D03*
X028704Y016330D03*
X028448Y016330D03*
D29*
X030319Y016351D02*
X030919Y016351D01*
X030919Y015351D02*
X030319Y015351D01*
X030319Y014351D02*
X030919Y014351D01*
X030919Y013351D02*
X030319Y013351D01*
X030319Y012351D02*
X030919Y012351D01*
X030919Y011351D02*
X030319Y011351D01*
X030319Y010351D02*
X030919Y010351D01*
X030919Y009351D02*
X030319Y009351D01*
X030319Y008351D02*
X030919Y008351D01*
X030919Y007351D02*
X030319Y007351D01*
X030319Y006351D02*
X030919Y006351D01*
X030919Y005351D02*
X030319Y005351D01*
X030319Y004351D02*
X030919Y004351D01*
X024552Y004508D02*
X024552Y005108D01*
X023552Y005108D02*
X023552Y004508D01*
X022552Y004508D02*
X022552Y005108D01*
X021552Y005108D02*
X021552Y004508D01*
X020552Y004508D02*
X020552Y005108D01*
X019552Y005108D02*
X019552Y004508D01*
X002800Y004452D02*
X002200Y004452D01*
X002200Y005452D02*
X002800Y005452D01*
X002800Y006452D02*
X002200Y006452D01*
X002200Y007452D02*
X002800Y007452D01*
X002800Y008452D02*
X002200Y008452D01*
X002200Y009452D02*
X002800Y009452D01*
X002800Y010452D02*
X002200Y010452D01*
X002200Y011452D02*
X002800Y011452D01*
X002800Y012452D02*
X002200Y012452D01*
X002200Y013452D02*
X002800Y013452D01*
X002800Y014452D02*
X002200Y014452D01*
X002200Y015452D02*
X002800Y015452D01*
X002800Y016452D02*
X002200Y016452D01*
D30*
X022568Y011359D03*
X023068Y011359D03*
X023568Y011359D03*
X024068Y011359D03*
X024568Y011359D03*
X025068Y011359D03*
X025568Y011359D03*
X025568Y008939D03*
X025068Y008939D03*
X024568Y008939D03*
X024068Y008939D03*
X023568Y008939D03*
X023068Y008939D03*
X022568Y008939D03*
D31*
X020037Y008940D03*
X019633Y008940D03*
X018827Y009746D03*
X018537Y009884D03*
X018323Y010250D03*
X018525Y010452D03*
X018726Y010653D03*
X018827Y011056D03*
X019633Y011661D03*
X019432Y011863D03*
X019230Y012064D03*
X018323Y011863D03*
X017214Y011661D03*
X016912Y011460D03*
X016207Y011258D03*
X015199Y010956D03*
X014014Y010477D03*
X012981Y011258D03*
X013183Y011560D03*
X013788Y011963D03*
X016421Y012199D03*
X016509Y010452D03*
X014292Y009645D03*
X013989Y008738D03*
X015803Y008637D03*
X017227Y008234D03*
X018323Y008940D03*
X018424Y007327D03*
X013586Y006823D03*
X011268Y006017D03*
X011974Y004203D03*
X008950Y004203D03*
X009151Y008335D03*
X009655Y010502D03*
X007539Y011560D03*
X009655Y011963D03*
X010865Y013576D03*
X011268Y013524D03*
X011268Y014483D03*
X010865Y014483D03*
X014292Y014987D03*
X019835Y013072D03*
X020339Y013274D03*
X020843Y013072D03*
X021246Y012669D03*
X021649Y012367D03*
X020944Y012064D03*
X020540Y012367D03*
X020137Y012669D03*
X020641Y013778D03*
X023060Y012064D03*
X023564Y012367D03*
X024068Y012669D03*
X024572Y012971D03*
X025681Y013475D03*
X025681Y013878D03*
X026890Y013878D03*
X026890Y013475D03*
X028100Y013677D03*
X029309Y014181D03*
X027999Y014987D03*
X029309Y015693D03*
X027999Y016297D03*
X029208Y012971D03*
X028100Y012367D03*
X029173Y011561D03*
X028100Y011056D03*
X029309Y010250D03*
X028100Y009847D03*
X028200Y007428D03*
X027293Y007428D03*
X026285Y007428D03*
X006531Y012971D03*
X006128Y012971D03*
M02*
