G75*
G70*
%OFA0B0*%
%FSLAX24Y24*%
%IPPOS*%
%LPD*%
%AMOC8*
5,1,8,0,0,1.08239X$1,22.5*
%
%ADD10C,0.0600*%
%ADD11C,0.0100*%
%ADD12C,0.0239*%
%ADD13C,0.0160*%
D10*
X002200Y004452D02*
X002800Y004452D01*
X002800Y005452D02*
X002200Y005452D01*
X002200Y006452D02*
X002800Y006452D01*
X002800Y007452D02*
X002200Y007452D01*
X002200Y008452D02*
X002800Y008452D01*
X002800Y009452D02*
X002200Y009452D01*
X002200Y010452D02*
X002800Y010452D01*
X002800Y011452D02*
X002200Y011452D01*
X002200Y012452D02*
X002800Y012452D01*
X002800Y013452D02*
X002200Y013452D01*
X002200Y014452D02*
X002800Y014452D01*
X002800Y015452D02*
X002200Y015452D01*
X002200Y016452D02*
X002800Y016452D01*
X019552Y005108D02*
X019552Y004508D01*
X020552Y004508D02*
X020552Y005108D01*
X021552Y005108D02*
X021552Y004508D01*
X022552Y004508D02*
X022552Y005108D01*
X023552Y005108D02*
X023552Y004508D01*
X024552Y004508D02*
X024552Y005108D01*
X030319Y005351D02*
X030919Y005351D01*
X030919Y006351D02*
X030319Y006351D01*
X030319Y007351D02*
X030919Y007351D01*
X030919Y008351D02*
X030319Y008351D01*
X030319Y009351D02*
X030919Y009351D01*
X030919Y010351D02*
X030319Y010351D01*
X030319Y011351D02*
X030919Y011351D01*
X030919Y012351D02*
X030319Y012351D01*
X030319Y013351D02*
X030919Y013351D01*
X030919Y014351D02*
X030319Y014351D01*
X030319Y015351D02*
X030919Y015351D01*
X030919Y016351D02*
X030319Y016351D01*
X030319Y004351D02*
X030919Y004351D01*
D11*
X001035Y001125D02*
X001035Y017699D01*
X031643Y017699D01*
X031643Y001125D01*
X001035Y001125D01*
X001035Y001164D02*
X031643Y001164D01*
X031643Y001262D02*
X001035Y001262D01*
X001035Y001361D02*
X031643Y001361D01*
X031643Y001459D02*
X001035Y001459D01*
X001035Y001558D02*
X031643Y001558D01*
X031643Y001656D02*
X001035Y001656D01*
X001035Y001755D02*
X014849Y001755D01*
X014741Y001799D02*
X014979Y001701D01*
X015236Y001701D01*
X015474Y001799D01*
X015656Y001981D01*
X015754Y002219D01*
X015754Y002476D01*
X015656Y002714D01*
X015474Y002896D01*
X015236Y002995D01*
X014979Y002995D01*
X014741Y002896D01*
X014559Y002714D01*
X014461Y002476D01*
X014461Y002219D01*
X014559Y001981D01*
X014741Y001799D01*
X014687Y001853D02*
X001035Y001853D01*
X001035Y001952D02*
X014588Y001952D01*
X014530Y002050D02*
X001035Y002050D01*
X001035Y002149D02*
X014490Y002149D01*
X014461Y002247D02*
X001035Y002247D01*
X001035Y002346D02*
X014461Y002346D01*
X014461Y002445D02*
X001035Y002445D01*
X001035Y002543D02*
X014488Y002543D01*
X014529Y002642D02*
X001035Y002642D01*
X001035Y002740D02*
X014585Y002740D01*
X014684Y002839D02*
X001035Y002839D01*
X001035Y002937D02*
X014841Y002937D01*
X015374Y002937D02*
X016573Y002937D01*
X016473Y002896D02*
X016291Y002714D01*
X016193Y002476D01*
X016193Y002219D01*
X016291Y001981D01*
X016473Y001799D01*
X016711Y001701D01*
X016968Y001701D01*
X017206Y001799D01*
X017388Y001981D01*
X017486Y002219D01*
X017486Y002476D01*
X017388Y002714D01*
X017206Y002896D01*
X016968Y002995D01*
X016711Y002995D01*
X016473Y002896D01*
X016416Y002839D02*
X015531Y002839D01*
X015630Y002740D02*
X016317Y002740D01*
X016261Y002642D02*
X015686Y002642D01*
X015727Y002543D02*
X016221Y002543D01*
X016193Y002445D02*
X015754Y002445D01*
X015754Y002346D02*
X016193Y002346D01*
X016193Y002247D02*
X015754Y002247D01*
X015725Y002149D02*
X016222Y002149D01*
X016263Y002050D02*
X015684Y002050D01*
X015626Y001952D02*
X016321Y001952D01*
X016419Y001853D02*
X015528Y001853D01*
X015366Y001755D02*
X016581Y001755D01*
X017098Y001755D02*
X031643Y001755D01*
X031643Y001853D02*
X017260Y001853D01*
X017359Y001952D02*
X031643Y001952D01*
X031643Y002050D02*
X017417Y002050D01*
X017457Y002149D02*
X031643Y002149D01*
X031643Y002247D02*
X017486Y002247D01*
X017486Y002346D02*
X031643Y002346D01*
X031643Y002445D02*
X017486Y002445D01*
X017459Y002543D02*
X031643Y002543D01*
X031643Y002642D02*
X017418Y002642D01*
X017362Y002740D02*
X031643Y002740D01*
X031643Y002839D02*
X017263Y002839D01*
X017107Y002937D02*
X031643Y002937D01*
X031643Y003036D02*
X001035Y003036D01*
X001035Y003134D02*
X031643Y003134D01*
X031643Y003233D02*
X001035Y003233D01*
X001035Y003331D02*
X031643Y003331D01*
X031643Y003430D02*
X001035Y003430D01*
X001035Y003529D02*
X031643Y003529D01*
X031643Y003627D02*
X001035Y003627D01*
X001035Y003726D02*
X031643Y003726D01*
X031643Y003824D02*
X001035Y003824D01*
X001035Y003923D02*
X030181Y003923D01*
X030214Y003912D02*
X030284Y003901D01*
X030569Y003901D01*
X030569Y004301D01*
X029871Y004301D01*
X029880Y004245D01*
X029902Y004178D01*
X029934Y004115D01*
X029976Y004058D01*
X030026Y004008D01*
X030083Y003966D01*
X030146Y003934D01*
X030214Y003912D01*
X030012Y004021D02*
X012145Y004021D01*
X012115Y003991D02*
X012185Y004062D01*
X012223Y004153D01*
X012223Y004252D01*
X012185Y004344D01*
X012115Y004414D01*
X012023Y004452D01*
X011924Y004452D01*
X011832Y004414D01*
X011801Y004383D01*
X009123Y004383D01*
X009091Y004414D01*
X009000Y004452D01*
X008900Y004452D01*
X008809Y004414D01*
X008739Y004344D01*
X008701Y004252D01*
X008701Y004153D01*
X008739Y004062D01*
X008809Y003991D01*
X008900Y003953D01*
X009000Y003953D01*
X009091Y003991D01*
X009123Y004023D01*
X011801Y004023D01*
X011832Y003991D01*
X011924Y003953D01*
X012023Y003953D01*
X012115Y003991D01*
X012209Y004120D02*
X019365Y004120D01*
X019309Y004143D02*
X019467Y004078D01*
X019638Y004078D01*
X019796Y004143D01*
X019917Y004264D01*
X019982Y004422D01*
X019982Y005193D01*
X019917Y005351D01*
X019796Y005472D01*
X019638Y005538D01*
X019467Y005538D01*
X019309Y005472D01*
X019188Y005351D01*
X019122Y005193D01*
X019122Y004422D01*
X019188Y004264D01*
X019309Y004143D01*
X019233Y004218D02*
X012223Y004218D01*
X012196Y004317D02*
X019166Y004317D01*
X019125Y004415D02*
X012112Y004415D01*
X011974Y004203D02*
X008950Y004203D01*
X009121Y004021D02*
X011802Y004021D01*
X011835Y004415D02*
X009088Y004415D01*
X008812Y004415D02*
X002550Y004415D01*
X002550Y004402D02*
X002550Y004502D01*
X003247Y004502D01*
X003238Y004557D01*
X003217Y004624D01*
X003184Y004687D01*
X003143Y004745D01*
X003093Y004795D01*
X003035Y004836D01*
X002972Y004869D01*
X002905Y004891D01*
X002835Y004902D01*
X002549Y004902D01*
X002549Y004502D01*
X002450Y004502D01*
X002450Y004902D01*
X002164Y004902D01*
X002094Y004891D01*
X002027Y004869D01*
X001964Y004836D01*
X001906Y004795D01*
X001856Y004745D01*
X001815Y004687D01*
X001782Y004624D01*
X001761Y004557D01*
X001752Y004502D01*
X002449Y004502D01*
X002449Y004402D01*
X001752Y004402D01*
X001761Y004346D01*
X001782Y004279D01*
X001815Y004216D01*
X001856Y004159D01*
X001906Y004108D01*
X001964Y004067D01*
X002027Y004035D01*
X002094Y004013D01*
X002164Y004002D01*
X002450Y004002D01*
X002450Y004401D01*
X002549Y004401D01*
X002549Y004002D01*
X002835Y004002D01*
X002905Y004013D01*
X002972Y004035D01*
X003035Y004067D01*
X003093Y004108D01*
X003143Y004159D01*
X003184Y004216D01*
X003217Y004279D01*
X003238Y004346D01*
X003247Y004402D01*
X002550Y004402D01*
X002549Y004317D02*
X002450Y004317D01*
X002449Y004415D02*
X001035Y004415D01*
X001035Y004317D02*
X001770Y004317D01*
X001813Y004218D02*
X001035Y004218D01*
X001035Y004120D02*
X001895Y004120D01*
X002068Y004021D02*
X001035Y004021D01*
X001035Y004514D02*
X001754Y004514D01*
X001779Y004613D02*
X001035Y004613D01*
X001035Y004711D02*
X001832Y004711D01*
X001927Y004810D02*
X001035Y004810D01*
X001035Y004908D02*
X019122Y004908D01*
X019122Y004810D02*
X003072Y004810D01*
X003167Y004711D02*
X019122Y004711D01*
X019122Y004613D02*
X003220Y004613D01*
X003245Y004514D02*
X019122Y004514D01*
X019740Y004120D02*
X020322Y004120D01*
X020316Y004123D02*
X020380Y004091D01*
X020447Y004069D01*
X020502Y004060D01*
X020502Y004757D01*
X020602Y004757D01*
X020602Y004060D01*
X020658Y004069D01*
X020725Y004091D01*
X020788Y004123D01*
X020845Y004164D01*
X020896Y004214D01*
X020937Y004272D01*
X020969Y004335D01*
X020991Y004402D01*
X021002Y004472D01*
X021002Y004758D01*
X020602Y004758D01*
X020602Y004857D01*
X021002Y004857D01*
X021002Y005143D01*
X020991Y005213D01*
X020969Y005280D01*
X020937Y005343D01*
X020896Y005401D01*
X020845Y005451D01*
X020788Y005492D01*
X020725Y005525D01*
X020658Y005546D01*
X020602Y005555D01*
X020602Y004858D01*
X020502Y004858D01*
X020502Y005555D01*
X020447Y005546D01*
X020380Y005525D01*
X020316Y005492D01*
X020259Y005451D01*
X020209Y005401D01*
X019867Y005401D01*
X019937Y005302D02*
X020146Y005302D01*
X020135Y005280D02*
X020113Y005213D01*
X020102Y005143D01*
X020102Y004857D01*
X020502Y004857D01*
X020502Y004758D01*
X020102Y004758D01*
X020102Y004472D01*
X020113Y004402D01*
X020135Y004335D01*
X020167Y004272D01*
X020209Y004214D01*
X020259Y004164D01*
X020316Y004123D01*
X020206Y004218D02*
X019871Y004218D01*
X019939Y004317D02*
X020144Y004317D01*
X020111Y004415D02*
X019979Y004415D01*
X019982Y004514D02*
X020102Y004514D01*
X020102Y004613D02*
X019982Y004613D01*
X019982Y004711D02*
X020102Y004711D01*
X019982Y004810D02*
X020502Y004810D01*
X020502Y004908D02*
X020602Y004908D01*
X020602Y004810D02*
X021122Y004810D01*
X021122Y004908D02*
X021002Y004908D01*
X021002Y005007D02*
X021122Y005007D01*
X021122Y005105D02*
X021002Y005105D01*
X020993Y005204D02*
X021127Y005204D01*
X021122Y005193D02*
X021122Y004422D01*
X021188Y004264D01*
X021309Y004143D01*
X021467Y004078D01*
X021638Y004078D01*
X021796Y004143D01*
X021917Y004264D01*
X021982Y004422D01*
X021982Y005193D01*
X021917Y005351D01*
X021796Y005472D01*
X021732Y005498D01*
X021732Y006898D01*
X021627Y007003D01*
X021478Y007003D01*
X013759Y007003D01*
X013727Y007035D01*
X013636Y007073D01*
X013536Y007073D01*
X013445Y007035D01*
X013375Y006965D01*
X013337Y006873D01*
X013337Y006774D01*
X013375Y006682D01*
X009361Y006682D01*
X009361Y006780D02*
X013337Y006780D01*
X013339Y006879D02*
X009361Y006879D01*
X009361Y006978D02*
X013388Y006978D01*
X013586Y006823D02*
X021552Y006823D01*
X021552Y004808D01*
X021982Y004810D02*
X022122Y004810D01*
X022122Y004908D02*
X021982Y004908D01*
X021982Y005007D02*
X022122Y005007D01*
X022122Y005105D02*
X021982Y005105D01*
X021978Y005204D02*
X022127Y005204D01*
X022122Y005193D02*
X022122Y004422D01*
X022188Y004264D01*
X022309Y004143D01*
X022467Y004078D01*
X022638Y004078D01*
X022796Y004143D01*
X022917Y004264D01*
X022982Y004422D01*
X022982Y005193D01*
X022917Y005351D01*
X022796Y005472D01*
X022638Y005538D01*
X022467Y005538D01*
X022309Y005472D01*
X022188Y005351D01*
X022122Y005193D01*
X022168Y005302D02*
X021937Y005302D01*
X021867Y005401D02*
X022238Y005401D01*
X022375Y005499D02*
X021732Y005499D01*
X021732Y005598D02*
X024392Y005598D01*
X024392Y005507D02*
X024309Y005472D01*
X024188Y005351D01*
X024122Y005193D01*
X024122Y004422D01*
X024188Y004264D01*
X024309Y004143D01*
X024467Y004078D01*
X024638Y004078D01*
X024796Y004143D01*
X024917Y004264D01*
X024982Y004422D01*
X024982Y005193D01*
X024917Y005351D01*
X024796Y005472D01*
X024752Y005490D01*
X024752Y007555D01*
X024752Y007704D01*
X024646Y007810D01*
X016790Y007810D01*
X016790Y010075D01*
X016790Y010224D01*
X016712Y010302D01*
X016720Y010310D01*
X016758Y010402D01*
X016758Y010501D01*
X016720Y010593D01*
X016689Y010624D01*
X016689Y011347D01*
X016701Y011318D01*
X016771Y011248D01*
X016862Y011210D01*
X016962Y011210D01*
X017053Y011248D01*
X017124Y011318D01*
X017161Y011410D01*
X017161Y011413D01*
X017165Y011412D01*
X017264Y011412D01*
X017356Y011450D01*
X017426Y011520D01*
X017464Y011611D01*
X017464Y011711D01*
X017426Y011802D01*
X017394Y011834D01*
X017394Y012038D01*
X017289Y012143D01*
X017140Y012143D01*
X016084Y012143D01*
X016084Y012638D01*
X016132Y012590D01*
X018143Y012590D01*
X018143Y012035D01*
X018112Y012004D01*
X018074Y011912D01*
X018074Y011813D01*
X018112Y011721D01*
X018182Y011651D01*
X018274Y011613D01*
X018373Y011613D01*
X018464Y011651D01*
X018535Y011721D01*
X018572Y011813D01*
X018572Y011912D01*
X018535Y012004D01*
X018503Y012035D01*
X018503Y012695D01*
X018503Y012844D01*
X018455Y012892D01*
X018647Y012892D01*
X018647Y011229D01*
X018616Y011198D01*
X018578Y011106D01*
X018578Y011007D01*
X018616Y010915D01*
X018642Y010888D01*
X018585Y010865D01*
X018515Y010794D01*
X018477Y010703D01*
X018477Y010701D01*
X018475Y010701D01*
X018383Y010663D01*
X018313Y010593D01*
X018275Y010501D01*
X018275Y010499D01*
X018274Y010499D01*
X018182Y010461D01*
X018112Y010391D01*
X018074Y010300D01*
X018074Y010200D01*
X018112Y010109D01*
X018182Y010039D01*
X018274Y010001D01*
X018316Y010001D01*
X018288Y009934D01*
X018288Y009835D01*
X018326Y009743D01*
X018352Y009717D01*
X018347Y009520D01*
X018345Y009518D01*
X018345Y009446D01*
X018343Y009374D01*
X018345Y009372D01*
X018345Y009369D01*
X018396Y009318D01*
X018445Y009266D01*
X018448Y009266D01*
X018450Y009264D01*
X018522Y009264D01*
X018594Y009262D01*
X018596Y009264D01*
X029585Y009264D01*
X029633Y009312D01*
X029633Y008414D01*
X017400Y008414D01*
X017368Y008446D01*
X017277Y008484D01*
X017177Y008484D01*
X017086Y008446D01*
X017016Y008376D01*
X016978Y008284D01*
X016978Y008185D01*
X017016Y008093D01*
X017086Y008023D01*
X017177Y007985D01*
X017277Y007985D01*
X017368Y008023D01*
X017400Y008054D01*
X029887Y008054D01*
X029951Y008117D01*
X029955Y008107D01*
X030076Y007986D01*
X030234Y007921D01*
X031005Y007921D01*
X031163Y007986D01*
X031284Y008107D01*
X031349Y008265D01*
X031349Y008436D01*
X031284Y008594D01*
X031163Y008715D01*
X031005Y008781D01*
X030234Y008781D01*
X030076Y008715D01*
X029993Y008633D01*
X029993Y009069D01*
X030076Y008986D01*
X030234Y008921D01*
X031005Y008921D01*
X031163Y008986D01*
X031284Y009107D01*
X031349Y009265D01*
X031349Y009436D01*
X031284Y009594D01*
X031163Y009715D01*
X031005Y009781D01*
X030234Y009781D01*
X030076Y009715D01*
X029993Y009633D01*
X029993Y010069D01*
X030076Y009986D01*
X030234Y009921D01*
X031005Y009921D01*
X031163Y009986D01*
X031284Y010107D01*
X031349Y010265D01*
X031349Y010436D01*
X031284Y010594D01*
X031163Y010715D01*
X031005Y010781D01*
X030234Y010781D01*
X030076Y010715D01*
X029993Y010633D01*
X029993Y011069D01*
X030076Y010986D01*
X030234Y010921D01*
X031005Y010921D01*
X031163Y010986D01*
X031284Y011107D01*
X031349Y011265D01*
X031349Y011436D01*
X031284Y011594D01*
X031163Y011715D01*
X031005Y011781D01*
X030234Y011781D01*
X030076Y011715D01*
X029993Y011633D01*
X029993Y012069D01*
X030076Y011986D01*
X030234Y011921D01*
X031005Y011921D01*
X031163Y011986D01*
X031284Y012107D01*
X031349Y012265D01*
X031349Y012436D01*
X031284Y012594D01*
X031163Y012715D01*
X031005Y012781D01*
X030234Y012781D01*
X030076Y012715D01*
X029993Y012633D01*
X029993Y013069D01*
X030076Y012986D01*
X030234Y012921D01*
X031005Y012921D01*
X031163Y012986D01*
X031284Y013107D01*
X031349Y013265D01*
X031349Y013436D01*
X031284Y013594D01*
X031163Y013715D01*
X031005Y013781D01*
X030234Y013781D01*
X030076Y013715D01*
X029993Y013633D01*
X029993Y014069D01*
X030076Y013986D01*
X030234Y013921D01*
X031005Y013921D01*
X031163Y013986D01*
X031284Y014107D01*
X031349Y014265D01*
X031349Y014436D01*
X031284Y014594D01*
X031163Y014715D01*
X031005Y014781D01*
X030234Y014781D01*
X030076Y014715D01*
X029993Y014633D01*
X029993Y015062D01*
X029887Y015167D01*
X029738Y015167D01*
X028171Y015167D01*
X028140Y015198D01*
X028048Y015236D01*
X027949Y015236D01*
X027857Y015198D01*
X027787Y015128D01*
X027749Y015037D01*
X027749Y014937D01*
X027787Y014846D01*
X027857Y014776D01*
X027949Y014738D01*
X028048Y014738D01*
X028140Y014776D01*
X028171Y014807D01*
X029633Y014807D01*
X029633Y013809D01*
X029585Y013857D01*
X029436Y013857D01*
X028272Y013857D01*
X028241Y013888D01*
X028149Y013926D01*
X028050Y013926D01*
X027958Y013888D01*
X027888Y013818D01*
X027850Y013726D01*
X027850Y013627D01*
X027888Y013536D01*
X027958Y013465D01*
X028050Y013427D01*
X028149Y013427D01*
X028241Y013465D01*
X028272Y013497D01*
X029331Y013497D01*
X029331Y013191D01*
X029258Y013221D01*
X029159Y013221D01*
X029067Y013183D01*
X029036Y013151D01*
X025558Y013151D01*
X025558Y015316D01*
X025558Y015465D01*
X025510Y015513D01*
X025702Y015513D01*
X025702Y014106D01*
X025808Y014001D01*
X025957Y014001D01*
X029136Y014001D01*
X029168Y013969D01*
X029259Y013931D01*
X029359Y013931D01*
X029450Y013969D01*
X029520Y014040D01*
X029558Y014131D01*
X029558Y014230D01*
X029520Y014322D01*
X029450Y014392D01*
X029359Y014430D01*
X029259Y014430D01*
X029168Y014392D01*
X029136Y014361D01*
X026062Y014361D01*
X026062Y015618D01*
X026062Y015767D01*
X026014Y015815D01*
X029090Y015815D01*
X029060Y015742D01*
X029060Y015643D01*
X029098Y015551D01*
X026062Y015551D01*
X026062Y015649D02*
X029060Y015649D01*
X029062Y015748D02*
X026062Y015748D01*
X025882Y015693D02*
X015904Y015693D01*
X015904Y011963D01*
X017214Y011963D01*
X017214Y011661D01*
X017417Y011511D02*
X018647Y011511D01*
X018647Y011609D02*
X017463Y011609D01*
X017464Y011708D02*
X018126Y011708D01*
X018077Y011806D02*
X017422Y011806D01*
X017394Y011905D02*
X018074Y011905D01*
X018111Y012003D02*
X017394Y012003D01*
X017331Y012102D02*
X018143Y012102D01*
X018143Y012200D02*
X016084Y012200D01*
X016084Y012299D02*
X018143Y012299D01*
X018143Y012397D02*
X016084Y012397D01*
X016084Y012496D02*
X018143Y012496D01*
X018503Y012496D02*
X018647Y012496D01*
X018647Y012397D02*
X018503Y012397D01*
X018503Y012299D02*
X018647Y012299D01*
X018647Y012200D02*
X018503Y012200D01*
X018503Y012102D02*
X018647Y012102D01*
X018647Y012003D02*
X018535Y012003D01*
X018572Y011905D02*
X018647Y011905D01*
X018647Y011806D02*
X018570Y011806D01*
X018521Y011708D02*
X018647Y011708D01*
X018647Y011412D02*
X017265Y011412D01*
X017164Y011412D02*
X017161Y011412D01*
X017119Y011313D02*
X018647Y011313D01*
X018633Y011215D02*
X016973Y011215D01*
X016851Y011215D02*
X016689Y011215D01*
X016689Y011313D02*
X016706Y011313D01*
X016689Y011116D02*
X018582Y011116D01*
X018578Y011018D02*
X016689Y011018D01*
X016689Y010919D02*
X018614Y010919D01*
X018541Y010821D02*
X016689Y010821D01*
X016689Y010722D02*
X018485Y010722D01*
X018344Y010624D02*
X016690Y010624D01*
X016748Y010525D02*
X018285Y010525D01*
X018147Y010427D02*
X016758Y010427D01*
X016728Y010328D02*
X018086Y010328D01*
X018074Y010229D02*
X016784Y010229D01*
X016790Y010131D02*
X018103Y010131D01*
X018197Y010032D02*
X016790Y010032D01*
X016790Y009934D02*
X018288Y009934D01*
X018288Y009835D02*
X016790Y009835D01*
X016790Y009737D02*
X018332Y009737D01*
X018350Y009638D02*
X016790Y009638D01*
X016790Y009540D02*
X018347Y009540D01*
X018345Y009441D02*
X016790Y009441D01*
X016790Y009343D02*
X018371Y009343D01*
X018525Y009444D02*
X018537Y009884D01*
X018827Y009746D02*
X019835Y009746D01*
X019835Y013072D01*
X020339Y013274D02*
X020339Y010149D01*
X029309Y010149D01*
X029309Y010250D01*
X029993Y010032D02*
X030030Y010032D01*
X029993Y009934D02*
X030202Y009934D01*
X030127Y009737D02*
X029993Y009737D01*
X029993Y009835D02*
X031643Y009835D01*
X031643Y009737D02*
X031111Y009737D01*
X031240Y009638D02*
X031643Y009638D01*
X031643Y009540D02*
X031306Y009540D01*
X031347Y009441D02*
X031643Y009441D01*
X031643Y009343D02*
X031349Y009343D01*
X031340Y009244D02*
X031643Y009244D01*
X031643Y009146D02*
X031300Y009146D01*
X031223Y009047D02*
X031643Y009047D01*
X031643Y008948D02*
X031071Y008948D01*
X031076Y008751D02*
X031643Y008751D01*
X031643Y008653D02*
X031225Y008653D01*
X031300Y008554D02*
X031643Y008554D01*
X031643Y008456D02*
X031341Y008456D01*
X031349Y008357D02*
X031643Y008357D01*
X031643Y008259D02*
X031346Y008259D01*
X031306Y008160D02*
X031643Y008160D01*
X031643Y008062D02*
X031238Y008062D01*
X031106Y007963D02*
X031643Y007963D01*
X031643Y007864D02*
X016790Y007864D01*
X016790Y007963D02*
X030132Y007963D01*
X030000Y008062D02*
X029895Y008062D01*
X029813Y008234D02*
X017227Y008234D01*
X017047Y008062D02*
X016790Y008062D01*
X016790Y008160D02*
X016988Y008160D01*
X016978Y008259D02*
X016790Y008259D01*
X016790Y008357D02*
X017008Y008357D01*
X017110Y008456D02*
X016790Y008456D01*
X016790Y008554D02*
X029633Y008554D01*
X029633Y008456D02*
X017344Y008456D01*
X016790Y008653D02*
X029633Y008653D01*
X029633Y008751D02*
X016790Y008751D01*
X016790Y008850D02*
X029633Y008850D01*
X029633Y008948D02*
X016790Y008948D01*
X016790Y009047D02*
X029633Y009047D01*
X029633Y009146D02*
X016790Y009146D01*
X016790Y009244D02*
X029633Y009244D01*
X029511Y009444D02*
X018525Y009444D01*
X018323Y010250D02*
X019633Y010250D01*
X019633Y011661D01*
X019432Y011863D02*
X019432Y010452D01*
X018525Y010452D01*
X018726Y010653D02*
X019230Y010653D01*
X019230Y012064D01*
X018647Y012595D02*
X018503Y012595D01*
X018503Y012693D02*
X018647Y012693D01*
X018647Y012792D02*
X018503Y012792D01*
X018457Y012890D02*
X018647Y012890D01*
X018827Y013072D02*
X018827Y011056D01*
X018323Y011863D02*
X018323Y012770D01*
X016207Y012770D01*
X016207Y015390D01*
X025378Y015390D01*
X025378Y012971D01*
X029208Y012971D01*
X029074Y013186D02*
X025558Y013186D01*
X025558Y013284D02*
X029331Y013284D01*
X029331Y013383D02*
X025558Y013383D01*
X025558Y013481D02*
X027942Y013481D01*
X027870Y013580D02*
X025558Y013580D01*
X025558Y013679D02*
X027850Y013679D01*
X027871Y013777D02*
X025558Y013777D01*
X025558Y013876D02*
X027946Y013876D01*
X028253Y013876D02*
X029633Y013876D01*
X029633Y013974D02*
X029455Y013974D01*
X029534Y014073D02*
X029633Y014073D01*
X029633Y014171D02*
X029558Y014171D01*
X029542Y014270D02*
X029633Y014270D01*
X029633Y014368D02*
X029474Y014368D01*
X029633Y014467D02*
X026062Y014467D01*
X026062Y014565D02*
X029633Y014565D01*
X029633Y014664D02*
X026062Y014664D01*
X026062Y014762D02*
X027889Y014762D01*
X027781Y014861D02*
X026062Y014861D01*
X026062Y014960D02*
X027749Y014960D01*
X027758Y015058D02*
X026062Y015058D01*
X026062Y015157D02*
X027816Y015157D01*
X027999Y014987D02*
X029813Y014987D01*
X029813Y008234D01*
X029993Y008653D02*
X030013Y008653D01*
X029993Y008751D02*
X030163Y008751D01*
X029993Y008850D02*
X031643Y008850D01*
X030167Y008948D02*
X029993Y008948D01*
X029993Y009047D02*
X030015Y009047D01*
X029511Y009444D02*
X029511Y013677D01*
X028100Y013677D01*
X028257Y013481D02*
X029331Y013481D01*
X029993Y013679D02*
X030039Y013679D01*
X029993Y013777D02*
X030225Y013777D01*
X030105Y013974D02*
X029993Y013974D01*
X029993Y013876D02*
X031643Y013876D01*
X031643Y013974D02*
X031133Y013974D01*
X031249Y014073D02*
X031643Y014073D01*
X031643Y014171D02*
X031310Y014171D01*
X031349Y014270D02*
X031643Y014270D01*
X031643Y014368D02*
X031349Y014368D01*
X031337Y014467D02*
X031643Y014467D01*
X031643Y014565D02*
X031296Y014565D01*
X031214Y014664D02*
X031643Y014664D01*
X031643Y014762D02*
X031049Y014762D01*
X031005Y014921D02*
X031163Y014986D01*
X031284Y015107D01*
X031349Y015265D01*
X031349Y015436D01*
X031284Y015594D01*
X031163Y015715D01*
X031005Y015781D01*
X030234Y015781D01*
X030076Y015715D01*
X029955Y015594D01*
X029889Y015436D01*
X029889Y015265D01*
X029955Y015107D01*
X030076Y014986D01*
X030234Y014921D01*
X031005Y014921D01*
X031098Y014960D02*
X031643Y014960D01*
X031643Y015058D02*
X031235Y015058D01*
X031304Y015157D02*
X031643Y015157D01*
X031643Y015255D02*
X031345Y015255D01*
X031349Y015354D02*
X031643Y015354D01*
X031643Y015452D02*
X031343Y015452D01*
X031302Y015551D02*
X031643Y015551D01*
X031643Y015649D02*
X031229Y015649D01*
X031084Y015748D02*
X031643Y015748D01*
X031643Y015846D02*
X029508Y015846D01*
X029520Y015834D02*
X029489Y015865D01*
X029489Y016069D01*
X029384Y016175D01*
X029234Y016175D01*
X028218Y016175D01*
X028248Y016248D01*
X028248Y016347D01*
X028210Y016439D01*
X028140Y016509D01*
X028048Y016547D01*
X027949Y016547D01*
X027857Y016509D01*
X027826Y016477D01*
X012754Y016477D01*
X012604Y016477D01*
X012499Y016372D01*
X012499Y011268D01*
X009262Y014526D01*
X009262Y014526D01*
X009213Y014575D01*
X009157Y014631D01*
X009157Y014632D01*
X009083Y014632D01*
X009008Y014632D01*
X009008Y014632D01*
X003190Y014632D01*
X003164Y014695D01*
X003043Y014816D01*
X002885Y014882D01*
X002114Y014882D01*
X001956Y014816D01*
X001835Y014695D01*
X001770Y014537D01*
X001770Y014366D01*
X001835Y014208D01*
X001956Y014087D01*
X002114Y014022D01*
X002885Y014022D01*
X003043Y014087D01*
X003164Y014208D01*
X003190Y014272D01*
X009007Y014272D01*
X009720Y013554D01*
X003222Y013554D01*
X003164Y013695D01*
X003043Y013816D01*
X002885Y013882D01*
X002114Y013882D01*
X001956Y013816D01*
X001835Y013695D01*
X001770Y013537D01*
X001770Y013366D01*
X001835Y013208D01*
X001956Y013087D01*
X002114Y013022D01*
X002885Y013022D01*
X003043Y013087D01*
X003150Y013194D01*
X006015Y013194D01*
X005987Y013183D01*
X005916Y013113D01*
X005879Y013021D01*
X005879Y012922D01*
X005916Y012830D01*
X005918Y012829D01*
X005918Y012662D01*
X003178Y012662D01*
X003164Y012695D01*
X003043Y012816D01*
X002885Y012882D01*
X002114Y012882D01*
X001956Y012816D01*
X001835Y012695D01*
X001770Y012537D01*
X001770Y012366D01*
X001835Y012208D01*
X001956Y012087D01*
X002114Y012022D01*
X002885Y012022D01*
X003043Y012087D01*
X003164Y012208D01*
X003178Y012242D01*
X006041Y012242D01*
X006215Y012242D01*
X006321Y012348D01*
X006321Y011662D01*
X003178Y011662D01*
X003164Y011695D01*
X003043Y011816D01*
X002885Y011882D01*
X002114Y011882D01*
X001956Y011816D01*
X001835Y011695D01*
X001770Y011537D01*
X001770Y011366D01*
X001835Y011208D01*
X001956Y011087D01*
X002114Y011022D01*
X002885Y011022D01*
X003043Y011087D01*
X003164Y011208D01*
X003178Y011242D01*
X006444Y011242D01*
X006618Y011242D01*
X006741Y011365D01*
X006741Y012829D01*
X006742Y012830D01*
X006780Y012922D01*
X006780Y013021D01*
X006742Y013113D01*
X006672Y013183D01*
X006644Y013194D01*
X009682Y013194D01*
X010229Y012647D01*
X007464Y012647D01*
X007359Y012542D01*
X007359Y012393D01*
X007359Y011733D01*
X007327Y011702D01*
X007290Y011610D01*
X007290Y011511D01*
X007327Y011419D01*
X007398Y011349D01*
X007489Y011311D01*
X007589Y011311D01*
X007680Y011349D01*
X007750Y011419D01*
X007788Y011511D01*
X007788Y011610D01*
X007750Y011702D01*
X007719Y011733D01*
X007719Y012287D01*
X010186Y012287D01*
X013740Y008733D01*
X013740Y008689D01*
X013778Y008597D01*
X013848Y008527D01*
X013940Y008489D01*
X014039Y008489D01*
X014131Y008527D01*
X014201Y008597D01*
X014224Y008653D01*
X014419Y008457D01*
X014568Y008457D01*
X015631Y008457D01*
X015662Y008426D01*
X015754Y008388D01*
X015853Y008388D01*
X015945Y008426D01*
X016015Y008496D01*
X016053Y008588D01*
X016053Y008687D01*
X016015Y008779D01*
X015945Y008849D01*
X015853Y008887D01*
X015754Y008887D01*
X015662Y008849D01*
X015631Y008817D01*
X014568Y008817D01*
X013089Y010296D01*
X013106Y010296D01*
X013106Y010297D01*
X013842Y010297D01*
X013873Y010265D01*
X013965Y010227D01*
X014064Y010227D01*
X014112Y010247D01*
X014112Y009818D01*
X014080Y009787D01*
X014042Y009695D01*
X014042Y009596D01*
X014080Y009504D01*
X014150Y009434D01*
X014242Y009396D01*
X014341Y009396D01*
X014433Y009434D01*
X014503Y009504D01*
X014541Y009596D01*
X014541Y009695D01*
X014503Y009787D01*
X014472Y009818D01*
X014472Y010728D01*
X014366Y010833D01*
X014165Y011035D01*
X014016Y011035D01*
X013094Y011035D01*
X013123Y011047D01*
X013154Y011078D01*
X016027Y011078D01*
X016027Y009821D01*
X016027Y009672D01*
X016127Y009571D01*
X016127Y007253D01*
X016233Y007147D01*
X016382Y007147D01*
X018251Y007147D01*
X018283Y007116D01*
X018374Y007078D01*
X018474Y007078D01*
X018565Y007116D01*
X018635Y007186D01*
X018673Y007278D01*
X018673Y007377D01*
X018643Y007450D01*
X024392Y007450D01*
X024392Y005507D01*
X024375Y005499D02*
X023730Y005499D01*
X023796Y005472D02*
X023638Y005538D01*
X023467Y005538D01*
X023309Y005472D01*
X023188Y005351D01*
X023122Y005193D01*
X023122Y004422D01*
X023188Y004264D01*
X023309Y004143D01*
X023467Y004078D01*
X023638Y004078D01*
X023796Y004143D01*
X023917Y004264D01*
X023982Y004422D01*
X023982Y005193D01*
X023917Y005351D01*
X023796Y005472D01*
X023867Y005401D02*
X024238Y005401D01*
X024168Y005302D02*
X023937Y005302D01*
X023978Y005204D02*
X024127Y005204D01*
X024122Y005105D02*
X023982Y005105D01*
X023982Y005007D02*
X024122Y005007D01*
X024122Y004908D02*
X023982Y004908D01*
X023982Y004810D02*
X024122Y004810D01*
X024122Y004711D02*
X023982Y004711D01*
X023982Y004613D02*
X024122Y004613D01*
X024122Y004514D02*
X023982Y004514D01*
X023979Y004415D02*
X024125Y004415D01*
X024166Y004317D02*
X023939Y004317D01*
X023871Y004218D02*
X024233Y004218D01*
X024365Y004120D02*
X023740Y004120D01*
X023365Y004120D02*
X022740Y004120D01*
X022871Y004218D02*
X023233Y004218D01*
X023166Y004317D02*
X022939Y004317D01*
X022979Y004415D02*
X023125Y004415D01*
X023122Y004514D02*
X022982Y004514D01*
X022982Y004613D02*
X023122Y004613D01*
X023122Y004711D02*
X022982Y004711D01*
X022982Y004810D02*
X023122Y004810D01*
X023122Y004908D02*
X022982Y004908D01*
X022982Y005007D02*
X023122Y005007D01*
X023122Y005105D02*
X022982Y005105D01*
X022978Y005204D02*
X023127Y005204D01*
X023168Y005302D02*
X022937Y005302D01*
X022867Y005401D02*
X023238Y005401D01*
X023375Y005499D02*
X022730Y005499D01*
X021732Y005696D02*
X024392Y005696D01*
X024392Y005795D02*
X021732Y005795D01*
X021732Y005894D02*
X024392Y005894D01*
X024392Y005992D02*
X021732Y005992D01*
X021732Y006091D02*
X024392Y006091D01*
X024392Y006189D02*
X021732Y006189D01*
X021732Y006288D02*
X024392Y006288D01*
X024392Y006386D02*
X021732Y006386D01*
X021732Y006485D02*
X024392Y006485D01*
X024392Y006583D02*
X021732Y006583D01*
X021732Y006682D02*
X024392Y006682D01*
X024392Y006780D02*
X021732Y006780D01*
X021732Y006879D02*
X024392Y006879D01*
X024392Y006978D02*
X021653Y006978D01*
X021372Y006643D02*
X021372Y005498D01*
X021309Y005472D01*
X021188Y005351D01*
X021122Y005193D01*
X021168Y005302D02*
X020958Y005302D01*
X020895Y005401D02*
X021238Y005401D01*
X021372Y005499D02*
X020774Y005499D01*
X020602Y005499D02*
X020502Y005499D01*
X020502Y005401D02*
X020602Y005401D01*
X020602Y005302D02*
X020502Y005302D01*
X020502Y005204D02*
X020602Y005204D01*
X020602Y005105D02*
X020502Y005105D01*
X020502Y005007D02*
X020602Y005007D01*
X020102Y005007D02*
X019982Y005007D01*
X019982Y005105D02*
X020102Y005105D01*
X020112Y005204D02*
X019978Y005204D01*
X020135Y005280D02*
X020167Y005343D01*
X020209Y005401D01*
X020330Y005499D02*
X019730Y005499D01*
X019375Y005499D02*
X002550Y005499D01*
X002550Y005502D02*
X003247Y005502D01*
X003238Y005557D01*
X003217Y005624D01*
X003184Y005687D01*
X003143Y005745D01*
X003093Y005795D01*
X003035Y005836D01*
X002972Y005869D01*
X002905Y005891D01*
X002835Y005902D01*
X002549Y005902D01*
X002549Y005502D01*
X002450Y005502D01*
X002450Y005902D01*
X002164Y005902D01*
X002094Y005891D01*
X002027Y005869D01*
X001964Y005836D01*
X001906Y005795D01*
X001856Y005745D01*
X001815Y005687D01*
X001782Y005624D01*
X001761Y005557D01*
X001752Y005502D01*
X002449Y005502D01*
X002449Y005402D01*
X001752Y005402D01*
X001761Y005346D01*
X001782Y005279D01*
X001815Y005216D01*
X001856Y005159D01*
X001906Y005108D01*
X001964Y005067D01*
X002027Y005035D01*
X002094Y005013D01*
X002164Y005002D01*
X002450Y005002D01*
X002450Y005401D01*
X002549Y005401D01*
X002549Y005002D01*
X002835Y005002D01*
X002905Y005013D01*
X002972Y005035D01*
X003035Y005067D01*
X003093Y005108D01*
X003143Y005159D01*
X003184Y005216D01*
X003217Y005279D01*
X003238Y005346D01*
X003247Y005402D01*
X002550Y005402D01*
X002550Y005502D01*
X002549Y005598D02*
X002450Y005598D01*
X002450Y005696D02*
X002549Y005696D01*
X002549Y005795D02*
X002450Y005795D01*
X002450Y005894D02*
X002549Y005894D01*
X002886Y005894D02*
X008978Y005894D01*
X008941Y005930D02*
X009064Y005807D01*
X009238Y005807D01*
X011125Y005807D01*
X011127Y005806D01*
X011218Y005768D01*
X011318Y005768D01*
X011409Y005806D01*
X011479Y005876D01*
X011517Y005967D01*
X011517Y006067D01*
X011479Y006158D01*
X011409Y006228D01*
X011318Y006266D01*
X011218Y006266D01*
X011127Y006228D01*
X011125Y006227D01*
X009361Y006227D01*
X009361Y008192D01*
X009363Y008194D01*
X009401Y008285D01*
X009401Y008385D01*
X009363Y008476D01*
X009361Y008478D01*
X009361Y010292D01*
X009513Y010292D01*
X009514Y010290D01*
X009606Y010252D01*
X009705Y010252D01*
X009797Y010290D01*
X009867Y010360D01*
X009905Y010452D01*
X009905Y010551D01*
X009867Y010643D01*
X009865Y010644D01*
X009865Y011821D01*
X009867Y011822D01*
X009905Y011914D01*
X009905Y012013D01*
X009867Y012105D01*
X009797Y012175D01*
X009705Y012213D01*
X009606Y012213D01*
X009514Y012175D01*
X009444Y012105D01*
X009406Y012013D01*
X009406Y011914D01*
X009444Y011822D01*
X009445Y011821D01*
X009445Y010712D01*
X009238Y010712D01*
X009064Y010712D01*
X008941Y010589D01*
X008941Y008478D01*
X008940Y008476D01*
X008902Y008385D01*
X008902Y008285D01*
X008940Y008194D01*
X008941Y008192D01*
X008941Y005930D01*
X008941Y005992D02*
X001035Y005992D01*
X001035Y005894D02*
X002113Y005894D01*
X002114Y006022D02*
X001956Y006087D01*
X001835Y006208D01*
X001770Y006366D01*
X001770Y006537D01*
X001835Y006695D01*
X001956Y006816D01*
X002114Y006882D01*
X002885Y006882D01*
X003043Y006816D01*
X003164Y006695D01*
X003229Y006537D01*
X003229Y006366D01*
X003164Y006208D01*
X003043Y006087D01*
X002885Y006022D01*
X002114Y006022D01*
X001952Y006091D02*
X001035Y006091D01*
X001035Y006189D02*
X001854Y006189D01*
X001802Y006288D02*
X001035Y006288D01*
X001035Y006386D02*
X001770Y006386D01*
X001770Y006485D02*
X001035Y006485D01*
X001035Y006583D02*
X001789Y006583D01*
X001830Y006682D02*
X001035Y006682D01*
X001035Y006780D02*
X001920Y006780D01*
X002108Y006879D02*
X001035Y006879D01*
X001035Y006978D02*
X008941Y006978D01*
X008941Y007076D02*
X003016Y007076D01*
X003043Y007087D02*
X003164Y007208D01*
X003229Y007366D01*
X003229Y007537D01*
X003164Y007695D01*
X003043Y007816D01*
X002885Y007882D01*
X002114Y007882D01*
X001956Y007816D01*
X001835Y007695D01*
X001770Y007537D01*
X001770Y007366D01*
X001835Y007208D01*
X001956Y007087D01*
X002114Y007022D01*
X002885Y007022D01*
X003043Y007087D01*
X003131Y007175D02*
X008941Y007175D01*
X008941Y007273D02*
X003191Y007273D01*
X003229Y007372D02*
X008941Y007372D01*
X008941Y007470D02*
X003229Y007470D01*
X003216Y007569D02*
X008941Y007569D01*
X008941Y007667D02*
X003176Y007667D01*
X003093Y007766D02*
X008941Y007766D01*
X008941Y007864D02*
X002926Y007864D01*
X002885Y008022D02*
X003043Y008087D01*
X003164Y008208D01*
X003229Y008366D01*
X003229Y008537D01*
X003164Y008695D01*
X003043Y008816D01*
X002885Y008882D01*
X002114Y008882D01*
X001956Y008816D01*
X001835Y008695D01*
X001770Y008537D01*
X001770Y008366D01*
X001835Y008208D01*
X001956Y008087D01*
X002114Y008022D01*
X002885Y008022D01*
X002981Y008062D02*
X008941Y008062D01*
X008941Y008160D02*
X003116Y008160D01*
X003185Y008259D02*
X008913Y008259D01*
X008902Y008357D02*
X003226Y008357D01*
X003229Y008456D02*
X008932Y008456D01*
X008941Y008554D02*
X003222Y008554D01*
X003182Y008653D02*
X008941Y008653D01*
X008941Y008751D02*
X003108Y008751D01*
X002962Y008850D02*
X008941Y008850D01*
X008941Y008948D02*
X001035Y008948D01*
X001035Y008850D02*
X002037Y008850D01*
X001891Y008751D02*
X001035Y008751D01*
X001035Y008653D02*
X001817Y008653D01*
X001777Y008554D02*
X001035Y008554D01*
X001035Y008456D02*
X001770Y008456D01*
X001773Y008357D02*
X001035Y008357D01*
X001035Y008259D02*
X001814Y008259D01*
X001883Y008160D02*
X001035Y008160D01*
X001035Y008062D02*
X002018Y008062D01*
X002073Y007864D02*
X001035Y007864D01*
X001035Y007766D02*
X001906Y007766D01*
X001824Y007667D02*
X001035Y007667D01*
X001035Y007569D02*
X001783Y007569D01*
X001770Y007470D02*
X001035Y007470D01*
X001035Y007372D02*
X001770Y007372D01*
X001808Y007273D02*
X001035Y007273D01*
X001035Y007175D02*
X001868Y007175D01*
X001983Y007076D02*
X001035Y007076D01*
X001035Y007963D02*
X008941Y007963D01*
X009361Y007963D02*
X016127Y007963D01*
X016127Y007864D02*
X009361Y007864D01*
X009361Y007766D02*
X016127Y007766D01*
X016127Y007667D02*
X009361Y007667D01*
X009361Y007569D02*
X016127Y007569D01*
X016127Y007470D02*
X009361Y007470D01*
X009361Y007372D02*
X016127Y007372D01*
X016127Y007273D02*
X009361Y007273D01*
X009361Y007175D02*
X016205Y007175D01*
X016307Y007327D02*
X016307Y009746D01*
X016207Y009746D01*
X016207Y011258D01*
X012981Y011258D01*
X012679Y011157D02*
X012981Y010855D01*
X014090Y010855D01*
X014292Y010653D01*
X014292Y009645D01*
X014541Y009638D02*
X016060Y009638D01*
X016027Y009737D02*
X014524Y009737D01*
X014472Y009835D02*
X016027Y009835D01*
X016027Y009934D02*
X014472Y009934D01*
X014472Y010032D02*
X016027Y010032D01*
X016027Y010131D02*
X014472Y010131D01*
X014472Y010229D02*
X016027Y010229D01*
X016027Y010328D02*
X014472Y010328D01*
X014472Y010427D02*
X016027Y010427D01*
X016027Y010525D02*
X014472Y010525D01*
X014472Y010624D02*
X016027Y010624D01*
X016027Y010722D02*
X014472Y010722D01*
X014379Y010821D02*
X016027Y010821D01*
X016027Y010919D02*
X014280Y010919D01*
X014182Y011018D02*
X016027Y011018D01*
X016509Y011560D02*
X016509Y010452D01*
X016509Y010149D01*
X016610Y010149D01*
X016610Y007630D01*
X024572Y007630D01*
X024572Y004808D01*
X024552Y004808D01*
X024982Y004810D02*
X031643Y004810D01*
X031643Y004908D02*
X031001Y004908D01*
X031025Y004912D02*
X030955Y004901D01*
X030669Y004901D01*
X030669Y005301D01*
X030569Y005301D01*
X029871Y005301D01*
X029880Y005245D01*
X029902Y005178D01*
X029934Y005115D01*
X029976Y005058D01*
X030026Y005008D01*
X030083Y004966D01*
X030146Y004934D01*
X030214Y004912D01*
X030284Y004901D01*
X030569Y004901D01*
X030569Y005301D01*
X030569Y005401D01*
X030569Y005801D01*
X030284Y005801D01*
X030214Y005790D01*
X030146Y005768D01*
X030083Y005736D01*
X030026Y005694D01*
X029976Y005644D01*
X029934Y005587D01*
X029902Y005524D01*
X029880Y005456D01*
X029871Y005401D01*
X030569Y005401D01*
X030669Y005401D01*
X030669Y005801D01*
X030955Y005801D01*
X031025Y005790D01*
X031092Y005768D01*
X031155Y005736D01*
X031212Y005694D01*
X031262Y005644D01*
X031304Y005587D01*
X031336Y005524D01*
X031358Y005456D01*
X031367Y005401D01*
X031643Y005401D01*
X031643Y005499D02*
X031344Y005499D01*
X031367Y005401D02*
X030669Y005401D01*
X030669Y005301D01*
X031367Y005301D01*
X031358Y005245D01*
X031336Y005178D01*
X031304Y005115D01*
X031262Y005058D01*
X031212Y005008D01*
X031155Y004966D01*
X031092Y004934D01*
X031025Y004912D01*
X031025Y004790D02*
X030955Y004801D01*
X030669Y004801D01*
X030669Y004401D01*
X030569Y004401D01*
X030569Y004801D01*
X030284Y004801D01*
X030214Y004790D01*
X030146Y004768D01*
X030083Y004736D01*
X030026Y004694D01*
X029976Y004644D01*
X029934Y004587D01*
X029902Y004524D01*
X029880Y004456D01*
X029871Y004401D01*
X030569Y004401D01*
X030569Y004301D01*
X030669Y004301D01*
X030669Y003901D01*
X030955Y003901D01*
X031025Y003912D01*
X031092Y003934D01*
X031155Y003966D01*
X031212Y004008D01*
X031262Y004058D01*
X031304Y004115D01*
X031336Y004178D01*
X031358Y004245D01*
X031367Y004301D01*
X030669Y004301D01*
X030669Y004401D01*
X031367Y004401D01*
X031358Y004456D01*
X031336Y004524D01*
X031304Y004587D01*
X031262Y004644D01*
X031212Y004694D01*
X031155Y004736D01*
X031092Y004768D01*
X031025Y004790D01*
X031189Y004711D02*
X031643Y004711D01*
X031643Y004613D02*
X031285Y004613D01*
X031339Y004514D02*
X031643Y004514D01*
X031643Y004415D02*
X031365Y004415D01*
X031349Y004218D02*
X031643Y004218D01*
X031643Y004120D02*
X031306Y004120D01*
X031226Y004021D02*
X031643Y004021D01*
X031643Y003923D02*
X031058Y003923D01*
X030669Y003923D02*
X030569Y003923D01*
X030569Y004021D02*
X030669Y004021D01*
X030669Y004120D02*
X030569Y004120D01*
X030569Y004218D02*
X030669Y004218D01*
X030669Y004317D02*
X031643Y004317D01*
X030669Y004415D02*
X030569Y004415D01*
X030569Y004317D02*
X024939Y004317D01*
X024979Y004415D02*
X029874Y004415D01*
X029899Y004514D02*
X024982Y004514D01*
X024982Y004613D02*
X029953Y004613D01*
X030049Y004711D02*
X024982Y004711D01*
X024982Y004908D02*
X030238Y004908D01*
X030027Y005007D02*
X024982Y005007D01*
X024982Y005105D02*
X029941Y005105D01*
X029894Y005204D02*
X024978Y005204D01*
X024937Y005302D02*
X030569Y005302D01*
X030569Y005204D02*
X030669Y005204D01*
X030669Y005302D02*
X031643Y005302D01*
X031643Y005204D02*
X031345Y005204D01*
X031297Y005105D02*
X031643Y005105D01*
X031643Y005007D02*
X031211Y005007D01*
X030669Y005007D02*
X030569Y005007D01*
X030569Y005105D02*
X030669Y005105D01*
X030669Y004908D02*
X030569Y004908D01*
X030569Y004711D02*
X030669Y004711D01*
X030669Y004613D02*
X030569Y004613D01*
X030569Y004514D02*
X030669Y004514D01*
X029889Y004218D02*
X024871Y004218D01*
X024740Y004120D02*
X029932Y004120D01*
X029872Y005401D02*
X024867Y005401D01*
X024752Y005499D02*
X029894Y005499D01*
X029943Y005598D02*
X024752Y005598D01*
X024752Y005696D02*
X030029Y005696D01*
X030247Y005795D02*
X024752Y005795D01*
X024752Y005894D02*
X031643Y005894D01*
X031643Y005992D02*
X031169Y005992D01*
X031163Y005986D02*
X031284Y006107D01*
X031349Y006265D01*
X031349Y006436D01*
X031284Y006594D01*
X031163Y006715D01*
X031005Y006781D01*
X030234Y006781D01*
X030076Y006715D01*
X029955Y006594D01*
X029889Y006436D01*
X029889Y006265D01*
X029955Y006107D01*
X030076Y005986D01*
X030234Y005921D01*
X031005Y005921D01*
X031163Y005986D01*
X031267Y006091D02*
X031643Y006091D01*
X031643Y006189D02*
X031318Y006189D01*
X031349Y006288D02*
X031643Y006288D01*
X031643Y006386D02*
X031349Y006386D01*
X031329Y006485D02*
X031643Y006485D01*
X031643Y006583D02*
X031288Y006583D01*
X031196Y006682D02*
X031643Y006682D01*
X031643Y006780D02*
X031006Y006780D01*
X031005Y006921D02*
X031163Y006986D01*
X031284Y007107D01*
X031349Y007265D01*
X031349Y007436D01*
X031284Y007594D01*
X031163Y007715D01*
X031005Y007781D01*
X030234Y007781D01*
X030076Y007715D01*
X029955Y007594D01*
X029889Y007436D01*
X029889Y007265D01*
X029955Y007107D01*
X030076Y006986D01*
X030234Y006921D01*
X031005Y006921D01*
X031142Y006978D02*
X031643Y006978D01*
X031643Y007076D02*
X031253Y007076D01*
X031312Y007175D02*
X031643Y007175D01*
X031643Y007273D02*
X031349Y007273D01*
X031349Y007372D02*
X031643Y007372D01*
X031643Y007470D02*
X031335Y007470D01*
X031294Y007569D02*
X031643Y007569D01*
X031643Y007667D02*
X031211Y007667D01*
X031041Y007766D02*
X031643Y007766D01*
X031643Y006879D02*
X024752Y006879D01*
X024752Y006978D02*
X030097Y006978D01*
X029986Y007076D02*
X024752Y007076D01*
X024752Y007175D02*
X029927Y007175D01*
X029889Y007273D02*
X024752Y007273D01*
X024752Y007372D02*
X029889Y007372D01*
X029903Y007470D02*
X024752Y007470D01*
X024752Y007569D02*
X029944Y007569D01*
X030028Y007667D02*
X024752Y007667D01*
X024690Y007766D02*
X030198Y007766D01*
X030233Y006780D02*
X024752Y006780D01*
X024752Y006682D02*
X030042Y006682D01*
X029950Y006583D02*
X024752Y006583D01*
X024752Y006485D02*
X029909Y006485D01*
X029889Y006386D02*
X024752Y006386D01*
X024752Y006288D02*
X029889Y006288D01*
X029921Y006189D02*
X024752Y006189D01*
X024752Y006091D02*
X029971Y006091D01*
X030070Y005992D02*
X024752Y005992D01*
X024392Y007076D02*
X009361Y007076D01*
X008941Y006879D02*
X002891Y006879D01*
X003079Y006780D02*
X008941Y006780D01*
X008941Y006682D02*
X003170Y006682D01*
X003210Y006583D02*
X008941Y006583D01*
X008941Y006485D02*
X003229Y006485D01*
X003229Y006386D02*
X008941Y006386D01*
X008941Y006288D02*
X003197Y006288D01*
X003145Y006189D02*
X008941Y006189D01*
X008941Y006091D02*
X003047Y006091D01*
X003092Y005795D02*
X011152Y005795D01*
X011384Y005795D02*
X021372Y005795D01*
X021372Y005696D02*
X003178Y005696D01*
X003225Y005598D02*
X021372Y005598D01*
X021372Y005894D02*
X011487Y005894D01*
X011517Y005992D02*
X021372Y005992D01*
X021372Y006091D02*
X011507Y006091D01*
X011448Y006189D02*
X021372Y006189D01*
X021372Y006288D02*
X009361Y006288D01*
X009361Y006386D02*
X021372Y006386D01*
X021372Y006485D02*
X009361Y006485D01*
X009361Y006583D02*
X013514Y006583D01*
X013536Y006574D02*
X013636Y006574D01*
X013727Y006612D01*
X013759Y006643D01*
X021372Y006643D01*
X021372Y006583D02*
X013659Y006583D01*
X013536Y006574D02*
X013445Y006612D01*
X013375Y006682D01*
X016307Y007327D02*
X018424Y007327D01*
X018624Y007175D02*
X024392Y007175D01*
X024392Y007273D02*
X018671Y007273D01*
X018673Y007372D02*
X024392Y007372D01*
X028100Y009847D02*
X020137Y009847D01*
X020137Y012669D01*
X020540Y012367D02*
X020540Y011056D01*
X028100Y011056D01*
X029173Y011561D02*
X024320Y011561D01*
X024320Y013073D01*
X020843Y013072D01*
X021246Y012669D02*
X024068Y012669D01*
X023564Y012367D02*
X021649Y012367D01*
X020944Y012064D02*
X023060Y012064D01*
X024572Y012971D02*
X024572Y013778D01*
X020641Y013778D01*
X018827Y013072D02*
X016509Y013072D01*
X016509Y015088D01*
X025177Y015088D01*
X025177Y012367D01*
X028100Y012367D01*
X029993Y012693D02*
X030053Y012693D01*
X029993Y012792D02*
X031643Y012792D01*
X031643Y012890D02*
X029993Y012890D01*
X029993Y012989D02*
X030073Y012989D01*
X031165Y012989D02*
X031643Y012989D01*
X031643Y013087D02*
X031264Y013087D01*
X031316Y013186D02*
X031643Y013186D01*
X031643Y013284D02*
X031349Y013284D01*
X031349Y013383D02*
X031643Y013383D01*
X031643Y013481D02*
X031331Y013481D01*
X031290Y013580D02*
X031643Y013580D01*
X031643Y013679D02*
X031200Y013679D01*
X031014Y013777D02*
X031643Y013777D01*
X030189Y014762D02*
X029993Y014762D01*
X029993Y014664D02*
X030024Y014664D01*
X029993Y014861D02*
X031643Y014861D01*
X030140Y014960D02*
X029993Y014960D01*
X029993Y015058D02*
X030004Y015058D01*
X029934Y015157D02*
X029898Y015157D01*
X029893Y015255D02*
X026062Y015255D01*
X026062Y015354D02*
X029889Y015354D01*
X029896Y015452D02*
X029380Y015452D01*
X029359Y015443D02*
X029450Y015481D01*
X029520Y015551D01*
X029937Y015551D01*
X030010Y015649D02*
X029558Y015649D01*
X029558Y015643D02*
X029558Y015742D01*
X029520Y015834D01*
X029556Y015748D02*
X030154Y015748D01*
X030234Y015921D02*
X030076Y015986D01*
X029955Y016107D01*
X029889Y016265D01*
X029889Y016436D01*
X029955Y016594D01*
X030076Y016715D01*
X030234Y016781D01*
X031005Y016781D01*
X031163Y016715D01*
X031284Y016594D01*
X031349Y016436D01*
X031349Y016265D01*
X031284Y016107D01*
X031163Y015986D01*
X031005Y015921D01*
X030234Y015921D01*
X030175Y015945D02*
X029489Y015945D01*
X029489Y016044D02*
X030018Y016044D01*
X029940Y016142D02*
X029416Y016142D01*
X029309Y015995D02*
X029309Y015693D01*
X029237Y015452D02*
X026062Y015452D01*
X025882Y015693D02*
X025882Y014181D01*
X029309Y014181D01*
X029144Y014368D02*
X026062Y014368D01*
X025702Y014368D02*
X025558Y014368D01*
X025558Y014270D02*
X025702Y014270D01*
X025702Y014171D02*
X025558Y014171D01*
X025558Y014073D02*
X025736Y014073D01*
X025558Y013974D02*
X029163Y013974D01*
X029633Y014762D02*
X028108Y014762D01*
X029098Y015551D02*
X029168Y015481D01*
X029259Y015443D01*
X029359Y015443D01*
X029520Y015551D02*
X029558Y015643D01*
X029309Y015995D02*
X015602Y015995D01*
X015602Y011762D01*
X016912Y011762D01*
X016912Y011460D01*
X016509Y011560D02*
X013183Y011560D01*
X012679Y011157D02*
X012679Y016297D01*
X027999Y016297D01*
X028245Y016241D02*
X029899Y016241D01*
X029889Y016339D02*
X028248Y016339D01*
X028210Y016438D02*
X029890Y016438D01*
X029931Y016536D02*
X028073Y016536D01*
X027924Y016536D02*
X003229Y016536D01*
X003229Y016537D02*
X003164Y016695D01*
X003043Y016816D01*
X002885Y016882D01*
X002114Y016882D01*
X001956Y016816D01*
X001835Y016695D01*
X001770Y016537D01*
X001770Y016366D01*
X001835Y016208D01*
X001956Y016087D01*
X002114Y016022D01*
X002885Y016022D01*
X003043Y016087D01*
X003164Y016208D01*
X003229Y016366D01*
X003229Y016537D01*
X003229Y016438D02*
X012565Y016438D01*
X012499Y016339D02*
X003218Y016339D01*
X003177Y016241D02*
X012499Y016241D01*
X012499Y016142D02*
X003098Y016142D01*
X002938Y016044D02*
X012499Y016044D01*
X012499Y015945D02*
X001035Y015945D01*
X001035Y015846D02*
X002029Y015846D01*
X001956Y015816D02*
X002114Y015882D01*
X002885Y015882D01*
X003043Y015816D01*
X003164Y015695D01*
X003229Y015537D01*
X003229Y015366D01*
X003164Y015208D01*
X003043Y015087D01*
X002885Y015022D01*
X002114Y015022D01*
X001956Y015087D01*
X001835Y015208D01*
X001770Y015366D01*
X001770Y015537D01*
X001835Y015695D01*
X001956Y015816D01*
X001888Y015748D02*
X001035Y015748D01*
X001035Y015649D02*
X001816Y015649D01*
X001775Y015551D02*
X001035Y015551D01*
X001035Y015452D02*
X001770Y015452D01*
X001775Y015354D02*
X001035Y015354D01*
X001035Y015255D02*
X001815Y015255D01*
X001886Y015157D02*
X001035Y015157D01*
X001035Y015058D02*
X002026Y015058D01*
X002064Y014861D02*
X001035Y014861D01*
X001035Y014762D02*
X001902Y014762D01*
X001822Y014664D02*
X001035Y014664D01*
X001035Y014565D02*
X001781Y014565D01*
X001770Y014467D02*
X001035Y014467D01*
X001035Y014368D02*
X001770Y014368D01*
X001809Y014270D02*
X001035Y014270D01*
X001035Y014171D02*
X001872Y014171D01*
X001991Y014073D02*
X001035Y014073D01*
X001035Y013974D02*
X009303Y013974D01*
X009401Y013876D02*
X002900Y013876D01*
X003082Y013777D02*
X009499Y013777D01*
X009597Y013679D02*
X003171Y013679D01*
X003212Y013580D02*
X009695Y013580D01*
X009756Y013374D02*
X002577Y013374D01*
X002500Y013452D01*
X003043Y013087D02*
X005906Y013087D01*
X005879Y012989D02*
X001035Y012989D01*
X001035Y013087D02*
X001956Y013087D01*
X001857Y013186D02*
X001035Y013186D01*
X001035Y013284D02*
X001803Y013284D01*
X001770Y013383D02*
X001035Y013383D01*
X001035Y013481D02*
X001770Y013481D01*
X001787Y013580D02*
X001035Y013580D01*
X001035Y013679D02*
X001828Y013679D01*
X001917Y013777D02*
X001035Y013777D01*
X001035Y013876D02*
X002099Y013876D01*
X002500Y014452D02*
X009082Y014452D01*
X013032Y010477D01*
X014014Y010477D01*
X013959Y010229D02*
X013156Y010229D01*
X013254Y010131D02*
X014112Y010131D01*
X014112Y010229D02*
X014069Y010229D01*
X014112Y010032D02*
X013353Y010032D01*
X013451Y009934D02*
X014112Y009934D01*
X014112Y009835D02*
X013550Y009835D01*
X013648Y009737D02*
X014060Y009737D01*
X014042Y009638D02*
X013747Y009638D01*
X013846Y009540D02*
X014065Y009540D01*
X014143Y009441D02*
X013944Y009441D01*
X014043Y009343D02*
X016127Y009343D01*
X016127Y009441D02*
X014440Y009441D01*
X014518Y009540D02*
X016127Y009540D01*
X016127Y009244D02*
X014141Y009244D01*
X014240Y009146D02*
X016127Y009146D01*
X016127Y009047D02*
X014338Y009047D01*
X014437Y008948D02*
X016127Y008948D01*
X016127Y008850D02*
X015942Y008850D01*
X016026Y008751D02*
X016127Y008751D01*
X016127Y008653D02*
X016053Y008653D01*
X016039Y008554D02*
X016127Y008554D01*
X016127Y008456D02*
X015974Y008456D01*
X016127Y008357D02*
X009401Y008357D01*
X009390Y008259D02*
X016127Y008259D01*
X016127Y008160D02*
X009361Y008160D01*
X009361Y008062D02*
X016127Y008062D01*
X015633Y008456D02*
X009371Y008456D01*
X009361Y008554D02*
X013821Y008554D01*
X013755Y008653D02*
X009361Y008653D01*
X009361Y008751D02*
X013722Y008751D01*
X013623Y008850D02*
X009361Y008850D01*
X009361Y008948D02*
X013525Y008948D01*
X013426Y009047D02*
X009361Y009047D01*
X009361Y009146D02*
X013327Y009146D01*
X013229Y009244D02*
X009361Y009244D01*
X009361Y009343D02*
X013130Y009343D01*
X013032Y009441D02*
X009361Y009441D01*
X009361Y009540D02*
X012933Y009540D01*
X012835Y009638D02*
X009361Y009638D01*
X009361Y009737D02*
X012736Y009737D01*
X012638Y009835D02*
X009361Y009835D01*
X009361Y009934D02*
X012539Y009934D01*
X012441Y010032D02*
X009361Y010032D01*
X009361Y010131D02*
X012342Y010131D01*
X012244Y010229D02*
X009361Y010229D01*
X009834Y010328D02*
X012145Y010328D01*
X012046Y010427D02*
X009894Y010427D01*
X009905Y010525D02*
X011948Y010525D01*
X011849Y010624D02*
X009875Y010624D01*
X009865Y010722D02*
X011751Y010722D01*
X011652Y010821D02*
X009865Y010821D01*
X009865Y010919D02*
X011554Y010919D01*
X011455Y011018D02*
X009865Y011018D01*
X009865Y011116D02*
X011357Y011116D01*
X011258Y011215D02*
X009865Y011215D01*
X009865Y011313D02*
X011160Y011313D01*
X011061Y011412D02*
X009865Y011412D01*
X009865Y011511D02*
X010962Y011511D01*
X010864Y011609D02*
X009865Y011609D01*
X009865Y011708D02*
X010765Y011708D01*
X010667Y011806D02*
X009865Y011806D01*
X009901Y011905D02*
X010568Y011905D01*
X010470Y012003D02*
X009905Y012003D01*
X009868Y012102D02*
X010371Y012102D01*
X010273Y012200D02*
X009735Y012200D01*
X009576Y012200D02*
X007719Y012200D01*
X007719Y012102D02*
X009443Y012102D01*
X009406Y012003D02*
X007719Y012003D01*
X007719Y011905D02*
X009410Y011905D01*
X009445Y011806D02*
X007719Y011806D01*
X007744Y011708D02*
X009445Y011708D01*
X009445Y011609D02*
X007788Y011609D01*
X007788Y011511D02*
X009445Y011511D01*
X009445Y011412D02*
X007743Y011412D01*
X007595Y011313D02*
X009445Y011313D01*
X009445Y011215D02*
X003167Y011215D01*
X003072Y011116D02*
X009445Y011116D01*
X009445Y011018D02*
X001035Y011018D01*
X001035Y011116D02*
X001927Y011116D01*
X001832Y011215D02*
X001035Y011215D01*
X001035Y011313D02*
X001791Y011313D01*
X001770Y011412D02*
X001035Y011412D01*
X001035Y011511D02*
X001770Y011511D01*
X001799Y011609D02*
X001035Y011609D01*
X001035Y011708D02*
X001847Y011708D01*
X001946Y011806D02*
X001035Y011806D01*
X001035Y011905D02*
X006321Y011905D01*
X006321Y012003D02*
X001035Y012003D01*
X001035Y012102D02*
X001941Y012102D01*
X001843Y012200D02*
X001035Y012200D01*
X001035Y012299D02*
X001797Y012299D01*
X001770Y012397D02*
X001035Y012397D01*
X001035Y012496D02*
X001770Y012496D01*
X001793Y012595D02*
X001035Y012595D01*
X001035Y012693D02*
X001834Y012693D01*
X001931Y012792D02*
X001035Y012792D01*
X001035Y012890D02*
X005892Y012890D01*
X005918Y012792D02*
X003068Y012792D01*
X003165Y012693D02*
X005918Y012693D01*
X006272Y012299D02*
X006321Y012299D01*
X006321Y012200D02*
X003156Y012200D01*
X003058Y012102D02*
X006321Y012102D01*
X006321Y011806D02*
X003053Y011806D01*
X003152Y011708D02*
X006321Y011708D01*
X006741Y011708D02*
X007334Y011708D01*
X007359Y011806D02*
X006741Y011806D01*
X006741Y011905D02*
X007359Y011905D01*
X007359Y012003D02*
X006741Y012003D01*
X006741Y012102D02*
X007359Y012102D01*
X007359Y012200D02*
X006741Y012200D01*
X006741Y012299D02*
X007359Y012299D01*
X007359Y012397D02*
X006741Y012397D01*
X006741Y012496D02*
X007359Y012496D01*
X007411Y012595D02*
X006741Y012595D01*
X006741Y012693D02*
X010183Y012693D01*
X010085Y012792D02*
X006741Y012792D01*
X006767Y012890D02*
X009986Y012890D01*
X009887Y012989D02*
X006780Y012989D01*
X006753Y013087D02*
X009789Y013087D01*
X009690Y013186D02*
X006665Y013186D01*
X005994Y013186D02*
X003142Y013186D01*
X003008Y014073D02*
X009205Y014073D01*
X009107Y014171D02*
X003127Y014171D01*
X003190Y014270D02*
X009009Y014270D01*
X009223Y014565D02*
X010629Y014565D01*
X010616Y014533D02*
X010616Y014434D01*
X010653Y014342D01*
X010655Y014340D01*
X010655Y013719D01*
X010653Y013717D01*
X010616Y013626D01*
X010616Y013526D01*
X010653Y013435D01*
X010724Y013365D01*
X010815Y013327D01*
X010914Y013327D01*
X011006Y013365D01*
X011047Y013406D01*
X011057Y013382D01*
X011127Y013312D01*
X011218Y013274D01*
X011318Y013274D01*
X011409Y013312D01*
X011479Y013382D01*
X011517Y013474D01*
X011517Y013573D01*
X011479Y013665D01*
X011478Y013666D01*
X011478Y014340D01*
X011479Y014342D01*
X011517Y014434D01*
X011517Y014533D01*
X011479Y014624D01*
X011409Y014695D01*
X011318Y014732D01*
X011218Y014732D01*
X011127Y014695D01*
X011066Y014634D01*
X011006Y014695D01*
X010914Y014732D01*
X010815Y014732D01*
X010724Y014695D01*
X010653Y014624D01*
X010616Y014533D01*
X010616Y014467D02*
X009321Y014467D01*
X009419Y014368D02*
X010643Y014368D01*
X010655Y014270D02*
X009517Y014270D01*
X009615Y014171D02*
X010655Y014171D01*
X010655Y014073D02*
X009713Y014073D01*
X009810Y013974D02*
X010655Y013974D01*
X010655Y013876D02*
X009908Y013876D01*
X010006Y013777D02*
X010655Y013777D01*
X010637Y013679D02*
X010104Y013679D01*
X010202Y013580D02*
X010616Y013580D01*
X010634Y013481D02*
X010300Y013481D01*
X010398Y013383D02*
X010705Y013383D01*
X010594Y013186D02*
X012499Y013186D01*
X012499Y013284D02*
X011342Y013284D01*
X011194Y013284D02*
X010496Y013284D01*
X010692Y013087D02*
X012499Y013087D01*
X012499Y012989D02*
X010790Y012989D01*
X010888Y012890D02*
X012499Y012890D01*
X012499Y012792D02*
X010986Y012792D01*
X011083Y012693D02*
X012499Y012693D01*
X012499Y012595D02*
X011181Y012595D01*
X011279Y012496D02*
X012499Y012496D01*
X012499Y012397D02*
X011377Y012397D01*
X011475Y012299D02*
X012499Y012299D01*
X012499Y012200D02*
X011573Y012200D01*
X011671Y012102D02*
X012499Y012102D01*
X012499Y012003D02*
X011769Y012003D01*
X011867Y011905D02*
X012499Y011905D01*
X012499Y011806D02*
X011965Y011806D01*
X012063Y011708D02*
X012499Y011708D01*
X012499Y011609D02*
X012161Y011609D01*
X012259Y011511D02*
X012499Y011511D01*
X012499Y011412D02*
X012356Y011412D01*
X012454Y011313D02*
X012499Y011313D01*
X013788Y011963D02*
X013788Y014987D01*
X014292Y014987D01*
X012499Y014960D02*
X001035Y014960D01*
X002935Y014861D02*
X012499Y014861D01*
X012499Y014762D02*
X003097Y014762D01*
X003177Y014664D02*
X010693Y014664D01*
X011037Y014664D02*
X011096Y014664D01*
X011440Y014664D02*
X012499Y014664D01*
X012499Y014565D02*
X011504Y014565D01*
X011517Y014467D02*
X012499Y014467D01*
X012499Y014368D02*
X011490Y014368D01*
X011478Y014270D02*
X012499Y014270D01*
X012499Y014171D02*
X011478Y014171D01*
X011478Y014073D02*
X012499Y014073D01*
X012499Y013974D02*
X011478Y013974D01*
X011478Y013876D02*
X012499Y013876D01*
X012499Y013777D02*
X011478Y013777D01*
X011478Y013679D02*
X012499Y013679D01*
X012499Y013580D02*
X011515Y013580D01*
X011517Y013481D02*
X012499Y013481D01*
X012499Y013383D02*
X011480Y013383D01*
X011056Y013383D02*
X011024Y013383D01*
X009756Y013374D02*
X014493Y008637D01*
X015803Y008637D01*
X015665Y008850D02*
X014535Y008850D01*
X014322Y008554D02*
X014158Y008554D01*
X013989Y008738D02*
X010260Y012467D01*
X007539Y012467D01*
X007539Y011560D01*
X007335Y011412D02*
X006741Y011412D01*
X006741Y011511D02*
X007290Y011511D01*
X007290Y011609D02*
X006741Y011609D01*
X006690Y011313D02*
X007483Y011313D01*
X008977Y010624D02*
X003194Y010624D01*
X003164Y010695D02*
X003229Y010537D01*
X003229Y010366D01*
X003164Y010208D01*
X003043Y010087D01*
X002885Y010022D01*
X002114Y010022D01*
X001956Y010087D01*
X001835Y010208D01*
X001770Y010366D01*
X001770Y010537D01*
X001835Y010695D01*
X001956Y010816D01*
X002114Y010882D01*
X002885Y010882D01*
X003043Y010816D01*
X003164Y010695D01*
X003137Y010722D02*
X009445Y010722D01*
X009445Y010821D02*
X003032Y010821D01*
X003229Y010525D02*
X008941Y010525D01*
X008941Y010427D02*
X003229Y010427D01*
X003214Y010328D02*
X008941Y010328D01*
X008941Y010229D02*
X003173Y010229D01*
X003087Y010131D02*
X008941Y010131D01*
X008941Y010032D02*
X002911Y010032D01*
X002885Y009882D02*
X002114Y009882D01*
X001956Y009816D01*
X001835Y009695D01*
X001770Y009537D01*
X001770Y009366D01*
X001835Y009208D01*
X001956Y009087D01*
X002114Y009022D01*
X002885Y009022D01*
X003043Y009087D01*
X003164Y009208D01*
X003229Y009366D01*
X003229Y009537D01*
X003164Y009695D01*
X003043Y009816D01*
X002885Y009882D01*
X002997Y009835D02*
X008941Y009835D01*
X008941Y009737D02*
X003122Y009737D01*
X003188Y009638D02*
X008941Y009638D01*
X008941Y009540D02*
X003228Y009540D01*
X003229Y009441D02*
X008941Y009441D01*
X008941Y009343D02*
X003220Y009343D01*
X003179Y009244D02*
X008941Y009244D01*
X008941Y009146D02*
X003101Y009146D01*
X002946Y009047D02*
X008941Y009047D01*
X008941Y009934D02*
X001035Y009934D01*
X001035Y010032D02*
X002088Y010032D01*
X001912Y010131D02*
X001035Y010131D01*
X001035Y010229D02*
X001826Y010229D01*
X001785Y010328D02*
X001035Y010328D01*
X001035Y010427D02*
X001770Y010427D01*
X001770Y010525D02*
X001035Y010525D01*
X001035Y010624D02*
X001805Y010624D01*
X001862Y010722D02*
X001035Y010722D01*
X001035Y010821D02*
X001967Y010821D01*
X001035Y010919D02*
X009445Y010919D01*
X009157Y014631D02*
X009157Y014631D01*
X012499Y015058D02*
X002973Y015058D01*
X003113Y015157D02*
X012499Y015157D01*
X012499Y015255D02*
X003184Y015255D01*
X003224Y015354D02*
X012499Y015354D01*
X012499Y015452D02*
X003229Y015452D01*
X003224Y015551D02*
X012499Y015551D01*
X012499Y015649D02*
X003183Y015649D01*
X003111Y015748D02*
X012499Y015748D01*
X012499Y015846D02*
X002970Y015846D01*
X002061Y016044D02*
X001035Y016044D01*
X001035Y016142D02*
X001901Y016142D01*
X001821Y016241D02*
X001035Y016241D01*
X001035Y016339D02*
X001781Y016339D01*
X001770Y016438D02*
X001035Y016438D01*
X001035Y016536D02*
X001770Y016536D01*
X001810Y016635D02*
X001035Y016635D01*
X001035Y016733D02*
X001873Y016733D01*
X001994Y016832D02*
X001035Y016832D01*
X001035Y016930D02*
X031643Y016930D01*
X031643Y016832D02*
X003005Y016832D01*
X003126Y016733D02*
X030119Y016733D01*
X029995Y016635D02*
X003189Y016635D01*
X001035Y017029D02*
X031643Y017029D01*
X031643Y017128D02*
X001035Y017128D01*
X001035Y017226D02*
X031643Y017226D01*
X031643Y017325D02*
X001035Y017325D01*
X001035Y017423D02*
X031643Y017423D01*
X031643Y017522D02*
X001035Y017522D01*
X001035Y017620D02*
X031643Y017620D01*
X031643Y016733D02*
X031119Y016733D01*
X031243Y016635D02*
X031643Y016635D01*
X031643Y016536D02*
X031308Y016536D01*
X031349Y016438D02*
X031643Y016438D01*
X031643Y016339D02*
X031349Y016339D01*
X031339Y016241D02*
X031643Y016241D01*
X031643Y016142D02*
X031298Y016142D01*
X031220Y016044D02*
X031643Y016044D01*
X031643Y015945D02*
X031063Y015945D01*
X025702Y015452D02*
X025558Y015452D01*
X025558Y015354D02*
X025702Y015354D01*
X025702Y015255D02*
X025558Y015255D01*
X025558Y015157D02*
X025702Y015157D01*
X025702Y015058D02*
X025558Y015058D01*
X025558Y014960D02*
X025702Y014960D01*
X025702Y014861D02*
X025558Y014861D01*
X025558Y014762D02*
X025702Y014762D01*
X025702Y014664D02*
X025558Y014664D01*
X025558Y014565D02*
X025702Y014565D01*
X025702Y014467D02*
X025558Y014467D01*
X029993Y012003D02*
X030059Y012003D01*
X029993Y011905D02*
X031643Y011905D01*
X031643Y012003D02*
X031180Y012003D01*
X031278Y012102D02*
X031643Y012102D01*
X031643Y012200D02*
X031322Y012200D01*
X031349Y012299D02*
X031643Y012299D01*
X031643Y012397D02*
X031349Y012397D01*
X031324Y012496D02*
X031643Y012496D01*
X031643Y012595D02*
X031284Y012595D01*
X031185Y012693D02*
X031643Y012693D01*
X031643Y011806D02*
X029993Y011806D01*
X029993Y011708D02*
X030068Y011708D01*
X030044Y011018D02*
X029993Y011018D01*
X029993Y010919D02*
X031643Y010919D01*
X031643Y010821D02*
X029993Y010821D01*
X029993Y010722D02*
X030092Y010722D01*
X031146Y010722D02*
X031643Y010722D01*
X031643Y010624D02*
X031254Y010624D01*
X031312Y010525D02*
X031643Y010525D01*
X031643Y010427D02*
X031349Y010427D01*
X031349Y010328D02*
X031643Y010328D01*
X031643Y010229D02*
X031334Y010229D01*
X031293Y010131D02*
X031643Y010131D01*
X031643Y010032D02*
X031209Y010032D01*
X031036Y009934D02*
X031643Y009934D01*
X029999Y009638D02*
X029993Y009638D01*
X031194Y011018D02*
X031643Y011018D01*
X031643Y011116D02*
X031287Y011116D01*
X031328Y011215D02*
X031643Y011215D01*
X031643Y011313D02*
X031349Y011313D01*
X031349Y011412D02*
X031643Y011412D01*
X031643Y011511D02*
X031318Y011511D01*
X031269Y011609D02*
X031643Y011609D01*
X031643Y011708D02*
X031170Y011708D01*
X030991Y005795D02*
X031643Y005795D01*
X031643Y005696D02*
X031209Y005696D01*
X031296Y005598D02*
X031643Y005598D01*
X030669Y005598D02*
X030569Y005598D01*
X030569Y005696D02*
X030669Y005696D01*
X030669Y005795D02*
X030569Y005795D01*
X030569Y005499D02*
X030669Y005499D01*
X022365Y004120D02*
X021740Y004120D01*
X021871Y004218D02*
X022233Y004218D01*
X022166Y004317D02*
X021939Y004317D01*
X021979Y004415D02*
X022125Y004415D01*
X022122Y004514D02*
X021982Y004514D01*
X021982Y004613D02*
X022122Y004613D01*
X022122Y004711D02*
X021982Y004711D01*
X021122Y004711D02*
X021002Y004711D01*
X021002Y004613D02*
X021122Y004613D01*
X021122Y004514D02*
X021002Y004514D01*
X020993Y004415D02*
X021125Y004415D01*
X021166Y004317D02*
X020960Y004317D01*
X020898Y004218D02*
X021233Y004218D01*
X021365Y004120D02*
X020782Y004120D01*
X020602Y004120D02*
X020502Y004120D01*
X020502Y004218D02*
X020602Y004218D01*
X020602Y004317D02*
X020502Y004317D01*
X020502Y004415D02*
X020602Y004415D01*
X020602Y004514D02*
X020502Y004514D01*
X020502Y004613D02*
X020602Y004613D01*
X020602Y004711D02*
X020502Y004711D01*
X020102Y004908D02*
X019982Y004908D01*
X019122Y005007D02*
X002867Y005007D01*
X003088Y005105D02*
X019122Y005105D01*
X019127Y005204D02*
X003176Y005204D01*
X003224Y005302D02*
X019168Y005302D01*
X019238Y005401D02*
X003247Y005401D01*
X002549Y005401D02*
X002450Y005401D01*
X002449Y005499D02*
X001035Y005499D01*
X001035Y005401D02*
X001752Y005401D01*
X001775Y005302D02*
X001035Y005302D01*
X001035Y005204D02*
X001823Y005204D01*
X001911Y005105D02*
X001035Y005105D01*
X001035Y005007D02*
X002132Y005007D01*
X002450Y005007D02*
X002549Y005007D01*
X002549Y005105D02*
X002450Y005105D01*
X002450Y005204D02*
X002549Y005204D01*
X002549Y005302D02*
X002450Y005302D01*
X002450Y004810D02*
X002549Y004810D01*
X002549Y004711D02*
X002450Y004711D01*
X002450Y004613D02*
X002549Y004613D01*
X002549Y004514D02*
X002450Y004514D01*
X002450Y004218D02*
X002549Y004218D01*
X002549Y004120D02*
X002450Y004120D01*
X002450Y004021D02*
X002549Y004021D01*
X002931Y004021D02*
X008779Y004021D01*
X008714Y004120D02*
X003104Y004120D01*
X003186Y004218D02*
X008701Y004218D01*
X008727Y004317D02*
X003229Y004317D01*
X001774Y005598D02*
X001035Y005598D01*
X001035Y005696D02*
X001821Y005696D01*
X001907Y005795D02*
X001035Y005795D01*
X001035Y009047D02*
X002053Y009047D01*
X001898Y009146D02*
X001035Y009146D01*
X001035Y009244D02*
X001820Y009244D01*
X001779Y009343D02*
X001035Y009343D01*
X001035Y009441D02*
X001770Y009441D01*
X001771Y009540D02*
X001035Y009540D01*
X001035Y009638D02*
X001811Y009638D01*
X001877Y009737D02*
X001035Y009737D01*
X001035Y009835D02*
X002002Y009835D01*
X016084Y012595D02*
X016127Y012595D01*
D12*
X016421Y012199D03*
X017214Y011661D03*
X016912Y011460D03*
X016207Y011258D03*
X015199Y010956D03*
X014014Y010477D03*
X012981Y011258D03*
X013183Y011560D03*
X013788Y011963D03*
X016509Y010452D03*
X018323Y010250D03*
X018537Y009884D03*
X018827Y009746D03*
X018525Y010452D03*
X018726Y010653D03*
X018827Y011056D03*
X019633Y011661D03*
X019432Y011863D03*
X019230Y012064D03*
X018323Y011863D03*
X019835Y013072D03*
X020339Y013274D03*
X020843Y013072D03*
X021246Y012669D03*
X021649Y012367D03*
X020944Y012064D03*
X020540Y012367D03*
X020137Y012669D03*
X020641Y013778D03*
X023060Y012064D03*
X023564Y012367D03*
X024068Y012669D03*
X024572Y012971D03*
X025681Y013475D03*
X025681Y013878D03*
X026890Y013878D03*
X026890Y013475D03*
X028100Y013677D03*
X029309Y014181D03*
X027999Y014987D03*
X029309Y015693D03*
X027999Y016297D03*
X029208Y012971D03*
X028100Y012367D03*
X029173Y011561D03*
X028100Y011056D03*
X029309Y010250D03*
X028100Y009847D03*
X028200Y007428D03*
X027293Y007428D03*
X026285Y007428D03*
X020037Y008940D03*
X019633Y008940D03*
X018323Y008940D03*
X017227Y008234D03*
X015803Y008637D03*
X014292Y009645D03*
X013989Y008738D03*
X013586Y006823D03*
X011268Y006017D03*
X011974Y004203D03*
X008950Y004203D03*
X009151Y008335D03*
X009655Y010502D03*
X007539Y011560D03*
X009655Y011963D03*
X010865Y013576D03*
X011268Y013524D03*
X011268Y014483D03*
X010865Y014483D03*
X014292Y014987D03*
X006531Y012971D03*
X006128Y012971D03*
X018424Y007327D03*
D13*
X011268Y006017D02*
X009151Y006017D01*
X009151Y008335D01*
X009151Y010502D01*
X009655Y010502D01*
X009655Y011963D01*
X010865Y013576D02*
X010865Y014483D01*
X011268Y014483D02*
X011268Y013524D01*
X006531Y012971D02*
X006531Y011452D01*
X002500Y011452D01*
X002500Y012452D02*
X006128Y012452D01*
X006128Y012971D01*
M02*
